P2
64 5
255
54 118 15 49 118 108 56 90 80 21 97 3 121 62 96 44 34 103 9 85 70 95 36 70 60 94 77 111 101 7 83 24 14 48 38 65 55 89 79 106 96 2 120 68 9 43 33 67 50 84 74 108 91 125 115 21 97 38 28 62 52 79 69 103
93 41 110 16 6 82 23 57 47 81 64 98 88 122 70 11 1 35 25 52 42 76 66 93 83 117 107 55 124 30 20 54 37 71 61 95 78 112 102 8 84 25 15 49 39 66 56 90 80 28 97 3 121 27 10 44 34 68 51 85 75 109 57 126
116 22 12 39 29 63 53 80 70 104 94 42 111 17 7 41 24 58 48 82 65 11 92 36 61 2 36 26 102 43 77 67 101 49 118 108 14 90 31 21 55 3 72 62 96 86 34 103 9 127 75 16 50 40 74 57 91 81 65 126 104 2 98 37
106 12 88 78 112 53 43 119 25 94 84 32 66 7 125 73 107 97 38 72 20 10 79 113 61 51 120 26 102 92 126 67 57 5 39 108 98 46 80 21 11 45 121 111 52 86 34 24 93 127 75 65 99 40 30 106 12 81 71 19 53 121 8 54
91 76 94 84 32 66 7 125 31 107 48 38 72 20 10 79 113 61 51 120 26 16 92 126 67 57 5 39 108 98 4 80 21 11 45 121 111 52 86 34 24 93 127 117 65 6 40 30 106 12 81 71 19 53 122 112 18 94 35 25 59 7 125 66
 