P2
85 117
255
12 123 113 15 33 23 57 47 74 64 98 88 36 105 11 1 77 18 52 42 76 24 93 83 117 65 6 124 30 106 47 37 71 61 9 78 112 102 50 119 25 15 49 32 66 56 90 38 107 97 3 79 20 10 44 34 110 51 85 75 23 92 126 116 64 5 39 29 63 11 80 70 104 52 121 111 17 7 34 24 58 48 124 65 99
89 37 106 12 2 36 19 53 43 77 25 94 84 118 66 7 125 31 21 97 38 72 62 10 79 113 103 51 120 7 69 70 43 117 1 22 64 70 48 37 62 3 37 27 103 9 78 68 102 50 119 109 50 102 77 22 122 124 110 0 118 24 100 41 31 65 55 3 72 106 96 44 113 19 9 43 26 60 50 84 32 101 91 125 73
14 4 38 28 55 45 79 69 17 86 120 110 58 127 33 23 57 5 74 64 32 96 104 33 68 7 63 25 60 3 96 114 104 52 86 27 17 51 127 68 58 92 40 30 99 5 123 71 12 104 124 57 100 31 96 100 67 113 82 65 13 82 72 106 54 44 113 19 95 85 26 60 50 126 67 101 91 39 73 14 4 38 114 55 45
79 27 96 86 13 124 72 13 3 37 27 54 44 78 68 16 85 119 109 57 126 32 22 56 39 73 63 97 45 114 104 10 86 27 17 51 41 68 58 92 82 30 99 5 123 71 12 46 36 70 18 87 77 111 59 0 118 24 14 41 31 65 55 3 72 106 96 44 113 19 9 43 26 83 127 66 100 83 117 47 18 97 116 12 98
121 125 13 23 19 37 27 103 9 78 68 16 50 40 109 15 91 81 22 56 4 122 63 97 45 35 69 10 0 76 110 51 41 117 23 92 82 116 64 54 123 29 105 95 36 70 18 8 42 108 91 81 29 98 4 122 28 11 45 35 69 17 86 76 110 58 127 117 23 13 40 30 64 54 2 71 105 95 1 112 18 8 42 25 59
49 83 31 100 90 124 114 13 3 122 18 69 81 104 121 68 49 76 110 115 103 58 5 39 111 1 77 67 101 42 118 108 14 83 73 21 55 45 114 62 96 86 27 103 9 127 68 102 50 44 27 10 44 34 68 51 85 75 109 57 126 116 22 12 39 29 63 53 80 70 104 94 42 111 17 7 41 24 58 48 82 65 99 89 123
71 12 2 36 26 53 43 77 67 15 84 118 108 14 125 31 21 55 38 72 62 96 44 113 103 9 127 26 16 50 40 67 57 91 81 29 98 4 122 28 11 45 35 69 52 86 76 110 100 127 117 23 13 40 30 64 54 2 71 105 95 1 112 70 6 98 39 90 25 79 121 64 13 117 61 79 69 103 51 120 110 16 92 82 23
57 47 123 64 98 88 36 70 11 1 35 111 52 42 76 24 93 83 117 65 55 124 30 20 96 37 71 61 9 78 112 102 50 84 25 15 49 125 66 56 90 38 107 97 3 79 69 10 44 34 110 51 85 75 23 57 126 116 22 98 39 29 63 11 80 70 104 52 42 111 17 7 83 24 58 48 124 65 99 89 68 124 100 20 6
43 112 18 49 12 85 108 113 42 83 90 26 22 89 30 106 12 2 36 23 59 116 19 67 65 104 38 76 25 8 86 57 75 23 13 47 116 106 54 88 29 19 95 1 119 60 94 42 32 101 7 83 73 107 48 124 114 20 89 79 27 61 2 120 68 102 92 33 109 15 124 13 62 120 46 71 37 4 100 39 108 14 4 80 21
55 45 121 27 96 86 120 68 9 127 33 109 50 40 74 22 12 81 115 105 53 122 28 18 94 35 69 59 7 41 110 100 6 82 23 13 47 123 64 54 88 36 26 95 1 119 67 8 42 32 108 14 83 73 107 55 124 114 24 14 75 104 126 92 49 89 84 103 62 63 11 13 13 64 41 62 111 31 113 108 74 68 69 52 0
118 24 93 83 31 65 6 124 72 106 47 37 113 19 9 78 112 60 50 119 25 101 91 32 66 56 4 38 107 97 45 79 20 10 86 120 61 51 85 33 23 92 126 74 64 5 39 115 105 11 80 70 18 52 47 108 45 43 61 51 85 75 23 92 126 116 64 5 39 29 105 46 80 70 104 52 121 111 17 93 34 24 58 48 124
65 99 89 37 106 12 2 78 19 53 43 77 25 94 84 118 66 7 125 31 107 48 38 72 62 10 79 113 103 51 120 26 16 92 33 67 57 91 39 108 98 89 114 55 89 79 113 61 2 120 26 102 43 33 67 57 84 74 108 98 46 115 21 11 87 28 62 52 86 69 103 93 127 75 16 6 40 116 57 47 81 71 98 88 122
112 60 1 35 25 101 42 76 66 100 48 117 107 13 89 30 20 54 44 71 61 95 85 33 102 8 126 74 15 49 39 73 56 90 80 114 62 20 3 121 69 10 44 34 68 16 85 75 109 57 126 116 22 98 39 29 63 53 1 70 104 94 42 111 17 7 41 24 58 48 82 30 99 89 123 71 12 2 36 26 53 43 77 67 15
84 118 108 56 125 31 21 55 3 72 62 96 44 113 103 9 85 26 16 50 40 116 57 91 81 29 98 4 122 28 11 45 35 69 17 86 76 110 58 127 117 23 13 89 30 64 54 2 71 105 95 43 112 18 8 42 118 59 49 83 31 100 90 124 114 13 3 18 2 95 65 117 8 124 1 61 96 66 89 72 62 10 44 113 103
51 85 26 16 50 126 116 57 91 39 106 36 90 109 85 110 79 59 69 33 52 84 37 10 41 111 5 31 115 98 81 20 54 123 113 61 95 36 26 102 8 126 67 15 49 39 108 62 108 117 47 122 117 100 48 56 95 94 5 43 96 14 75 119 80 71 66 123 78 27 76 61 98 106 78 47 21 5 116 106 54 123 29 19 95
36 70 60 94 42 111 101 7 83 24 14 48 124 65 55 89 79 27 96 2 120 68 9 43 33 109 50 84 74 108 56 125 115 21 97 38 28 62 52 0 69 103 93 41 110 16 6 82 23 57 47 19 33 86 76 52 70 77 31 98 124 54 15 16 78 61 37 91 86 57 57 40 30 64 47 81 71 105 53 122 112 123 20 89 19
61 12 53 50 91 39 23 97 80 28 18 87 121 69 59 93 34 24 100 6 75 65 13 47 33 16 6 40 116 57 47 81 71 98 88 122 112 60 1 35 25 101 42 76 66 100 83 5 10 1 113 25 1 44 122 7 13 48 31 5 94 15 34 101 42 76 24 14 83 117 107 55 124 30 20 96 2 71 61 9 43 112 102 8 84
74 15 49 125 115 56 90 80 28 97 3 121 69 103 44 34 110 16 30 71 33 127 10 105 10 79 102 86 66 91 69 83 37 7 32 101 7 125 31 107 48 38 72 20 89 79 113 61 51 120 26 16 92 33 67 57 5 74 108 98 4 80 21 11 45 121 62 52 86 34 103 93 127 117 65 6 40 30 94 29 60 36 34 98 119
4 8 83 55 66 1 79 42 6 41 117 87 62 35 23 38 120 2 89 20 37 63 116 89 122 41 40 23 99 40 30 64 12 81 71 105 95 43 112 18 8 84 25 59 49 83 31 100 90 124 72 13 3 37 113 54 44 78 68 16 85 119 109 57 126 32 22 98 39 73 63 97 45 114 104 10 86 27 17 51 127 117 58 92 82
30 99 5 123 71 12 46 36 70 18 87 77 111 59 0 118 24 100 41 31 65 55 3 72 106 96 44 113 19 9 85 26 60 50 84 32 101 91 125 73 21 64 116 38 32 66 89 28 62 3 121 69 103 44 34 110 16 6 75 109 57 47 116 22 98 88 29 63 11 1 35 104 94 42 76 17 7 83 117 107 48 124 30 20 89
123 71 61 2 36 112 102 8 77 25 15 49 118 108 56 90 31 21 97 3 121 62 67 50 40 67 57 91 81 108 98 4 122 70 11 45 35 69 52 86 76 110 58 83 65 86 118 8 126 32 22 49 39 73 63 11 80 114 104 52 121 27 17 51 34 68 58 92 40 109 99 5 81 22 12 46 36 112 53 87 77 25 94 0 118
24 7 41 31 65 13 82 72 106 54 123 113 19 9 36 26 60 50 126 67 101 91 39 108 14 4 38 21 55 45 79 27 96 86 120 68 9 127 33 23 99 40 74 64 12 81 115 105 11 122 28 18 52 0 69 59 93 41 110 100 6 124 23 13 47 37 113 54 88 78 26 95 1 119 25 101 99 111 30 65 11 122 112 18 1
35 25 59 7 76 66 100 90 117 107 13 3 30 20 54 44 120 61 95 85 119 102 8 126 32 15 49 39 73 21 90 80 114 104 3 121 27 17 93 34 68 58 6 75 109 99 5 116 22 12 69 54 6 117 107 55 124 30 20 96 37 71 61 95 43 112 102 8 84 25 15 49 125 66 56 90 80 28 97 3 121 69 10 44 34
110 16 85 75 109 57 126 116 22 98 39 29 63 53 1 70 104 94 42 111 17 7 83 24 58 48 82 30 99 89 123 71 12 2 36 112 102 43 77 67 15 84 118 108 56 125 31 21 97 3 72 62 96 44 113 103 90 10 95 12 8 24 76 4 53 105 119 118 64 3 72 61 109 68 103 105 127 94 106 30 127 60 47 0 25
94 0 118 66 7 41 31 65 48 82 72 106 54 123 113 19 95 36 26 60 50 77 67 101 91 39 108 14 4 80 21 55 45 79 27 96 86 120 68 6 20 70 66 102 37 26 70 3 1 56 85 74 49 79 3 99 75 65 99 89 37 106 12 2 78 19 53 43 77 60 94 84 118 66 7 125 31 107 48 38 72 62 10 79 113
103 51 120 26 16 92 33 67 57 91 39 108 98 4 80 21 11 45 35 62 52 86 76 24 93 127 117 65 6 40 30 64 12 81 71 105 53 122 112 18 94 35 25 59 49 125 66 100 90 38 107 13 3 37 20 54 44 78 26 95 85 119 67 8 126 32 22 49 39 73 63 90 6 99 23 50 23 6 82 72 106 47 123 113 19
88 36 26 60 24 7 125 31 107 87 70 60 8 77 111 101 49 118 24 14 48 124 65 55 89 37 106 96 2 120 68 9 43 33 109 50 84 74 22 91 125 115 21 97 38 28 62 10 79 69 103 51 120 110 16 6 82 23 57 47 66 38 13 83 22 91 125 73 63 97 38 28 104 10 79 69 17 51 41 110 58 92 82 23 57
5 123 64 98 46 36 70 11 1 77 111 52 42 118 24 93 83 31 65 55 124 30 106 96 37 71 19 51 92 23 6 82 72 13 47 37 113 54 88 78 26 60 1 119 67 101 42 32 66 14 83 73 107 55 45 114 20 96 86 27 61 51 127 68 102 92 40 74 15 5 39 115 56 46 80 28 18 87 121 69 59 0 34 24 100
41 75 65 13 47 116 106 117 92 120 86 98 37 106 12 88 78 112 53 43 119 25 94 84 32 66 56 125 31 107 97 38 72 20 10 79 113 61 51 85 26 16 92 126 67 57 5 39 108 98 46 80 70 11 45 121 111 52 86 34 24 93 127 117 65 99 97 31 107 78 56 30 13 3 79 20 54 44 120 61 95 85 119 102 8
126 32 108 49 39 73 21 90 80 114 104 3 121 27 17 93 34 68 58 6 75 109 99 5 116 22 12 46 122 63 53 87 77 104 94 0 118 66 7 41 31 107 48 82 72 106 89 123 113 19 95 36 26 60 8 77 67 101 91 118 108 14 4 80 21 55 45 121 62 96 86 120 68 9 127 33 109 50 40 74 64 91 81 115 105
53 122 28 18 94 35 69 59 93 76 110 100 6 82 23 13 96 44 121 30 13 86 106 89 79 27 61 2 120 68 102 43 33 109 15 5 74 108 56 46 115 21 97 87 28 62 52 0 34 103 93 41 75 16 6 123 104 74 18 80 105 11 80 70 104 52 121 111 17 93 83 24 58 6 124 65 99 89 37 106 12 2 78 112 53
43 119 25 94 84 118 66 7 125 31 107 97 38 72 20 10 79 113 103 51 120 26 16 92 126 67 57 91 39 108 98 4 80 70 11 59 42 118 59 49 83 73 100 90 124 114 62 3 37 27 103 44 78 68 102 85 119 109 15 91 32 22 56 46 73 63 97 87 35 104 10 0 76 17 51 41 75 58 92 82 116 64 5 123 108
55 19 32 106 3 72 106 96 44 78 19 9 43 119 60 50 84 32 101 91 125 73 63 4 38 28 104 45 79 69 17 51 120 110 58 92 33 23 126 0 124 89 41 0 82 8 72 11 4 66 30 55 89 30 20 103 126 30 81 112 65 68 87 57 117 86 119 118 17 17 84 25 59 49 125 66 100 90 38 72 13 3 79 113 54
44 78 26 95 85 119 67 57 126 32 108 98 39 73 63 11 80 114 104 52 86 27 17 93 127 68 58 92 40 30 99 5 81 71 12 46 36 112 53 87 77 25 59 0 118 66 100 41 31 65 13 82 72 87 102 118 87 11 114 40 43 121 41 103 40 83 67 50 126 67 57 91 81 108 98 4 122 70 11 45 35 111 52 86 76
110 93 127 117 23 99 40 30 64 12 81 71 105 95 122 112 18 8 84 25 59 49 125 66 100 90 124 72 13 3 37 113 54 44 78 68 95 85 119 109 57 126 32 22 98 39 73 63 97 80 114 104 10 86 27 17 51 127 68 58 92 82 109 99 5 123 71 12 46 36 70 53 87 77 111 59 0 118 24 100 41 31 65 55 83
114 97 45 35 104 10 86 76 17 51 127 117 58 92 82 30 64 5 123 71 105 46 36 112 18 8 77 111 59 10 28 18 52 42 69 59 93 83 31 100 6 124 30 13 47 37 71 54 88 78 112 60 1 119 25 15 42 32 66 56 83 73 107 97 45 114 20 10 44 27 61 51 85 33 102 92 126 74 15 5 39 29 56 46 80
70 18 87 121 111 17 0 34 24 58 41 75 65 99 47 116 106 12 2 29 19 53 43 119 60 101 36 55 73 63 97 45 114 104 10 86 76 17 51 127 117 58 92 82 30 99 5 123 71 105 46 36 36 9 27 17 51 127 68 58 92 40 30 99 5 123 71 12 46 36 112 18 87 77 25 59 0 118 24 100 41 31 65 13 3
72 106 54 44 113 19 9 85 26 60 50 126 32 101 91 39 73 14 4 38 114 104 45 79 27 13 79 106 97 99 1 111 94 42 32 101 7 83 73 14 48 38 114 55 89 79 76 95 38 113 10 44 113 103 9 85 26 16 50 126 116 57 91 39 29 98 4 122 70 104 45 35 111 17 86 76 103 56 126 77 37 37 103 30 123
118 58 82 19 6 36 63 41 24 14 90 31 65 55 89 72 106 96 2 78 19 9 43 33 60 50 84 74 101 91 125 115 63 4 38 28 62 45 79 69 103 86 120 110 16 92 33 23 57 47 74 64 98 88 115 105 11 1 77 18 52 42 76 59 93 83 117 65 6 124 30 20 47 37 71 61 88 78 112 102 50 119 25 15 49
32 66 56 90 73 107 97 3 79 20 10 44 34 61 51 85 75 23 92 126 116 22 5 39 29 63 46 80 70 104 52 121 111 17 7 34 24 58 48 75 65 99 89 37 106 12 2 93 99 39 101 61 16 55 56 81 115 56 46 122 28 97 87 121 69 59 0 34 110 100 41 75 65 13 82 94 127 42 111 112 51 42 86 33 10
9 57 124 117 7 55 40 32 15 91 81 22 56 4 122 28 97 87 35 69 10 0 76 110 51 41 117 23 13 82 116 64 54 123 29 105 95 36 13 124 114 62 3 37 27 61 44 78 68 102 85 119 109 15 91 32 22 56 46 73 63 97 87 35 104 10 0 76 17 51 41 75 58 43 26 16 92 33 67 57 5 74 108 98 4
115 21 11 45 121 62 52 86 34 103 93 127 117 16 6 40 30 106 47 81 71 19 88 122 112 18 94 35 25 59 7 76 66 100 48 117 107 13 3 79 20 54 44 120 61 95 85 119 102 8 126 32 108 49 39 73 21 90 80 114 104 52 121 27 17 93 34 68 58 6 75 109 99 5 81 22 12 46 122 63 53 87 35 104 94
0 118 66 7 41 31 107 48 82 72 106 89 123 113 19 95 36 26 107 26 102 43 98 69 99 109 5 69 27 44 42 103 50 39 69 21 7 74 2 109 48 27 83 69 91 49 94 12 99 16 83 95 75 119 70 43 28 119 55 26 114 123 4 101 108 53 65 51 88 124 63 124 63 90 80 114 104 45 121 27 17 86 34 68 43
26 9 43 33 67 50 84 74 108 91 125 115 21 11 38 28 62 52 79 69 103 93 41 110 16 6 40 23 57 47 81 64 98 88 122 70 11 1 35 25 52 42 76 66 93 83 117 107 13 124 30 20 54 37 71 61 95 43 112 102 8 126 25 15 49 39 66 56 90 80 28 97 3 121 27 10 44 34 68 51 85 75 109 99 126
116 22 12 39 29 63 53 80 70 104 94 66 27 110 38 113 28 92 55 48 107 66 40 16 27 45 35 69 17 86 76 110 58 48 117 23 99 89 30 64 54 2 71 105 95 43 77 18 8 84 118 59 49 83 31 21 90 124 72 62 3 37 113 103 44 78 68 16 50 119 109 57 91 32 22 56 4 122 3 13 26 2 70 117 3
122 97 120 33 37 83 102 15 82 116 57 47 123 29 98 88 36 70 60 1 77 111 101 42 76 24 14 83 117 65 55 89 30 20 96 2 71 61 9 43 112 102 50 84 74 15 49 125 118 117 93 58 28 28 5 120 35 97 121 16 114 40 61 34 116 126 79 60 79 57 82 23 57 47 123 64 98 88 122 70 11 1 35 111 52
42 76 24 93 83 117 107 55 124 30 20 6 24 14 48 38 114 55 89 79 27 96 2 120 26 9 43 33 67 15 70 84 22 57 11 122 112 60 1 35 25 101 7 76 66 14 48 117 107 13 89 30 20 54 2 120 61 95 85 33 102 8 126 74 108 49 39 115 21 90 80 114 62 3 121 27 103 93 34 68 16 6 75 109 99
47 116 22 12 88 122 63 53 87 35 104 94 0 76 66 7 41 117 107 48 82 72 20 89 123 113 61 95 101 120 103 51 120 110 16 92 33 23 57 47 123 64 98 88 36 105 11 1 77 18 52 42 76 24 93 83 117 65 6 124 30 106 96 37 71 61 9 78 112 102 50 119 25 15 49 125 66 56 90 38 107 97 3 79 20
10 44 34 110 51 85 75 23 92 126 116 64 98 39 29 63 11 80 70 104 52 121 111 17 7 83 24 58 48 124 65 99 89 37 106 12 2 36 112 53 43 66 56 4 117 41 48 9 90 81 2 47 99 56 41 55 31 103 69 4 4 127 17 0 76 17 7 41 31 58 48 82 72 20 89 123 113 61 2 36 26 60 43 77 67
101 49 118 108 14 90 31 21 55 45 121 62 96 86 34 103 9 127 110 73 126 13 17 105 37 71 61 95 36 112 102 8 77 25 15 49 39 108 56 90 80 21 97 3 126 89 99 58 85 48 18 63 10 35 104 10 0 76 110 51 41 75 23 92 82 116 64 5 123 29 19 95 36 70 60 8 77 111 101 49 118 24 14 48 124
65 55 89 37 106 96 2 78 68 9 43 33 109 50 84 74 22 91 125 115 30 55 124 30 20 96 37 71 61 95 78 112 102 8 84 25 15 49 125 66 56 90 80 107 97 3 121 69 10 44 34 110 51 85 75 109 57 126 116 22 98 39 29 63 53 80 70 104 94 42 111 17 7 83 24 58 48 82 65 99 89 123 71 12 2
36 112 53 43 77 67 15 84 118 108 56 125 31 21 55 38 72 62 96 44 113 103 9 85 26 16 50 40 67 57 91 81 29 98 4 122 70 11 45 35 69 52 86 76 47 94 63 94 42 99 85 80 75 111 53 66 15 50 117 58 92 40 30 99 5 123 71 105 46 36 112 18 87 77 25 59 0 118 81 64 12 81 71 105 95
122 112 18 8 84 25 59 49 125 66 100 90 124 107 13 3 37 113 54 44 78 26 95 85 119 109 8 126 32 22 98 39 73 63 97 80 114 104 10 121 27 17 51 127 68 58 92 82 109 99 5 123 100 118 108 14 90 31 21 55 3 72 62 96 86 34 103 9 127 75 16 50 40 74 57 91 81 115 63 4 122 28 104 45 35
69 59 86 76 110 100 48 117 23 13 89 30 64 54 88 36 105 95 1 77 18 8 42 118 59 49 83 73 21 90 124 114 62 3 37 27 61 44 78 68 102 50 119 109 15 91 32 22 56 46 122 63 48 31 107 48 38 72 20 89 79 113 103 51 120 26 16 92 33 67 57 91 74 108 98 4 80 21 11 45 121 62 52 86 76
103 93 127 117 65 6 40 30 106 47 81 71 105 53 122 112 18 94 35 25 59 49 76 66 100 90 38 107 13 3 79 20 54 44 78 61 95 85 119 67 8 126 32 108 49 39 73 63 11 80 114 104 52 121 27 17 93 34 68 58 92 40 109 99 5 81 22 12 46 36 20 52 116 42 27 95 30 94 77 60 94 84 118 101 7
125 31 21 48 38 72 62 89 79 113 103 51 120 26 16 50 33 67 57 91 74 108 98 4 122 21 11 45 35 62 52 86 76 103 93 127 117 23 6 40 30 64 47 81 71 105 53 122 112 18 8 35 25 59 49 76 66 100 90 124 107 13 3 37 20 54 44 78 61 95 85 119 109 8 126 94 74 126 16 54 61 125 108 98 46
80 21 11 45 121 62 52 86 34 24 93 127 75 65 6 40 30 106 47 81 71 19 53 122 112 60 94 35 25 59 7 76 66 100 48 38 107 13 3 79 20 54 44 120 26 95 85 33 67 8 126 32 108 49 39 73 21 11 80 114 62 52 121 27 17 93 34 68 58 6 40 109 99 5 81 22 12 44 121 82 99 12 76 101 42
76 66 14 83 117 107 13 89 30 20 54 2 71 61 95 43 112 102 8 126 74 15 49 39 115 56 90 80 114 97 3 121 27 103 44 34 68 16 85 75 109 99 47 116 22 12 88 29 63 53 1 70 104 94 0 76 120 102 20 58 66 94 98 38 117 123 21 49 116 57 91 39 29 98 4 122 70 11 45 35 111 17 86 76 24
58 127 117 23 99 89 30 64 12 2 71 105 95 43 112 18 8 84 118 59 49 125 31 100 90 124 72 13 3 37 113 103 44 78 26 16 85 119 109 57 126 105 19 51 37 55 45 79 69 96 86 120 110 58 127 33 23 99 40 74 64 98 81 115 105 11 87 28 18 52 0 69 59 93 83 110 100 6 124 72 13 47 37 113 54
88 78 112 60 1 119 25 101 42 32 66 56 83 73 107 97 45 114 20 10 86 27 61 51 85 68 102 92 126 74 15 5 39 115 56 46 80 70 97 87 121 111 59 0 96 69 13 22 77 127 85 37 83 91 30 98 116 106 12 88 29 19 53 1 119 60 94 42 32 101 7 125 73 14 48 38 114 20 89 79 27 61 2 120 26
102 92 33 67 15 5 74 108 98 46 115 21 11 87 121 62 52 0 34 103 93 127 75 16 6 40 116 106 47 81 29 19 88 122 112 60 1 94 77 67 15 84 118 108 14 125 31 21 55 3 72 62 96 44 113 103 9 127 26 16 50 40 116 57 91 81 29 98 4 122 28 11 45 35 69 17 86 76 110 100 127 117 23 13 89
30 64 54 2 71 105 95 1 112 18 8 42 118 59 49 83 31 100 90 124 114 13 3 37 27 103 44 78 68 16 85 119 109 15 126 32 22 56 4 73 63 97 87 114 104 10 0 76 17 51 41 90 54 41 80 25 116 17 126 114 110 80 127 115 17 34 25 123 47 83 95 48 51 75 8 0 96 87 8 119 67 57 91 32 22
98 4 73 63 11 45 114 104 52 86 76 17 51 127 117 58 92 40 30 99 5 81 71 105 46 36 112 18 87 77 25 59 0 118 66 100 90 31 65 13 43 111 75 105 44 78 69 52 42 76 59 93 83 117 100 6 124 30 106 47 37 71 61 88 78 112 102 1 119 25 15 91 32 66 56 90 73 107 97 3 79 20 10 44 120
61 51 85 75 60 43 33 67 15 84 74 108 56 125 115 21 97 38 28 62 52 0 69 103 93 41 110 16 6 40 23 57 47 81 29 98 88 122 70 11 1 35 25 101 42 76 66 14 83 117 107 55 124 30 20 54 2 71 61 95 43 112 102 8 84 25 15 49 39 115 56 90 80 28 97 3 121 27 10 44 34 68 16 85 75
109 57 126 116 22 12 88 29 80 113 110 63 120 97 104 109 54 8 104 40 10 94 31 56 121 42 81 38 113 76 93 48 110 75 44 116 32 74 11 90 87 36 7 9 36 105 123 113 19 95 36 26 60 8 126 67 101 91 39 108 14 4 80 21 55 45 121 27 96 86 120 68 9 127 33 109 50 40 74 22 12 81 115 105 53
122 28 18 94 0 69 59 93 41 110 100 6 82 23 13 47 123 113 54 88 78 26 95 1 119 67 8 42 32 108 14 30 96 79 27 96 86 120 68 58 127 33 23 99 40 74 64 12 81 115 105 53 87 28 18 52 0 69 59 93 41 110 100 6 82 72 13 47 37 113 54 88 78 26 95 1 119 25 101 42 32 66 14 83 73
107 55 45 114 20 10 86 27 61 51 127 68 102 92 40 74 15 5 39 115 56 46 80 28 97 87 121 111 59 0 34 24 100 41 21 91 9 34 103 9 127 75 16 50 40 74 57 37 4 52 61 54 0 32 69 101 75 58 6 75 65 99 89 37 106 12 2 78 19 53 43 119 60 94 84 118 66 7 125 31 107 48 38 72 20
10 79 113 103 51 120 26 16 92 33 67 57 91 39 108 98 4 80 21 11 45 121 62 52 86 76 24 93 66 80 121 11 92 80 63 11 80 70 104 94 121 111 17 7 34 24 58 48 124 65 99 89 123 106 12 2 36 19 53 43 77 25 94 84 118 108 7 125 31 21 48 38 72 62 10 79 113 103 9 120 26 16 50 126 67
57 91 81 108 98 4 122 21 11 45 35 111 52 86 76 110 93 127 117 23 6 40 30 64 12 81 71 105 95 122 112 18 8 13 84 57 55 33 15 12 79 94 27 127 92 70 97 56 16 5 108 126 74 52 90 8 110 110 68 126 12 44 120 10 52 108 92 15 16 107 24 88 27 96 2 78 68 9 43 33 109 15 4 115 105
53 122 28 18 52 35 69 59 93 41 110 100 6 82 23 13 47 37 64 54 88 78 26 95 1 119 25 8 42 32 66 14 83 73 107 55 124 114 20 10 37 27 61 51 127 68 102 92 40 109 15 5 39 22 56 46 80 28 97 87 121 111 10 0 34 24 51 41 75 65 13 82 116 106 12 123 29 19 53 1 70 60 94 42 111
101 7 125 24 14 48 38 114 55 42 69 4 62 81 38 119 45 55 71 45 113 88 89 96 55 95 16 7 98 85 94 121 17 35 61 28 22 1 115 81 43 25 32 120 49 58 41 24 58 48 82 65 99 89 123 113 12 2 36 26 53 43 77 67 94 84 118 108 14 125 31 21 55 38 72 62 96 44 113 103 9 127 26 16 50
40 67 57 91 81 29 98 4 122 28 11 45 35 69 52 86 76 110 100 127 117 23 13 40 30 64 54 81 71 105 95 1 112 18 8 42 25 59 49 69 103 82 89 11 22 27 56 79 104 45 79 69 103 51 120 110 16 92 33 23 57 47 74 64 98 88 36 105 11 1 77 18 52 42 76 24 93 83 117 65 6 124 30 106 47
37 71 61 9 78 112 102 50 119 25 15 49 32 66 56 90 38 107 97 3 79 20 10 44 34 61 51 85 75 23 92 126 116 64 5 39 29 63 11 80 70 104 52 121 111 17 93 34 24 58 48 124 65 99 89 37 106 12 2 36 19 53 43 77 25 94 84 118 66 37 22 89 123 113 12 2 36 26 95 43 77 67 8 84 118
108 14 125 31 21 55 43 5 94 58 85 125 12 11 110 11 7 97 62 18 66 27 10 121 27 17 51 127 68 58 92 40 109 99 5 123 71 12 46 36 112 53 87 77 111 94 0 118 24 100 41 31 65 13 82 72 106 96 123 113 19 9 85 26 60 50 126 67 101 91 125 73 14 4 38 114 55 45 79 27 96 86 120 110 58
127 85 68 16 85 75 109 99 126 116 22 12 88 29 63 53 1 70 104 94 0 111 17 7 41 117 58 48 82 30 99 89 123 113 61 2 36 26 102 43 77 67 15 84 118 108 14 90 31 21 55 3 72 62 96 86 113 103 9 127 75 16 50 40 116 57 91 81 115 63 4 122 28 104 45 35 69 17 86 76 110 100 48 117 23
13 89 30 64 54 88 71 105 95 77 39 66 94 52 2 22 14 115 75 59 42 118 108 14 83 31 21 55 124 72 62 96 86 27 103 9 127 68 16 50 40 109 57 91 81 115 56 4 122 28 97 45 35 69 101 84 74 108 98 125 115 21 11 38 28 62 52 79 69 52 57 38 62 38 46 3 14 116 57 49 29 73 126 47 120
99 103 0 34 103 93 41 75 65 6 82 116 106 47 81 29 19 88 122 70 60 94 35 25 101 7 76 66 14 48 38 107 55 89 79 20 54 2 120 61 70 108 17 98 50 48 64 125 65 95 116 14 114 22 89 123 113 12 2 36 26 95 43 77 63 95 0 36 105 2 71 105 95 1 112 18 8 42 118 59 49 83 31 100 90
124 114 13 3 37 27 103 44 34 104 98 116 106 12 88 29 19 14 60 11 30 123 85 78 95 94 102 85 33 102 92 126 116 15 5 39 29 56 46 62 116 88 30 6 53 126 16 6 82 116 57 47 81 29 19 88 122 70 60 1 35 111 101 42 76 66 14 48 117 107 55 89 30 20 125 59 113 16 112 52 62 43 87 9 92
54 53 104 1 35 104 94 42 76 17 7 83 117 58 48 82 30 20 89 123 71 61 2 36 112 102 8 77 67 97 115 65 68 19 23 60 81 121 81 106 47 81 71 19 88 122 112 101 26 9 85 75 109 50 126 116 22 91 81 29 63 4 122 70 104 94 35 111 17 42 66 106 89 37 27 96 2 120 68 9 43 33 109 50 84
74 22 56 125 115 21 97 38 28 62 10 79 69 103 93 41 110 16 6 82 23 57 47 123 29 98 88 122 70 11 1 87 13 67 36 47 126 23 92 126 116 64 5 39 29 63 46 80 70 104 52 121 111 17 7 34 24 58 48 75 65 99 89 37 106 12 2 36 19 53 43 77 25 94 84 118 66 7 125 31 21 48 38 72 62
10 79 113 103 51 120 26 16 50 33 11 103 122 127 59 124 37 20 38 28 62 10 0 69 103 93 41 110 16 6 82 23 57 47 123 29 98 88 122 70 11 1 35 111 52 42 76 24 14 83 117 107 55 124 30 20 96 37 71 61 95 43 112 102 8 84 25 15 49 125 115 56 90 80 28 97 3 121 69 10 44 34 110 16 85
75 40 28 95 17 78 109 127 117 23 13 89 30 64 54 2 71 105 95 1 77 18 8 42 118 59 49 83 31 100 90 124 114 62 3 37 27 103 44 78 68 16 85 119 109 15 91 32 22 56 4 73 63 97 45 114 104 10 0 76 17 51 41 117 58 92 82 116 64 5 123 29 105 46 36 70 18 87 77 111 101 49 118 24 14
90 31 65 55 3 72 106 96 2 78 19 9 43 119 60 50 84 74 101 91 125 115 63 4 38 28 41 65 47 38 18 117 55 120 111 51 80 63 53 87 70 104 94 0 76 17 7 41 31 58 48 82 72 99 89 123 113 19 2 36 26 60 43 77 67 101 49 118 108 14 4 31 21 55 45 72 62 96 86 34 103 9 127 33 16
50 40 74 57 91 81 115 63 4 122 28 18 45 35 69 59 86 76 110 100 6 117 23 13 47 30 64 54 88 36 105 95 123 36 124 38 63 97 38 28 104 10 0 69 103 51 41 110 16 92 82 23 57 5 123 29 98 88 36 70 11 1 77 111 101 42 118 24 14 83 117 65 55 124 30 106 96 2 71 61 9 43 112 102 50
84 25 15 91 125 115 56 90 38 28 97 3 79 96 83 34 30 5 72 69 73 2 104 69 71 108 4 52 90 11 36 70 11 1 77 111 52 42 76 24 14 83 117 65 55 124 30 106 96 37 71 61 9 43 112 102 84 76 28 127 110 58 48 117 23 13 89 30 64 54 2 71 105 95 43 77 18 8 42 118 59 49 83 31 100
90 124 114 62 3 37 27 103 44 78 68 16 85 119 109 15 91 32 22 56 4 73 63 97 45 35 104 10 0 76 17 51 41 117 58 92 82 30 64 5 123 29 105 46 36 70 18 87 77 111 101 49 118 24 14 90 31 65 55 3 37 106 96 44 42 34 17 7 83 24 58 48 124 30 99 89 123 71 12 2 36 112 53 43 77
25 15 84 88 30 31 89 114 124 6 99 117 52 110 41 66 74 35 35 101 126 32 22 56 125 73 63 97 38 114 104 10 79 69 17 51 41 110 58 92 104 89 18 29 82 67 65 6 2 10 28 18 52 0 69 59 93 41 53 119 114 48 79 4 115 79 7 112 96 125 22 56 125 115 63 97 38 28 62 10 79 69 103 51 41
110 16 6 82 23 57 47 123 64 98 88 36 70 11 1 35 111 52 42 76 24 14 83 117 65 55 124 30 20 96 37 71 61 9 43 112 102 50 84 25 15 49 125 66 56 90 38 28 97 3 121 69 10 44 34 110 51 1 8 66 30 19 83 22 56 125 73 63 97 87 114 109 81 105 64 47 123 113 54 88 36 26 60 77 101
3 26 74 2 4 88 2 113 103 9 85 26 16 50 126 67 57 91 39 29 98 4 122 70 11 45 35 111 52 86 76 24 58 127 117 23 99 40 30 64 12 81 71 105 95 43 112 18 8 84 25 59 49 125 66 100 90 124 72 13 3 91 12 61 14 40 98 103 81 9 87 75 93 83 31 65 6 124 30 106 96 37 71 19 9
78 112 60 50 119 25 15 91 125 66 56 4 38 107 97 3 79 69 10 44 120 110 51 85 33 23 92 126 116 64 98 39 29 105 11 80 70 18 52 121 111 17 93 83 24 127 110 100 127 117 23 13 40 30 64 54 2 71 105 95 1 112 18 8 42 118 59 49 83 31 100 90 124 114 13 3 37 27 103 44 78 68 102 85 119
109 15 126 32 22 56 4 73 63 97 87 114 104 10 0 76 17 51 41 117 58 92 82 116 99 5 123 29 105 46 36 70 18 87 77 111 101 0 118 24 14 90 31 65 55 89 72 106 96 2 113 19 9 55 116 89 55 47 36 0 111 101 49 83 24 14 90 124 65 55 89 37 106 96 2 78 68 9 43 33 109 50 84 74 22
91 125 115 63 97 38 28 62 10 79 69 103 51 41 110 16 92 82 23 57 47 123 64 98 88 36 70 11 1 77 111 52 42 76 24 93 83 117 65 55 124 97 69 78 48 27 113 31 11 22 98 81 29 98 88 122 112 11 1 35 25 101 42 76 66 14 83 117 107 13 124 30 20 54 2 71 61 95 43 112 102 8 126 25 15
49 39 115 56 90 80 114 97 3 121 27 103 44 34 68 16 85 75 109 99 126 116 22 12 88 29 122 83 30 16 82 41 69 52 114 115 98 46 115 105 11 87 28 18 52 42 69 59 93 83 31 100 6 124 72 13 47 37 71 19 88 78 112 60 1 119 25 101 42 32 66 56 4 73 107 97 45 114 20 10 86 27 61 51 85
33 102 92 126 74 15 5 39 29 56 46 80 70 18 87 121 111 59 0 34 24 58 6 75 65 99 47 116 106 12 88 29 19 53 43 119 60 94 84 32 101 7 125 31 14 48 38 72 20 89 79 113 61 2 120 26 16 92 33 67 57 5 74 98 43 88 64 54 88 78 26 95 1 119 25 8 42 32 66 49 83 73 107 97 124
114 20 10 37 27 61 51 78 68 102 92 126 109 15 5 39 22 56 46 80 28 97 87 121 111 10 0 34 24 51 41 75 65 13 82 116 106 12 123 29 19 53 36 70 60 94 84 111 101 7 125 24 14 48 38 114 55 89 79 113 96 2 120 26 9 43 33 67 15 84 74 108 98 125 115 21 11 38 28 77 77 104 101 114 97
45 114 104 10 86 27 17 51 41 117 58 92 82 30 99 5 123 71 105 46 36 70 18 87 77 111 59 0 118 24 100 90 31 65 55 3 72 106 96 44 113 19 9 43 119 60 50 84 32 101 91 125 73 63 4 38 28 104 45 66 115 76 63 53 124 21 55 124 114 62 96 37 27 103 9 78 68 102 50 40 109 15 91 81 22
56 4 122 63 97 87 35 69 10 0 19 61 87 125 3 110 36 19 56 117 88 111 94 84 32 101 7 125 31 107 48 38 72 20 89 79 113 103 2 120 26 16 92 33 67 57 5 74 108 98 4 80 21 11 45 121 62 52 86 34 103 93 127 117 65 6 40 30 106 47 81 71 105 88 122 112 18 94 35 25 59 7 76 66 100
90 117 107 13 3 79 20 54 44 120 61 95 85 119 67 8 126 32 108 49 39 73 21 110 55 74 67 78 42 47 110 19 91 63 89 123 15 54 30 11 82 50 27 56 106 104 87 77 25 59 0 118 24 100 41 31 105 88 71 105 95 1 77 18 8 42 118 59 49 83 73 100 90 124 114 62 3 37 27 103 44 78 68 102 85
119 109 15 91 32 22 56 4 73 63 83 42 23 58 70 78 110 33 7 75 35 39 86 99 76 86 97 7 41 64 93 2 87 5 74 28 57 38 2 77 69 87 95 3 38 60 124 110 101 111 120 105 3 114 104 52 121 27 17 93 127 68 58 6 40 109 99 5 81 22 12 46 122 112 53 87 35 25 94 0 118 66 7 41 31
107 13 82 72 106 54 123 113 19 95 85 26 60 8 126 67 101 91 39 108 14 4 80 114 122 46 60 39 100 8 86 95 46 120 103 93 41 110 16 6 82 23 57 47 123 64 98 88 122 70 11 1 35 111 52 42 76 24 14 83 117 107 55 124 30 20 96 37 71 61 95 43 112 102 8 84 25 15 49 125 66 56 90 80 28
97 0 110 126 8 105 20 120 8 81 84 87 123 51 76 110 100 41 75 23 13 47 116 64 54 88 29 19 95 1 70 60 8 42 32 101 49 83 77 17 121 95 117 7 125 31 107 97 38 72 20 10 79 113 103 51 85 26 16 92 126 67 57 91 39 108 98 4 80 70 11 45 121 111 52 86 76 24 93 127 117 65 99 40 30
106 12 81 71 105 53 43 112 18 94 84 25 59 49 125 66 100 90 38 72 13 3 79 113 54 44 78 26 95 85 119 67 57 126 99 35 125 107 115 40 91 113 42 89 86 125 110 93 83 31 100 6 124 72 106 47 37 113 19 88 78 112 60 1 119 25 101 91 32 66 14 4 73 107 97 45 114 20 10 86 120 61 51 85 33
102 92 126 74 64 5 39 115 105 46 80 70 18 87 121 111 59 93 34 24 88 91 79 44 121 70 19 0 52 32 28 62 77 32 77 95 85 119 109 8 126 32 22 98 39 73 63 11 80 114 104 10 86 27 17 51 127 68 58 92 82 109 99 5 123 71 12 46 36 112 53 87 77 111 94 0 118 47 33 51 127 117 23 92 82
30 64 54 123 71 105 95 36 70 18 8 77 111 59 49 83 24 100 90 124 65 55 3 37 106 96 58 48 61 57 66 49 125 66 56 90 38 107 97 3 79 69 10 44 34 110 51 85 75 23 57 126 116 79 23 97 5 62 127 19 0 12 48 96 47 52 65 61 56 13 50 75 16 50 40 116 22 91 81 115 63 4 122 28 104
94 35 69 17 7 76 110 100 48 117 23 13 89 123 64 54 2 36 105 95 1 77 18 8 42 118 108 49 83 31 21 90 124 114 62 3 37 27 103 9 78 68 102 50 119 109 15 91 81 22 97 107 46 115 21 97 87 28 62 52 0 34 103 93 41 75 16 6 40 116 57 47 81 29 19 88 122 70 60 1 35 25 101 42 76
66 14 48 117 107 49 32 15 49 39 73 21 90 80 114 62 3 121 27 17 44 34 68 58 6 75 109 99 47 116 22 12 46 29 63 53 87 35 104 94 0 118 17 7 41 31 107 48 82 72 20 89 123 113 19 2 36 26 60 8 77 67 101 49 118 108 14 4 31 21 55 45 121 62 96 86 120 103 9 127 33 16 50 40 74
22 91 81 115 105 4 122 28 18 94 35 69 59 7 76 110 100 6 117 90 95 38 42 76 6 85 85 57 22 2 69 10 44 120 110 16 85 33 23 57 126 74 64 98 88 29 74 78 32 12 117 10 68 89 111 7 100 117 1 79 76 67 113 123 63 2 71 105 95 43 77 18 8 84 118 59 49 125 31 100 90 124 72 62 3
37 113 103 44 78 26 16 50 119 109 57 91 32 22 98 4 73 63 62 52 13 108 85 116 83 101 91 125 115 14 4 38 28 104 45 79 69 17 86 120 110 16 92 33 23 57 5 74 64 98 46 115 105 11 1 77 18 52 42 118 59 93 83 31 100 6 124 30 106 47 37 71 19 88 78 112 102 1 119 25 15 91 32 10 40
60 102 3 40 1 106 3 105 46 14 45 70 104 94 35 69 17 7 41 110 58 48 82 110 93 83 117 100 6 124 30 106 47 37 71 61 88 78 112 102 50 119 25 15 49 32 66 56 90 73 107 97 89 29 71 5 47 59 87 112 18 8 77 111 59 49 83 24 100 90 124 65 13 79 33 5 107 14 61 88 123 64 119 4 56
52 64 21 46 115 21 11 87 28 62 52 0 69 103 93 127 75 16 6 40 116 57 47 81 29 98 88 122 112 60 1 35 25 101 42 76 66 100 48 117 107 13 89 51 101 75 33 17 88 90 96 92 109 6 106 62 45 23 62 114 74 27 119 48 43 111 72 55 3 72 62 96 44 113 103 9 85 75 16 50 40 116 57 91 81
29 63 4 122 28 104 45 35 69 17 86 76 110 58 48 117 23 13 89 30 64 54 2 71 105 95 43 77 18 8 42 118 59 49 83 31 21 90 124 72 62 3 37 27 103 44 78 68 16 50 119 109 15 91 32 22 56 4 73 63 97 45 35 104 10 0 76 17 51 41 117 58 92 82 18 91 14 118 14 116 12 98 88 56 42
60 18 35 99 68 65 122 13 25 13 61 76 15 84 118 66 56 125 31 107 97 38 72 62 10 44 113 103 51 85 26 16 92 126 67 57 91 39 29 98 4 80 70 11 45 35 111 17 86 76 24 58 127 117 65 99 40 30 64 12 2 71 105 53 43 112 18 94 84 25 59 49 125 31 100 90 38 72 13 3 79 113 103 44 78
26 115 33 90 115 21 90 80 28 62 52 121 27 103 93 34 68 16 6 75 109 99 47 81 22 12 88 122 63 53 1 35 104 94 0 76 66 7 41 117 107 48 75 101 2 64 52 103 86 34 103 93 127 75 16 6 40 30 106 47 81 71 19 88 122 112 60 1 35 25 59 7 76 66 100 48 117 107 13 89 79 20 54 44 120
61 95 85 33 102 8 126 32 108 49 39 73 21 90 80 114 62 3 121 27 17 93 34 68 58 6 75 106 56 117 55 10 67 21 124 68 51 127 117 58 92 40 87 4 47 19 60 84 90 33 8 2 75 58 48 124 30 99 89 123 71 12 2 36 112 53 43 77 67 15 84 118 108 56 125 31 21 97 3 72 62 96 44 50 14
98 33 102 47 64 22 65 55 28 31 98 39 73 21 11 80 114 62 52 86 27 17 93 127 68 58 6 40 109 99 47 81 71 12 46 122 112 53 87 35 25 59 0 118 66 100 41 31 107 13 82 72 26 9 85 26 16 50 40 67 57 91 81 108 98 4 122 70 11 45 35 69 52 86 76 110 58 127 117 23 99 40 30 64 54
81 71 105 95 43 112 18 8 42 25 59 49 83 66 100 90 124 72 13 3 37 27 54 44 78 68 95 85 119 109 57 126 32 22 56 39 73 63 97 45 114 104 10 86 27 17 51 41 68 58 92 82 30 99 5 123 29 12 46 36 70 53 61 44 34 110 51 85 75 8 26 16 50 40 116 57 91 81 34 42 105 46 6 77 32
107 9 24 60 29 46 30 67 92 126 116 57 91 39 29 63 4 80 104 70 63 118 13 93 91 118 28 121 49 113 3 18 33 64 49 87 36 73 117 20 54 19 86 65 58 121 26 14 127 116 50 10 71 86 53 19 49 124 21 90 124 114 20 96 37 27 61 9 78 68 102 50 119 109 15 5 81 22 56 46 122 63 97 87 35
 