P2
15 93
255
6 40 116 57 47 81 29 98 88 122 112 60 1 35 25
101 42 76 66 14 83 117 107 13 89 30 20 54 2 71
61 95 85 112 102 8 126 74 15 49 39 115 56 90 80
114 62 3 121 27 103 44 34 68 16 85 75 109 99 47
116 22 12 88 29 63 53 1 70 104 94 0 76 17 7
100 24 34 17 7 41 117 58 48 82 30 99 89 123 71
12 2 36 26 102 43 77 67 15 84 118 108 14 125 31
21 55 3 72 62 96 44 113 103 9 127 24 43 123 107
79 101 43 107 31 46 29 105 95 1 70 18 8 42 111
101 49 83 24 14 90 124 114 55 3 37 27 96 2 78
68 9 43 119 93 84 42 88 47 55 33 30 87 75 33
122 88 79 99 42 94 77 25 94 84 118 108 56 125 31
21 97 38 72 62 96 79 113 103 9 85 26 16 50 126
67 57 91 81 108 98 4 122 70 11 45 35 111 52 86
76 110 58 127 117 23 99 40 30 64 54 81 71 105 95
43 112 18 8 84 25 59 49 83 66 100 90 124 72 13
3 37 113 54 44 78 68 95 85 119 109 57 126 32 22
98 39 73 63 97 45 114 104 10 86 27 17 51 41 68
58 92 82 30 99 5 123 71 12 46 36 70 53 87 77
111 59 0 118 105 57 109 46 87 5 40 81 73 100 106
90 55 24 49 113 101 24 5 54 10 56 123 29 98 46
36 70 11 87 77 111 101 42 118 24 14 83 31 65 55
124 30 106 96 2 71 19 9 43 79 56 11 70 39 76
115 114 124 59 104 87 16 24 14 105 119 15 75 109 99
5 74 22 12 46 115 63 53 87 77 18 94 0 118 59
7 41 31 65 48 82 3 114 97 3 121 27 10 44 34
68 16 85 75 109 99 126 116 22 12 39 29 63 53 87
70 104 94 0 111 17 7 41 24 58 48 82 72 99 89
123 113 12 2 36 26 102 43 77 67 101 84 118 108 14
125 31 21 55 45 72 62 96 86 113 103 9 127 26 16
50 40 99 64 4 83 112 102 53 4 51 123 68 26 18
39 65 48 38 114 55 89 79 113 61 2 120 26 102 43
33 67 57 84 74 108 98 46 115 21 11 87 28 62 52
86 69 103 93 127 75 16 6 40 116 57 47 81 71 19
88 122 112 60 1 35 25 101 42 76 66 100 48 117 107
13 89 30 20 54 44 71 61 95 85 33 102 8 126 74
15 49 39 103 18 113 86 25 66 97 76 12 67 57 57
96 62 95 54 68 109 10 29 26 0 93 54 1 70 7
74 15 49 39 115 56 90 80 28 97 3 121 69 103 44
34 68 16 85 75 109 57 127 17 7 41 117 58 48 82
72 99 89 123 113 61 2 36 26 102 43 77 67 101 84
118 108 14 90 31 21 55 3 72 62 96 86 34 103 9
127 75 16 50 40 74 57 91 81 115 63 4 122 28 104
45 35 69 59 86 76 110 100 48 117 23 13 89 30 64
54 88 71 105 95 1 77 18 8 42 32 49 32 22 56
4 73 63 97 45 114 104 10 86 27 17 51 41 117 58
92 82 30 99 5 123 29 12 46 36 70 18 87 77 111
59 0 118 24 14 90 31 65 55 3 72 106 96 44 113
19 9 43 119 60 50 84 32 101 91 125 73 14 4 38
28 104 45 79 69 17 86 120 110 16 127 33 23 67 62
66 74 57 47 74 64 98 88 36 105 11 1 35 18 52
42 76 59 93 83 117 65 6 124 30 20 47 37 71 61
88 78 112 102 50 119 25 15 49 32 66 56 90 73 107
97 3 79 20 10 44 34 61 51 85 75 23 92 126 116
22 5 39 29 63 46 80 70 104 52 121 111 17 7 34
24 58 48 75 65 99 89 37 106 12 2 36 19 53 43
77 25 94 84 118 108 7 125 31 21 48 38 72 62 10
79 2 113 61 2 120 26 102 43 33 67 57 5 74 108
98 46 115 21 11 45 28 62 52 86 34 103 93 127 75
16 6 68 8 21 101 23 76 67 16 121 4 115 98 4
122 28 104 45 35 69 17 86 76 110 100 127 117 23 13
89 30 64 54 2 71 105 95 1 77 18 8 42 118 59
49 78 65 78 20 94 42 109 50 84 32 22 91 125 73
63 4 38 28 104 10 79 69 17 51 120 110 16 92 33
23 57 5 123 64 98 46 36 105 11 1 77 111 52 42
118 24 93 83 31 65 6 124 30 106 96 37 71 19 9
78 112 60 50 119 25 15 91 125 66 56 4 38 107 97
3 79 69 10 7 123 86 77 60 50 126 67 101 91 125
73 14 4 38 114 95 34 52 112 55 38 28 104 10 79
69 103 51 120 110 16 92 33 23 57 5 123 64 98 88
36 105 11 1 77 111 52 42 118 24 93 83 117 65 6
124 30 106 96 37 71 19 9 78 112 102 50 119 25 15
91 125 66 56 90 38 107 97 3 79 69 10 44 120 110
51 85 75 23 92 126 116 64 98 39 29 105 11 80 70
104 52 121 111 17 93 83 24 58 48 124 65 99 89 115
2 27 10 86 76 17 51 41 117 58 92 82 30 64 5
123 29 105 46 36 70 18 87 77 111 59 49 118 24 14
90 31 65 55 3 72 106 96 44 78 19 9 43 119 60
50 84 32 22 91 125 115 63 4 38 28 104 45 79 69
17 51 120 110 16 92 115 68 34 35 98 81 29 19 53
122 112 60 94 35 25 101 7 76 66 100 48 38 107 13
89 79 20 54 2 120 26 95 85 33 67 56 44 47 66
69 105 126 35 74 60 30 120 59 0 34 110 100 41 75
23 13 47 116 106 54 88 29 19 81 43 51 45 28 82
89 18 11 70 84 89 72 62 96 44 17 13 44 27 10
44 34 68 51 85 75 109 57 126 116 22 12 39 29 63
53 80 70 104 94 42 111 17 7 41 24 58 48 82 30
99 89 16 41 110 16 6 82 23 57 47 81 29 98 88
122 70 11 1 35 111 52 42 76 66 14 83 117 107 55
124 30 20 54 37 71 61 95 43 112 102 8 84 25 15
49 39 115 56 90 80 28 97 3 121 69 10 44 34 68
16 85 75 109 57 126 116 116 28 46 36 112 18 8 77
111 59 49 118 24 100 90 124 65 13 3 37 106 96 44
 