P2
64 25
255
123 113 19 95 36 26 60 8 77 67 101 49 39 108 14 4 80 21 55 45 109 68 5 112 110 7 76 110 100 48 117 23 13 47 123 64 54 88 36 105 95 1 119 18 8 42 32 108 49 52 70 6 50 60 52 50 11 68 122 105 95 122 112 18
8 35 25 59 49 125 66 100 90 124 107 13 3 37 20 54 44 78 26 95 85 119 109 8 126 32 22 49 39 73 63 97 80 114 104 10 121 27 17 51 127 68 58 92 82 109 99 5 123 22 12 46 36 112 53 87 77 111 94 0 118 24 7 41
31 65 55 82 72 106 96 123 113 19 9 85 26 60 50 84 67 101 91 125 108 14 4 38 114 55 45 79 69 96 86 120 110 9 127 33 23 99 40 74 64 98 81 11 122 112 11 1 35 25 101 42 76 66 14 83 117 107 13 89 30 20 54 2
71 61 95 43 112 102 8 126 74 15 49 39 115 56 1 56 42 124 39 31 101 87 86 8 27 127 53 91 97 42 54 33 50 126 65 6 40 116 106 47 81 71 19 53 122 112 60 94 35 25 101 7 76 66 56 47 29 109 122 51 118 59 93 41
31 100 6 82 72 106 47 123 113 19 88 78 26 60 50 119 67 101 91 32 108 14 4 73 107 55 45 79 20 96 86 120 61 9 45 24 52 95 114 61 86 27 61 51 127 68 102 92 126 109 15 5 39 115 56 46 80 28 97 87 121 111 59 0
34 24 100 41 75 65 99 82 116 106 12 88 29 19 53 1 70 60 94 84 111 101 7 125 73 14 48 38 114 55 89 79 113 61 2 120 26 102 43 33 67 15 84 74 108 98 46 115 21 11 87 28 62 52 86 69 103 93 127 75 16 6 40 116
57 47 81 71 98 88 122 112 60 1 35 25 101 42 90 100 94 114 4 122 28 18 49 41 90 121 7 65 75 20 79 69 6 114 93 115 87 106 3 72 106 96 2 78 19 9 2 112 112 54 16 41 75 16 6 40 116 57 47 81 29 98 88 122
70 60 1 35 25 101 42 76 66 14 83 117 107 55 89 30 20 54 2 71 61 35 96 107 42 42 98 67 42 20 84 80 27 120 36 36 49 49 95 52 84 102 92 126 116 15 5 39 29 105 46 80 70 18 87 121 111 17 0 34 24 58 6 75
65 99 89 35 16 12 88 112 56 95 108 89 105 85 44 4 62 71 96 2 120 61 9 43 33 102 8 84 74 15 49 125 115 21 90 38 28 62 104 82 4 115 98 4 122 28 104 45 35 69 17 86 76 110 100 48 117 23 13 89 30 64 54 2
71 105 95 1 77 18 8 42 118 59 49 83 31 100 90 124 114 62 3 37 27 103 44 78 68 102 50 119 109 15 91 32 22 56 4 73 63 97 87 35 104 10 0 76 17 51 41 117 58 96 87 70 18 87 77 111 59 0 118 24 100 41 31 65
55 3 72 106 96 44 113 19 9 85 119 60 50 84 32 101 91 125 73 14 4 38 28 104 45 79 69 17 86 120 110 58 127 33 23 57 5 74 64 98 46 115 105 11 87 77 18 52 42 118 59 93 83 31 100 6 124 113 92 47 90 6 114 46
26 72 1 115 37 79 20 95 111 107 28 35 107 97 65 38 111 54 91 29 96 37 71 61 9 78 112 102 50 84 25 15 49 125 66 56 90 38 107 97 3 79 69 10 44 34 110 51 85 75 23 92 126 116 64 98 39 29 63 11 80 70 104 52
121 111 17 7 59 60 65 70 48 5 105 38 24 91 32 66 56 4 73 107 97 45 114 20 10 44 120 61 51 85 33 102 92 126 74 15 5 39 29 105 46 80 70 18 87 121 111 59 93 34 24 58 6 75 65 99 47 116 106 12 2 78 19 53
43 119 60 94 84 32 101 7 125 31 107 48 38 72 20 89 79 113 61 2 120 26 16 77 5 27 97 0 43 26 102 92 126 67 57 61 54 42 25 15 91 32 66 56 90 38 107 97 3 79 20 10 44 120 111 94 84 118 66 7 125 31 107 48
38 72 62 10 79 113 103 51 120 26 16 92 33 67 57 91 39 108 98 4 80 21 11 45 35 62 52 86 76 24 93 127 117 65 6 40 30 64 47 81 71 105 53 122 112 18 94 35 25 59 49 84 102 92 126 74 15 5 39 115 56 46 80 70
18 87 121 111 59 0 34 24 58 41 75 65 99 47 116 106 12 88 29 19 53 43 119 60 94 84 32 101 7 125 73 14 48 38 72 20 89 79 113 61 2 120 26 16 43 33 67 57 97 47 70 99 97 92 12 52 61 57 42 40 23 99 40 30
64 12 81 71 105 95 43 112 18 8 84 25 59 49 125 66 100 90 124 72 13 3 37 113 54 44 78 68 95 85 119 109 57 126 32 22 98 39 73 63 97 45 114 104 10 86 27 17 51 127 68 58 92 82 30 99 5 123 71 12 46 36 112 53
87 77 111 59 0 118 24 100 41 31 65 55 82 72 106 96 44 113 19 9 85 26 60 50 84 32 101 91 125 73 14 4 38 114 44 33 98 98 102 90 99 49 9 47 30 20 96 37 71 61 9 43 112 102 22 97 120 103 51 76 110 51 41 117
23 92 82 116 64 5 123 29 105 95 36 70 18 8 77 111 101 49 118 24 14 8 82 55 107 54 126 92 77 10 19 100 83 31 21 55 124 72 62 96 37 27 103 9 127 68 16 50 59 116 72 45 112 53 126 118 120 108 126 116 64 98 39 29
63 11 80 70 104 52 42 111 17 93 83 24 58 48 124 65 99 89 37 71 12 2 78 112 53 43 77 25 15 84 118 66 56 125 31 107 97 38 72 62 10 44 113 103 51 85 26 16 50 126 67 57 91 39 29 98 4 80 70 11 45 35 111 17
86 76 24 58 127 117 65 99 40 30 47 59 126 117 66 86 116 0 21 3 113 3 123 49 103 75 73 106 56 29 105 30 18 123 13 3 37 27 103 44 78 68 16 85 119 109 57 91 32 22 56 4 73 63 97 45 114 104 10 86 76 17 51 41
117 58 92 82 30 99 5 123 29 105 46 36 70 18 87 77 111 59 49 118 24 14 90 31 65 55 3 72 106 96 44 78 19 9 43 119 60 50 84 32 101 91 125 115 63 4 38 28 104 45 79 69 17 86 120 110 16 92 33 23 57 5 74 64
98 46 27 61 29 54 88 29 19 53 1 70 60 94 42 32 101 7 125 73 14 48 38 114 55 89 79 27 61 90 42 11 16 40 70 85 19 76 23 49 45 66 115 37 94 29 86 69 59 93 41 110 100 98 87 48 61 43 31 43 11 46 124 121
114 0 3 21 65 48 124 114 55 89 37 27 61 2 78 68 102 43 33 109 15 5 74 22 56 46 115 21 97 87 28 62 10 0 34 103 51 41 75 16 6 61 105 64 2 102 86 90 122 44 34 40 89 127 90 125 116 32 42 0 17 86 1 74
52 123 71 103 57 52 93 125 22 56 125 115 21 97 38 28 62 10 0 69 103 51 41 110 121 42 67 8 42 32 108 14 83 73 107 55 124 114 20 96 86 27 61 51 127 68 54 61 42 50 71 91 72 97 38 72 62 10 79 113 103 9 120 26
 