P2
55 53
255
85 126 65 6 82 116 106 47 81 29 19 88 122 70 60 94 35 111 101 7 76 66 14 48 38 107 55 89 79 20 54 2 120 61 31 25 126 30 43 4 70 29 47 37 71 19 88 78 112 102 50 119 25 15 91
32 66 56 4 73 107 97 3 79 20 10 44 120 61 51 85 33 23 92 126 116 64 5 39 29 105 46 7 90 89 94 46 117 80 105 46 80 70 18 87 121 111 6 31 100 6 124 72 13 47 37 71 19 88 78
112 60 1 119 25 15 42 32 66 56 4 73 107 97 45 114 20 10 44 27 61 51 85 33 102 92 126 74 15 5 39 29 56 46 80 70 18 87 121 111 17 0 34 24 15 77 6 57 75 64 60 16 97 80 63
97 87 121 69 10 0 34 110 51 41 75 65 92 82 116 106 54 123 29 19 95 36 70 60 94 42 111 101 7 83 24 14 48 124 65 55 89 79 27 96 2 120 68 9 43 33 67 50 84 74 108 56 125 115 21
97 38 28 62 52 79 69 103 93 41 110 16 6 82 23 57 47 81 29 98 88 122 70 11 1 35 25 52 42 76 66 14 83 117 107 55 124 30 20 54 37 71 61 95 43 112 102 8 84 25 15 49 39 66 56
90 80 28 97 16 61 75 77 122 105 95 43 112 18 8 84 25 77 8 85 103 93 127 75 65 6 40 116 106 47 81 71 19 88 122 112 65 90 31 65 55 89 72 106 96 2 78 19 9 43 119 60 50 84 74
101 91 125 115 63 4 38 28 104 45 79 69 103 86 120 110 16 92 33 23 57 47 74 64 98 88 125 108 98 4 80 21 11 45 121 62 52 86 76 24 93 127 117 65 6 40 30 106 47 81 71 105 53 122 112
18 94 35 25 59 49 76 66 100 90 38 107 13 3 79 20 54 44 78 26 95 85 119 67 8 126 32 108 49 39 73 63 11 80 114 104 52 121 27 17 51 34 68 58 86 61 65 22 49 57 89 17 6 87 81
109 64 89 123 64 54 88 36 105 95 1 77 67 8 42 118 108 49 83 73 21 90 124 114 62 96 37 27 103 9 78 68 102 50 119 109 15 91 58 76 66 100 90 117 107 13 3 79 20 54 44 120 61 95 85
119 102 8 126 32 108 49 39 73 21 90 80 114 104 3 121 27 17 93 34 68 58 6 75 109 99 5 116 22 12 46 122 63 53 87 77 104 94 0 118 66 7 41 31 107 48 82 72 106 89 123 113 19 95 36
26 60 8 77 67 101 91 118 108 14 4 80 21 55 45 79 62 86 94 22 38 66 97 49 118 86 89 12 17 117 119 58 92 82 23 99 5 123 64 12 46 36 105 53 87 77 111 52 0 118 24 78 29 25 122
126 26 93 58 125 66 100 90 38 107 13 3 79 113 54 44 78 26 95 85 119 67 8 126 32 108 98 39 73 63 11 80 114 104 52 121 27 17 93 127 68 58 92 40 109 99 5 81 71 12 46 36 112 53 87
77 25 94 0 118 66 100 41 31 65 13 82 72 106 54 123 113 19 95 85 26 60 50 126 67 101 91 39 108 14 4 80 114 55 45 79 27 96 86 44 27 103 44 34 68 16 85 75 109 99 126 116 22 12 88
29 63 53 1 70 104 94 0 111 17 7 41 117 58 48 82 30 99 89 123 113 61 2 35 18 94 35 25 59 7 76 66 100 90 38 107 32 37 114 23 26 1 26 95 1 119 25 101 42 32 66 14 83 73 107
97 124 114 20 10 86 27 61 51 127 68 102 92 126 74 15 5 39 115 56 46 80 28 97 87 121 111 59 0 34 24 100 41 75 65 13 82 116 106 12 88 12 65 122 51 33 10 77 36 34 93 68 80 58 12
51 112 115 40 57 35 54 1 127 30 124 82 31 77 115 124 14 4 80 114 104 45 121 27 17 86 120 68 58 127 33 109 99 5 74 22 12 46 115 105 53 87 77 18 94 0 118 59 7 41 31 100 6 82 72
106 47 123 113 19 88 78 26 60 104 9 120 68 58 127 33 23 99 40 74 64 12 81 115 105 53 87 28 18 108 6 65 17 122 80 21 16 69 72 11 80 28 62 52 121 27 103 93 127 68 16 6 40 109 57
30 39 72 55 45 121 27 96 86 120 68 9 127 33 109 99 40 74 64 30 109 37 41 70 10 36 90 119 14 101 41 39 88 30 13 89 79 20 54 44 120 26 95 85 33 67 8 126 74 108 49 39 73 21 11
80 114 62 52 121 27 103 93 127 68 58 6 40 109 99 47 81 22 12 106 23 53 9 120 68 58 127 33 23 99 40 74 64 12 46 115 105 53 87 28 18 52 0 118 59 93 41 31 100 6 82 72 13 47 37
113 19 12 43 108 114 44 109 56 125 50 96 2 55 100 23 97 127 120 8 21 46 80 21 11 87 121 111 52 0 34 24 93 127 75 65 99 40 116 106 12 55 98 43 20 38 28 62 10 0 69 57 40 116 57
47 81 71 98 88 122 112 60 1 35 25 101 42 76 66 100 48 117 107 13 89 30 20 54 44 71 61 53 124 63 4 38 28 104 45 79 69 17 86 120 110 58 92 33 23 57 5 74 64 98 46 115 105 11 87
77 18 52 42 118 59 83 28 126 85 62 67 76 10 13 105 38 120 97 88 31 56 90 31 21 55 3 72 62 96 44 126 109 99 5 81 22 12 46 122 63 53 22 124 55 11 104 60 105 0 95 0 70 90 18
114 103 49 115 98 46 36 105 11 1 77 18 52 42 118 24 93 83 31 65 6 124 30 106 47 37 71 19 9 78 112 60 50 119 25 15 91 125 66 56 4 38 107 97 3 79 20 10 44 120 110 51 85 33 23
92 126 116 64 5 39 29 105 11 80 70 18 52 121 111 17 93 34 24 58 6 124 65 99 47 37 106 12 2 126 33 51 100 17 18 5 87 122 88 62 28 87 103 76 3 35 83 107 30 16 59 18 124 107 97
3 79 20 10 44 120 61 51 85 33 23 92 126 116 64 5 39 29 105 46 80 70 104 52 121 111 58 54 28 83 109 107 58 13 1 120 40 59 125 108 56 125 115 21 11 38 28 62 52 0 69 103 93 41 110
16 6 40 116 57 47 81 29 98 88 122 112 11 1 35 25 101 42 76 66 14 83 117 107 13 124 30 20 54 2 71 61 95 43 112 102 8 126 74 15 49 39 115 56 90 80 102 94 20 3 79 69 10 44 34
110 51 85 75 23 92 126 116 64 98 39 29 63 11 80 70 104 52 121 111 17 7 83 24 58 48 124 65 99 89 37 71 12 2 36 112 53 43 77 25 94 84 118 66 56 125 31 21 97 38 72 62 10 79 113
103 26 51 120 26 16 92 33 67 57 91 39 108 98 4 80 21 11 45 35 62 52 86 76 24 93 127 117 65 6 40 30 64 47 81 71 105 53 122 112 18 94 35 25 59 49 76 66 100 90 38 107 13 3 79
20 54 44 78 26 95 85 119 67 8 126 32 22 49 39 73 63 11 80 114 104 52 121 27 17 51 34 51 106 96 56 73 62 90 39 55 85 57 49 41 64 89 43 94 90 12 108 51 113 81 72 19 102 91 80
74 13 82 116 64 54 123 29 105 95 1 70 60 8 42 111 101 49 83 15 6 25 87 43 5 125 73 91 77 60 8 126 32 101 49 39 73 14 4 80 114 55 45 121 27 17 86 34 68 58 127 33 109 99 40
74 22 12 46 115 105 53 87 28 18 94 0 118 59 7 41 31 100 6 82 72 13 47 123 113 19 107 90 80 114 97 3 121 27 10 44 34 68 16 85 75 109 99 126 116 22 12 39 29 63 53 1 70 104 94
0 111 17 7 41 117 58 48 82 72 99 89 123 113 12 2 36 26 102 43 77 67 101 84 118 108 14 125 31 21 55 3 72 62 96 86 113 103 9 127 26 16 50 40 116 57 91 81 115 98 4 122 28 104 45
35 69 59 86 76 110 100 127 117 23 13 89 30 64 54 88 71 105 95 1 112 18 8 42 118 60 8 86 37 29 76 89 39 123 37 95 20 87 28 104 10 0 69 103 51 41 75 16 92 82 116 57 5 123 29
98 88 36 70 60 1 77 111 101 42 118 24 14 83 60 43 33 67 50 84 74 108 91 125 115 21 97 38 28 62 52 79 69 103 93 120 110 16 6 82 23 57 47 81 64 98 88 122 105 11 1 35 111 52 42
76 66 93 83 117 107 55 124 30 20 54 37 71 61 95 78 112 102 8 84 25 15 49 39 66 56 90 80 107 97 3 121 69 10 44 34 68 51 85 75 109 92 126 116 22 12 39 29 63 53 80 70 104 94 42
111 17 7 41 24 58 48 82 65 99 89 5 123 24 98 31 36 40 97 38 35 32 37 81 17 26 44 125 88 21 25 52 21 70 24 36 23 38 69 81 9 107 127 76 89 39 109 75 70 49 67 123 37 75 41
102 60 109 92 40 30 99 5 81 71 12 46 36 112 53 87 77 99 124 65 99 89 123 106 12 2 36 112 53 43 77 25 94 84 118 108 7 125 31 21 97 38 72 62 10 79 113 103 9 120 26 16 50 126 67
57 91 81 108 98 4 122 70 11 45 35 111 52 86 76 110 93 127 117 23 99 40 30 64 12 81 71 105 95 122 112 18 8 84 25 59 49 83 66 61 44 34 61 51 85 75 23 92 126 116 64 5 20 49 4
56 3 64 55 22 111 61 35 38 27 48 31 21 97 38 72 62 10 79 113 103 51 120 26 16 50 126 67 57 91 39 108 98 4 80 70 11 45 35 111 52 86 76 24 93 127 117 23 99 40 30 64 12 81 71
105 53 122 112 18 8 84 25 59 49 125 66 100 90 38 107 13 3 37 113 54 44 78 26 95 85 119 67 57 126 32 22 98 39 73 63 11 80 114 104 10 86 27 17 51 127 43 26 16 50 33 67 57 91 39
108 98 4 80 21 11 45 35 125 101 126 32 22 91 39 73 63 4 80 114 104 10 79 27 97 39 11 53 78 112 53 43 119 25 15 84 118 66 56 125 31 107 97 38 72 20 10 44 103 50 12 45 121 30 68
13 2 20 10 44 120 50 52 120 114 102 32 47 43 110 51 127 33 23 92 40 74 64 5 39 115 105 11 80 28 18 52 39 105 88 55 66 13 111 93 32 101 7 83 73 14 48 124 114 20 89 79 27 61 2
120 68 102 43 33 109 15 5 74 108 56 46 115 21 97 87 28 62 52 0 34 103 93 86 48 76 91 59 120 39 124 62 60 43 21 111 5 3 97 26 61 123 13 24 125 71 68 117 63 63 120 64 88 32 116
96 101 119 77 34 117 64 112 9 78 112 102 8 84 25 15 11 1 110 81 80 114 0 88 86 100 40 100 10 110 111 90 57 76 94 42 15 85 30 119 83 17 61 94 78 60 28 11 6 83 11 32 0 67 55
101 24 73 29 62 32 1 6 101 52 124 14 4 38 114 104 45 79 27 17 86 120 110 58 127 33 23 99 5 74 64 12 46 115 105 11 87 28 18 52 0 118 59 93 41 31 100 6 124 72 106 47 37 113 19
88 78 112 60 1 119 25 101 91 32 66 14 4 73 107 97 45 114 20 10 86 120 61 51 127 33 49 32 22 56 4 73 63 97 45 114 104 10 0 27 17 51 41 117 58 92 82 30 99 5 123 29 12 46 36
70 18 87 77 111 101 0 118 24 14 41 31 65 55 3 72 106 96 2 113 19 9 43 119 60 50 84 32 101 91 125 115 14 4 38 28 104 45 79 69 17 86 120 110 16 127 33 23 57 5 74 64 98 88 115
105 11 1 77 18 52 42 118 59 93 83 117 100 6 124 30 106 47 37 71 19 88 78 112 102 1 119 25 15 91 32 66 56 4 73 107 97 3 114 20 10 64 89 30 64 54 2 71 105 95 1 77 18 8 42
118 59 49 83 31 100 90 124 114 62 3 37 27 103 44 78 68 102 85 119 109 15 91 32 22 56 4 73 63 97 87 35 104 10 0 76 17 51 41 117 58 92 82 116 64 5 123 29 105 46 36 70 18 87 77
111 101 49 118 24 14 90 31 65 55 89 72 106 96 2 78 19 9 43 119 60 50 84 74 93 97 102 72 71 105 108 13 80 21 55 45 121 27 96 86 34 68 9 127 75 109 50 40 78 61 9 78 68 102 92
119 109 15 5 32 22 56 46 122 63 97 87 121 104 10 0 34 110 51 41 75 23 92 82 116 106 5 123 29 19 95 36 70 60 94 77 111 101 7 118 24 14 48 124 65 55 89 79 106 96 2 120 68 9 43
33 109 50 84 74 108 91 125 115 21 97 38 28 62 52 79 69 103 93 120 110 16 6 82 23 57 47 81 64 98 88 122 105 11 1 35 111 44 39 106 12 81 29 125 122 61 2 78 112 102 43 77 25 15 84
118 66 56 90 31 107 97 3 72 62 10 44 113 103 51 85 75 16 50 126 116 57 8 91 60 98 69 125 89 87 94 50 67 96 61 0 94 47 17 54 50 34 81 127 89 109 13 115 92 23 31 59 103 3 28
 