P2
63 31
255
73 63 11 45 35 104 52 86 76 17 27 10 0 27 17 51 41 117 58 92 82 116 99 5 123 29 12 46 36 70 18 87 77 111 101 0 118 24 14 41 31 65 55 3 72 106 96 2 113 19 9 43 119 60 50 84 32 101 91 125 115 14 4
38 28 104 45 79 69 103 86 120 110 16 127 33 23 57 5 74 64 98 88 115 105 11 1 28 18 52 42 118 59 93 83 117 100 6 124 30 106 47 37 71 61 88 78 112 102 1 119 25 15 91 32 66 56 90 73 107 97 3 114 20 10 44
120 61 51 85 75 102 92 126 116 64 5 39 29 78 104 32 6 0 45 35 69 74 54 63 9 62 75 105 77 87 101 77 67 101 91 39 108 14 4 38 21 55 45 79 62 96 86 120 68 9 127 33 23 50 40 74 64 12 81 115 105 11 122
28 18 52 35 69 59 93 41 110 100 6 124 23 13 47 37 64 54 88 78 26 95 1 119 25 8 42 32 66 14 83 73 107 97 124 114 20 10 37 27 61 51 127 68 102 92 126 109 15 5 39 22 56 46 80 28 97 87 121 111 10 0 34
24 51 41 75 65 13 82 116 106 12 123 29 19 53 1 70 60 94 84 111 101 7 125 11 122 112 18 94 35 25 59 7 76 66 100 90 117 107 13 3 79 20 54 44 120 61 95 85 119 67 8 126 32 108 49 39 73 21 90 80 114 104 52
121 27 17 93 34 68 58 6 75 109 99 5 81 22 12 46 122 63 53 87 77 18 48 70 55 66 106 21 23 83 84 95 83 26 38 56 46 122 28 97 87 35 69 10 0 34 110 100 41 75 23 13 82 116 64 54 123 29 19 95 1 70 60
8 42 111 101 46 111 38 24 97 122 28 97 87 35 69 10 0 34 110 100 41 75 23 30 47 14 28 70 49 25 122 97 31 110 111 73 10 28 104 94 0 69 59 7 41 31 100 48 82 72 13 109 92 82 30 99 5 123 29 12 46 36 70
53 87 77 111 59 0 118 24 14 41 31 65 55 82 72 106 96 2 113 19 9 43 26 60 50 84 32 101 91 125 115 14 4 38 28 55 45 79 69 17 86 120 110 16 127 33 23 57 40 74 64 98 46 115 105 11 1 28 18 52 42 69 59
93 83 117 100 6 124 30 13 47 37 23 48 117 23 13 89 30 64 54 2 71 105 95 1 77 18 8 42 118 59 49 83 31 100 90 124 114 62 3 37 27 103 44 78 68 102 85 119 109 15 91 32 22 56 4 73 63 97 87 35 104 10 0
76 17 51 41 117 58 92 82 116 64 5 123 29 105 46 36 70 60 87 77 111 101 49 118 24 14 90 31 65 55 89 37 106 96 2 78 19 9 43 119 60 50 84 74 22 91 125 115 63 4 91 74 64 91 81 115 105 53 122 28 18 94 35
69 59 93 76 110 100 6 82 23 13 47 123 64 54 88 78 26 95 1 119 67 8 42 32 66 49 83 73 107 55 124 114 20 96 37 27 61 51 78 68 102 92 40 109 15 5 81 22 56 46 80 28 97 87 121 69 10 0 34 110 51 41 75
65 13 82 116 106 54 123 29 19 53 36 77 119 19 86 92 72 97 3 72 62 96 44 113 103 9 85 75 16 50 126 116 57 91 81 29 63 4 122 70 104 45 35 111 17 86 76 110 58 48 117 23 99 89 30 64 54 2 71 105 95 43 77
18 8 84 118 59 49 83 31 21 90 10 121 69 10 0 34 24 51 41 75 65 13 82 116 106 54 123 29 19 53 36 70 60 94 42 111 101 7 125 24 14 48 38 65 55 89 79 27 96 2 120 26 9 43 33 67 15 84 74 108 56 125 115
21 11 38 28 62 52 0 69 103 93 41 110 16 6 40 23 57 47 81 29 58 41 31 107 48 82 72 106 54 123 113 19 95 36 26 60 8 77 67 101 91 39 108 66 83 22 91 125 73 63 4 38 28 104 10 79 69 17 51 120 110 58 92
33 23 57 5 123 64 98 46 36 105 11 87 77 111 52 42 118 24 93 83 31 65 6 124 72 106 96 37 71 19 9 78 112 60 50 119 25 15 91 125 66 56 4 38 107 97 45 79 69 10 44 120 61 122 105 71 127 75 103 111 74 99 40
74 64 98 81 115 105 11 122 28 18 52 0 69 59 93 83 110 100 6 124 23 13 47 37 113 54 88 78 112 95 1 119 25 101 42 32 66 14 83 73 107 97 124 114 20 10 86 27 61 51 85 68 102 92 126 109 15 5 39 115 56 46 80
70 73 80 72 24 17 48 9 17 63 22 85 69 17 26 49 101 103 92 79 75 122 127 111 68 61 70 107 99 0 45 70 88 78 26 60 1 119 25 101 42 32 66 14 4 73 107 97 45 114 20 10 86 120 61 51 46 24 92 26 85 78 123
74 40 2 48 102 1 122 62 102 85 9 34 103 9 127 75 109 50 40 74 22 91 81 115 63 4 122 28 18 94 35 69 59 7 76 110 100 48 82 23 13 47 123 64 54 88 36 105 95 1 77 67 8 42 32 108 49 83 73 21 90 124 114
20 96 37 27 61 9 78 68 102 50 40 109 15 5 81 22 56 46 122 63 97 87 35 69 10 0 34 110 51 41 75 23 92 82 116 64 54 123 29 19 51 48 7 31 56 125 31 21 55 3 72 62 96 44 113 103 9 127 75 16 50 40 116
57 91 81 29 98 4 122 28 104 45 35 69 17 86 76 110 58 127 117 23 13 89 30 64 54 2 71 105 95 43 77 18 8 86 10 57 40 30 106 47 81 71 19 53 122 112 18 94 35 25 59 7 76 66 100 90 38 107 13 3 79 20 54
44 120 61 95 85 78 92 110 50 65 1 79 124 30 55 89 30 20 96 2 71 61 9 43 112 102 8 84 33 51 41 75 65 92 82 116 106 5 123 29 19 95 36 70 60 94 77 111 101 7 83 24 14 48 124 65 55 89 79 106 96 2 120
68 9 43 33 109 50 84 74 108 91 125 115 21 97 38 28 62 52 79 69 103 93 120 110 16 6 82 23 57 47 81 64 98 88 122 70 11 1 35 111 52 42 76 66 93 83 117 107 55 124 30 20 96 37 71 61 95 78 57 73 97 2 28
114 126 86 33 16 6 82 116 57 47 123 29 98 88 36 70 11 1 35 111 101 42 76 24 14 83 117 107 55 124 30 20 96 2 71 61 123 110 88 27 100 90 5 91 56 39 115 56 46 80 28 97 87 121 111 59 0 34 24 100 41 75 65
99 82 116 106 12 88 29 19 53 1 70 60 94 84 111 101 7 125 73 14 48 38 114 55 89 79 113 61 2 120 26 102 43 33 67 57 84 74 71 97 126 124 92 16 108 14 119 7 16 120 110 16 6 82 23 57 47 123 64 98 88 122 105
11 1 35 111 52 42 76 66 93 83 117 107 55 124 30 20 96 37 71 61 95 78 112 102 8 84 25 15 49 125 66 56 90 80 107 97 3 121 69 10 44 34 110 51 85 75 109 92 126 116 22 98 39 29 63 53 80 70 104 94 42 111 17
7 83 24 58 48 82 65 99 89 123 71 12 2 36 112 53 43 77 67 94 84 118 108 56 125 31 21 55 38 72 62 96 44 113 103 9 85 26 16 115 12 81 115 105 11 87 28 18 96 81 113 40 48 16 93 90 80 54 68 40 54 59 50
59 21 93 100 22 41 25 74 125 88 71 61 95 78 112 102 8 84 25 15 49 39 66 56 90 80 107 97 3 121 69 10 44 34 68 51 85 75 109 92 126 116 22 98 39 29 63 53 80 70 104 94 42 111 17 7 83 24 58 48 82 65 99
89 123 71 12 2 36 26 53 43 77 67 94 84 118 108 56 125 31 21 55 38 72 62 96 79 113 103 9 85 26 16 50 40 67 57 91 81 29 98 4 122 28 11 45 35 69 52 86 76 110 58 127 117 23 13 40 30 64 54 81 71 105 95
43 112 18 8 42 25 113 16 3 70 94 14 68 86 57 109 6 40 109 99 47 81 71 12 80 63 53 80 70 104 94 121 111 17 7 83 24 58 48 82 65 99 89 123 106 12 2 36 112 53 43 77 67 94 84 118 108 56 125 31 21 97 38
72 62 96 79 113 103 9 85 26 16 50 40 67 57 91 81 108 98 4 122 70 11 45 35 69 52 86 76 110 58 127 117 8 39 59 12 81 61 72 115 14 56 123 124 44 77 76 52 35 25 101 42 76 66 14 48 117 107 55 89 30 20 54
2 71 61 95 43 33 102 8 84 74 15 49 39 115 21 90 80 28 62 3 121 69 103 44 34 68 16 6 75 109 57 47 116 22 12 88 29 63 53 1 35 104 94 42 76 17 7 1 14 0 69 20 125 36 109 113 114 58 69 52 42 118 24
 