P2
46 20
255
61 51 127 33 102 92 126 74 64 5 39 115 105 46 80 28 18 52 121 111 59 93 34 24 100 6 75 65 99 47 37 106 12 88 78 19 53 1 119 60 94 84 32 66 7 125
73 107 48 38 114 20 10 79 113 61 68 86 76 110 100 127 117 23 13 89 30 64 54 2 71 105 95 1 112 18 8 42 118 59 49 83 73 100 90 124 114 13 3 37 27 103
44 78 68 102 85 119 109 15 91 32 22 56 4 73 63 97 87 114 104 10 0 76 17 51 41 75 58 92 82 116 99 5 123 29 105 48 116 86 59 5 122 65 48 124 65 55
89 37 75 51 2 92 35 106 42 67 12 82 63 81 20 89 123 71 61 2 36 112 102 8 77 67 15 49 118 108 56 90 31 21 97 3 121 62 96 37 104 117 14 48 38 72
55 89 82 21 24 88 17 43 126 109 99 47 81 22 12 88 122 63 53 1 35 104 94 0 76 66 7 41 117 107 48 82 30 20 89 123 113 61 95 36 26 102 8 77 67 15
49 39 108 14 90 80 21 55 3 121 62 96 86 34 68 9 127 75 109 50 40 116 22 84 56 10 122 27 15 38 89 114 55 89 79 27 61 2 120 15 83 80 92 44 7 55
31 14 90 80 21 55 45 121 62 96 86 34 103 9 127 75 109 50 40 74 22 91 81 115 63 4 122 28 104 94 35 69 59 7 76 110 100 48 82 23 13 47 123 64 54 88
36 105 95 1 77 67 8 42 32 108 49 83 73 21 90 124 114 62 96 37 27 61 9 78 68 102 50 40 109 88 93 83 1 45 43 99 13 38 118 99 125 95 78 26 16 85
119 67 57 126 32 108 98 4 73 63 11 45 114 104 107 109 94 77 67 15 49 118 108 14 90 31 21 55 3 121 62 96 44 34 103 9 127 75 16 50 40 116 22 91 81 115
63 4 122 28 104 45 35 69 17 7 76 110 100 48 117 23 13 89 123 64 54 2 36 105 95 1 77 18 8 42 118 108 49 83 31 21 90 124 114 62 3 37 27 103 9 50
82 104 7 114 56 12 79 20 54 2 120 26 95 85 33 67 8 126 74 108 98 39 73 21 11 80 114 62 52 121 27 103 93 127 68 58 6 40 109 99 47 81 22 12 88 122
112 53 87 35 25 94 0 76 66 100 41 31 107 13 82 72 70 117 116 75 79 4 53 28 123 36 15 107 90 6 94 112 102 8 84 74 15 49 125 115 56 90 80 28 97 3
121 69 103 44 34 110 16 85 75 109 57 47 116 22 98 88 29 63 53 1 70 104 94 42 76 17 7 83 117 58 48 82 30 99 89 123 71 52 70 60 94 84 111 101 7 125
73 14 48 38 114 55 89 79 113 96 2 120 26 102 43 33 67 15 84 74 2 103 113 20 122 19 53 122 112 18 94 35 25 59 7 76 66 100 48 38 107 13 3 79 20 54
44 120 26 95 85 119 67 8 126 32 108 49 39 73 21 11 80 114 104 52 121 27 17 93 34 68 58 6 40 109 99 5 81 22 12 46 122 112 53 87 77 25 94 0 118 66
7 41 31 107 13 82 72 106 54 123 113 19 95 36 26 60 8 125 87 71 105 2 71 105 95 1 112 18 8 42 118 59 49 83 31 100 90 124 114 62 3 37 27 103 44 78
68 102 85 119 109 15 91 32 22 56 4 73 63 97 87 114 104 10 0 76 17 51 41 117 58 92 82 116 99 5 123 29 105 46 36 70 18 87 77 111 101 49 118 24 14 90
31 65 55 89 72 106 96 2 78 19 9 43 119 60 50 84 74 101 91 125 115 63 4 38 28 104 45 79 69 103 51 85 68 58 6 75 109 99 47 116 22 12 46 122 63 53
87 35 104 94 0 118 17 7 41 31 107 48 82 72 20 89 57 8 115 124 0 51 118 24 93 83 31 65 6 124 72 106 96 37 71 19 9 78 112 60 50 119 119 107 14 86
87 71 53 25 35 91 104 74 97 46 10 21 51 56 124 28 75 24 25 32 95 34 90 73 63 11 80 114 104 52 121 27 17 51 127 68 58 92 40 109 99 5 81 22 12 118
 