P2
153 77
255
48 46 88 24 78 42 10 53 10 35 69 10 0 34 110 100 41 75 23 13 82 116 64 54 123 29 19 95 1 70 60 8 42 111 101 49 83 24 14 48 124 95 113 103 9 127 26 16 50 40 67 57 91 81 29 98 4 122 28 11 45 35 69 17 86 76 110 58 127 117 23 13 40 30 64 54 2 71 105 95 1 112 18 8 42 25 59 49 83 31 100 90 124 114 13 3 37 27 103 44 78 68 16 85 119 109 15 126 32 22 56 4 73 63 97 45 114 104 10 0 27 17 51 41 61 11 122 70 60 1 35 25 101 42 76 66 14 48 117 107 13 89 30 20 54 2 120 61 95 43 33 102 8
126 74 15 49 39 115 21 90 80 28 62 3 121 27 103 44 34 68 16 6 75 97 6 10 90 40 95 41 93 68 20 86 98 114 66 49 39 66 56 90 80 28 97 3 121 69 10 44 34 68 51 85 75 109 57 126 116 22 98 39 29 63 53 80 70 104 94 42 111 17 7 41 24 58 48 82 30 99 89 123 71 12 2 36 26 53 43 77 67 15 84 118 108 56 125 31 21 55 38 72 62 96 44 113 103 9 85 26 16 50 40 116 57 91 81 29 98 4 122 76 45 99 72 66 12 82 104 58 21 25 4 66 29 98 104 7 22 98 109 10 89 101 13 29 28 66 116 25 45 90 67 106 93
120 59 0 34 24 100 6 75 65 13 47 116 106 12 88 29 19 53 1 119 60 94 42 32 101 7 125 73 14 48 38 114 20 89 79 27 61 2 120 26 102 92 33 67 15 118 8 126 32 22 49 39 73 63 11 80 114 104 52 121 27 17 51 34 68 58 92 40 109 99 5 81 22 12 46 36 63 53 87 77 25 94 0 118 24 7 41 31 65 13 82 72 106 54 123 113 19 9 36 26 60 50 126 67 101 91 39 108 14 4 38 21 55 45 82 44 8 20 110 115 65 41 4 34 78 87 66 86 53 62 86 13 44 119 89 35 73 77 126 87 94 124 12 41 8 56 6 105 42 67 101 42 32
108 14 83 73 21 55 124 114 20 96 86 27 61 9 127 68 102 50 40 74 15 5 81 115 56 46 122 28 97 87 35 69 59 0 34 110 100 41 75 23 78 54 44 78 68 16 85 119 109 15 126 32 22 56 39 73 63 97 45 114 104 10 0 27 17 51 41 117 58 92 82 30 99 5 123 29 12 46 36 70 18 87 77 111 101 0 118 24 14 41 31 65 55 3 72 106 96 2 113 19 9 43 119 60 50 84 32 101 91 125 115 14 4 38 28 104 45 79 69 17 86 120 110 16 127 33 23 57 5 74 64 98 88 115 105 11 1 28 18 52 42 118 59 93 83 117 100 6 124 28 33 93 127
117 23 4 39 32 97 30 103 97 42 56 44 36 72 11 80 114 104 52 121 27 17 93 127 68 58 6 40 109 99 5 81 71 12 46 122 112 53 87 77 25 94 0 118 66 100 41 31 107 13 82 72 106 54 123 113 19 95 85 26 60 8 126 67 5 64 18 52 96 74 108 5 74 108 98 46 115 21 11 26 47 119 16 50 40 109 57 91 81 22 98 4 122 28 97 45 35 69 10 86 76 110 51 127 117 100 90 117 107 13 3 30 20 54 44 120 61 95 85 119 102 8 126 32 15 49 39 73 21 90 80 114 104 3 121 25 7 25 15 91 125 115 56 4 38 28 97 3 79 69 10 44 120
110 16 5 93 109 60 57 69 73 42 108 66 32 102 99 34 59 93 83 24 58 6 124 30 99 47 37 71 12 2 78 112 53 43 119 25 15 84 32 66 56 125 31 107 97 3 72 20 10 44 113 61 51 85 26 16 92 126 116 57 86 124 119 88 21 18 41 39 35 53 113 10 79 113 103 51 120 26 16 92 33 67 57 91 39 108 98 4 80 21 11 45 121 111 52 86 76 24 93 127 117 65 6 40 30 64 12 81 71 105 53 122 112 18 94 35 25 59 49 125 66 100 90 38 107 13 3 79 113 54 44 78 26 95 85 119 67 8 126 32 108 98 39 73 63 11 80 114 104 52 121 69 64
111 45 65 48 38 114 55 89 79 113 96 2 120 26 102 43 33 67 15 84 74 108 98 46 115 21 11 87 28 62 52 86 69 103 93 127 75 16 6 40 116 57 47 81 71 98 88 122 112 60 1 35 25 101 42 76 66 100 83 117 107 13 89 30 20 54 2 71 61 95 85 33 102 8 126 74 15 24 44 126 109 91 66 59 41 6 90 123 98 38 118 38 85 28 71 54 44 120 61 95 85 33 102 8 126 74 108 49 39 73 21 90 80 114 62 3 121 27 17 93 34 68 58 6 75 109 99 47 116 22 12 46 122 63 53 87 35 104 94 0 76 17 7 41 31 107 48 82 72 20 89 123 113
61 95 36 26 60 8 77 67 101 49 118 108 14 4 80 21 55 45 121 62 96 86 34 103 9 127 33 109 50 40 74 22 91 81 115 63 53 122 28 18 94 35 96 44 78 1 38 56 11 111 8 51 53 116 6 124 30 20 47 37 71 61 9 78 112 102 50 119 25 15 49 32 66 56 90 38 107 97 3 121 20 10 44 34 112 109 12 52 32 50 40 74 22 91 81 115 63 53 122 28 18 94 35 69 59 7 76 110 100 48 82 23 13 47 123 64 54 88 36 26 95 1 77 67 8 42 32 108 49 83 73 21 55 124 114 62 96 37 27 61 9 78 68 102 50 40 109 15 5 81 22 56 46
122 63 97 87 35 69 10 0 34 110 51 41 75 23 13 82 116 64 54 123 29 19 95 36 70 60 8 42 111 101 90 19 77 81 39 87 63 53 87 77 25 94 0 118 24 7 41 31 65 13 82 72 106 54 123 113 19 9 36 26 60 50 126 67 101 91 39 108 14 4 38 21 55 45 79 27 96 86 120 110 9 127 33 23 50 40 74 64 12 81 7 35 114 3 58 54 108 47 116 64 98 88 29 13 124 114 13 3 37 27 103 44 78 68 102 85 119 109 15 126 32 22 56 4 73 63 97 87 114 104 10 0 76 17 51 41 4 33 17 52 107 83 73 107 97 45 114 20 10 44 27 61 51
85 68 102 92 126 74 15 5 39 29 56 46 80 70 97 87 121 111 59 0 34 24 58 41 75 65 99 47 116 106 12 2 29 19 53 43 70 60 94 84 32 101 7 125 31 14 48 38 72 55 89 79 113 61 2 120 26 16 43 33 67 57 84 74 108 98 46 115 21 11 111 59 98 115 71 102 67 112 86 103 14 65 32 15 89 101 84 74 22 91 125 115 63 4 38 28 104 45 79 69 103 51 120 110 16 92 33 23 77 40 90 65 72 87 47 4 115 105 53 122 28 18 94 0 69 59 93 41 110 100 6 82 23 13 47 123 113 54 88 78 26 95 1 119 67 8 42 32 108 14 83 73 107
55 124 114 20 96 86 27 61 51 127 68 102 92 40 109 15 5 81 115 56 46 80 28 97 87 121 69 12 100 116 39 40 86 11 112 27 65 125 112 8 39 45 119 61 88 67 80 126 101 18 80 18 12 118 8 126 32 108 49 39 73 63 90 80 114 104 52 121 27 17 93 34 68 58 92 75 109 99 5 81 22 12 46 122 63 53 87 77 25 94 0 118 66 7 41 31 65 48 82 72 106 54 123 113 19 95 36 26 60 50 77 67 101 91 39 108 14 4 80 21 55 45 79 27 96 86 120 68 9 127 33 109 50 40 74 64 12 81 21 8 33 102 8 126 32 15 49 39 73 21 90 80 114
62 3 121 27 17 44 34 68 58 6 75 109 99 47 116 22 12 46 122 63 53 87 35 104 94 0 76 17 7 41 31 107 48 82 72 20 89 123 113 19 2 36 26 60 8 77 67 101 49 118 108 14 4 80 21 55 45 121 62 96 86 34 103 9 127 33 109 50 40 74 22 91 81 115 105 4 122 28 18 94 35 69 59 7 76 24 63 76 78 90 54 82 97 14 118 89 63 106 89 37 27 61 2 120 68 102 43 33 109 15 84 74 22 56 46 115 21 97 87 28 62 10 0 69 109 92 82 30 99 5 123 29 12 46 36 70 18 87 77 111 59 0 118 24 14 41 31 65 55 3 72 106 96
44 113 19 9 43 26 60 50 84 32 101 91 125 115 14 4 38 28 55 45 79 69 17 86 120 110 16 127 33 23 57 5 74 64 98 46 115 105 11 1 28 18 52 42 118 59 93 83 117 100 6 124 30 13 47 37 71 19 88 78 112 102 1 119 25 15 42 32 66 56 4 73 107 97 3 114 20 10 44 120 61 51 85 33 102 92 126 116 15 5 39 29 105 46 80 70 104 87 23 45 69 90 73 63 97 45 114 104 10 0 27 17 51 41 117 58 92 82 30 99 5 123 29 12 46 36 70 18 87 77 111 101 0 118 24 14 41 31 65 55 3 72 106 96 2 113 19 9 43 26 60 50 84
32 101 91 125 115 14 4 38 28 104 45 79 69 17 86 120 110 16 127 33 23 57 5 24 114 101 40 109 15 91 81 22 56 46 122 28 97 87 35 69 10 0 76 110 100 41 75 23 13 82 116 64 54 123 29 19 95 1 70 60 126 86 57 15 110 68 87 20 123 126 25 91 74 64 12 81 115 105 53 122 28 18 52 0 69 59 93 41 110 100 6 82 72 13 47 37 113 54 88 78 26 95 1 119 67 101 42 32 66 14 83 73 107 55 124 114 49 97 14 68 106 7 20 94 13 25 30 26 41 83 51 57 102 105 88 36 105 95 1 119 67 8 42 32 108 49 83 73 107 90 124 114 20
96 37 27 61 9 78 68 102 92 119 109 15 5 81 22 56 46 122 63 97 87 121 69 10 0 34 110 51 41 75 65 92 82 116 106 80 65 75 40 92 105 100 28 53 122 28 18 94 0 69 59 93 41 110 100 6 82 72 13 47 123 113 54 88 78 26 95 1 119 67 101 42 32 108 14 83 73 107 55 124 114 20 96 86 27 61 51 127 68 102 92 40 109 15 5 81 115 56 46 80 28 97 87 121 69 59 0 34 110 100 41 75 65 13 82 38 21 11 87 28 62 52 0 69 103 93 127 110 16 6 40 116 57 47 81 29 98 88 122 112 60 1 35 25 101 42 76 66 100 83 117 107 13
89 30 20 54 2 71 61 95 85 112 102 8 126 74 15 49 39 115 56 90 80 114 97 3 121 27 103 44 34 68 58 85 75 109 99 47 116 22 12 88 29 63 53 87 70 104 94 0 76 17 7 41 117 58 48 82 72 99 89 123 113 61 2 36 26 102 43 77 67 101 49 118 108 14 90 31 21 55 45 84 10 34 85 106 102 36 95 34 103 9 127 75 16 50 40 116 22 91 81 29 63 123 106 96 2 113 19 9 43 119 60 50 84 74 101 91 125 115 63 4 38 28 104 45 79 69 103 86 120 110 16 92 33 23 57 5 74 64 98 88 115 105 11 1 77 18 52 42 76 59 93 83 117
100 6 124 30 106 47 37 71 61 88 78 112 102 50 119 25 15 91 32 66 56 90 73 107 120 27 7 72 43 26 16 43 33 67 57 84 74 108 98 4 115 21 11 45 28 62 52 86 34 103 93 127 117 16 6 40 30 57 47 81 71 19 88 122 112 18 1 35 25 59 42 76 66 100 48 117 107 13 3 30 20 16 71 89 79 113 103 51 120 26 16 92 33 67 57 91 39 108 98 4 80 21 11 45 121 62 52 86 76 24 93 127 117 65 6 40 30 106 47 81 71 105 53 122 112 18 94 35 25 59 49 125 66 100 90 38 107 13 3 79 20 54 44 78 26 95 85 119 67 8 126 32 108
49 39 8 95 1 19 9 85 119 60 50 126 32 101 91 39 73 63 4 38 114 104 45 79 27 17 51 120 110 58 92 33 23 99 5 74 64 31 14 90 31 21 55 45 72 62 96 86 113 103 9 127 75 16 50 40 74 57 91 81 115 63 4 122 28 104 45 35 69 59 86 76 110 100 48 117 23 13 47 30 64 54 88 71 105 95 1 77 18 8 42 32 59 49 83 73 100 90 124 114 62 3 37 27 61 44 78 68 102 50 119 109 15 91 32 22 56 46 73 63 97 87 35 104 10 0 34 17 51 41 75 58 92 82 116 64 85 68 58 6 75 109 99 5 81 22 12 46 122 63 53 87 35
104 94 0 118 66 7 41 31 107 48 82 72 20 89 123 113 19 95 36 26 60 8 77 67 101 91 118 108 14 4 80 21 55 45 121 62 96 86 120 68 9 127 33 109 50 40 74 22 91 81 115 105 53 122 28 18 94 35 69 59 93 76 110 100 6 82 23 13 47 123 64 54 88 78 26 95 1 119 67 8 42 32 11 96 105 116 67 113 64 52 119 25 94 42 32 66 7 83 73 107 97 38 114 20 10 79 127 1 105 23 75 60 60 30 79 8 53 78 19 34 17 7 83 24 58 48 124 65 99 89 123 106 12 2 36 112 53 43 77 25 94 84 118 108 7 125 31 21 97 38 72 62 10
79 113 103 9 120 26 16 50 126 67 57 91 81 108 98 4 122 70 11 45 35 111 52 86 76 110 93 127 117 23 99 40 30 64 12 81 71 105 95 122 112 18 8 84 25 59 49 83 66 100 90 124 72 13 3 37 113 54 44 78 68 95 85 119 109 11 29 19 53 1 70 60 94 84 111 101 7 125 73 14 48 38 29 110 28 20 19 112 109 122 77 26 44 53 9 24 26 10 34 35 42 116 0 76 51 107 3 114 62 3 121 27 17 93 34 68 58 6 75 109 99 47 116 22 12 46 122 63 53 87 35 104 94 0 118 66 7 41 31 107 48 82 72 20 89 123 113 19 95 36 26 60 8
77 67 101 49 118 108 14 4 80 21 55 45 121 62 96 86 120 103 9 127 33 109 50 40 74 22 91 81 115 105 53 122 28 18 94 35 69 59 7 76 110 100 6 82 32 77 122 14 73 70 47 3 28 85 38 1 58 62 62 126 109 92 126 116 22 98 39 29 63 53 80 70 104 94 121 111 17 7 83 24 58 48 82 65 99 89 123 106 12 2 36 112 53 43 77 67 94 84 118 108 60 110 34 43 83 10 8 120 47 4 17 99 4 71 57 47 103 1 19 9 43 119 60 50 84 32 22 91 125 73 63 4 38 28 104 45 79 69 17 51 120 110 58 92 33 23 57 5 123 64 98 46 36
105 11 1 77 18 52 42 118 24 93 83 31 65 6 124 30 106 47 37 71 19 9 78 112 60 50 119 25 15 91 32 66 56 4 38 107 97 3 79 20 10 44 120 45 125 108 98 46 115 21 11 87 28 62 52 0 34 103 93 127 75 16 6 40 116 57 47 81 29 19 88 122 112 60 1 35 25 101 7 76 66 100 48 117 107 13 89 30 20 54 2 120 61 95 85 33 102 8 126 74 15 49 39 115 21 90 80 114 62 3 121 27 103 44 34 68 58 6 75 109 99 47 116 22 12 88 122 63 53 87 35 104 94 0 76 17 7 41 117 107 48 82 72 34 18 108 118 29 18 52 77 111 101
42 118 24 14 83 117 65 55 89 30 106 96 2 71 19 50 2 28 115 56 75 73 51 58 10 4 57 9 19 13 83 56 105 88 36 105 95 1 77 18 8 42 32 59 49 83 73 21 90 124 114 62 3 37 27 61 9 78 68 102 50 119 109 15 91 32 22 56 46 122 63 97 87 35 104 10 0 34 17 51 41 75 23 92 82 116 64 5 123 29 19 46 36 70 60 8 77 111 101 49 118 47 92 30 86 104 94 0 76 17 7 41 117 58 48 103 86 34 103 93 127 75 16 6 40 30 57 47 81 71 19 88 122 112 60 1 35 25 59 7 76 66 100 48 91 80 82 51 93 60 68 117 28
29 35 19 54 73 64 91 116 57 91 81 36 61 2 36 26 102 43 77 67 101 84 118 108 14 90 31 21 55 45 72 62 96 86 34 103 9 127 75 16 50 40 74 57 91 81 115 63 4 122 28 104 45 35 69 59 86 76 110 100 48 117 23 13 47 30 64 54 88 36 105 95 1 77 18 8 42 32 59 49 83 73 21 90 124 114 62 3 37 27 61 44 78 68 102 50 119 109 15 91 32 22 56 46 73 63 97 87 35 104 10 0 34 17 51 41 75 23 92 82 116 64 5 123 29 19 46 36 27 26 100 20 99 46 76 0 116 118 57 126 32 108 98 4 73 63 11 45 114 104 52 86 76
17 93 127 117 58 92 40 30 99 5 81 71 105 46 122 112 18 87 77 25 59 0 118 66 100 90 31 65 13 33 31 121 118 93 22 119 25 85 106 71 7 60 69 105 88 78 112 60 1 119 25 101 42 32 66 56 83 73 107 97 45 114 20 10 44 27 61 51 85 68 102 92 126 74 15 5 39 29 56 46 80 70 18 87 121 111 59 0 16 10 22 98 6 44 72 65 102 88 119 112 2 120 68 102 43 33 109 15 5 74 22 56 46 115 21 97 107 6 15 40 86 21 102 85 75 23 92 126 116 22 98 39 29 63 11 80 70 104 94 121 111 17 7 83 24 58 48 124 65 99 89 123 106
12 2 36 112 53 43 77 25 94 84 118 108 56 125 31 21 97 38 72 62 96 79 113 103 9 85 26 16 50 126 67 57 91 81 108 98 4 122 70 11 45 35 111 52 86 76 110 93 127 117 23 99 40 30 64 12 81 71 105 95 43 112 18 8 84 25 59 49 83 66 100 90 124 72 13 3 37 113 54 44 78 68 95 85 119 109 57 126 32 22 88 29 24 14 123 2 83 94 24 4 2 112 83 104 66 13 53 118 3 78 22 110 49 118 66 100 90 31 107 13 3 37 106 54 44 78 19 95 85 119 60 8 126 32 22 91 39 73 63 4 80 114 104 10 79 27 9 16 58 101 40 74 15
91 81 115 105 46 122 28 18 87 35 69 59 0 34 110 100 6 75 23 13 47 116 64 4 122 85 34 17 7 83 24 58 48 124 65 99 89 123 71 12 2 36 112 53 43 77 67 94 84 118 108 56 125 31 21 97 38 72 62 96 79 113 103 9 85 26 16 50 126 67 57 91 81 29 98 4 122 70 11 45 35 87 105 95 1 119 67 8 42 32 83 16 14 51 100 48 112 70 103 80 42 28 112 9 78 112 102 8 119 25 15 49 125 66 56 90 80 107 97 3 121 69 10 44 34 110 51 85 75 109 92 126 116 22 98 39 29 63 11 80 70 104 94 121 111 17 7 83 24 58 48 82 65
99 89 123 71 12 2 36 112 53 43 77 67 94 84 118 108 56 125 31 21 97 38 72 62 96 79 113 103 9 85 85 111 37 81 2 37 98 125 38 21 11 45 121 62 52 86 34 103 93 127 75 65 6 17 28 117 106 89 37 27 96 2 120 68 102 43 33 109 15 84 74 22 56 125 115 21 97 87 28 62 10 0 69 103 93 41 75 16 6 82 116 57 47 123 29 98 88 122 70 60 1 35 111 101 42 76 24 14 83 117 107 55 89 30 20 96 2 71 61 9 43 112 102 8 84 74 15 108 91 81 108 98 4 122 70 11 45 35 111 52 86 76 110 93 127 117 23 99 40 30 64 12 81
71 105 95 42 110 83 124 125 32 44 101 52 107 71 105 25 62 37 20 96 86 27 61 51 127 68 102 92 40 74 15 5 81 115 56 46 80 28 97 87 121 69 59 0 34 110 100 41 75 65 13 82 116 106 54 88 29 19 53 1 70 60 94 42 32 101 7 83 73 14 48 38 114 55 89 79 27 61 2 120 68 102 43 33 67 15 84 74 108 56 126 43 88 74 67 70 93 39 39 92 3 33 23 94 57 94 73 34 125 42 50 5 111 95 99 125 99 31 56 81 115 56 46 80 28 18 87 121 69 59 0 34 110 100 41 75 65 13 47 116 106 87 72 31 14 90 80 114 55 45 121 27 96
86 34 68 9 127 33 109 99 40 74 22 12 81 115 63 53 122 28 18 94 0 69 59 7 41 24 7 125 31 14 48 38 72 20 89 79 113 103 2 120 26 16 92 33 67 57 5 74 108 98 4 115 21 11 45 121 62 52 86 76 103 93 127 117 16 6 40 30 106 47 81 71 105 88 122 112 18 94 35 25 59 7 76 66 100 90 117 107 13 3 79 20 54 44 120 61 95 85 119 102 8 126 32 108 49 39 73 63 90 80 114 104 3 121 27 17 93 34 68 58 92 75 109 99 5 81 22 12 46 122 63 53 87 77 104 94 0 118 66 7 41 31 65 48 117 100 90 117 107 13 3 79 20
54 44 120 61 95 85 119 67 8 126 32 108 49 39 97 3 106 114 105 44 78 61 95 85 119 102 8 126 32 101 49 79 74 38 100 6 30 89 53 28 1 61 92 110 77 115 49 115 108 104 105 36 124 63 48 119 75 67 50 126 67 57 91 39 108 98 4 122 70 11 45 35 111 52 86 76 24 93 127 117 23 99 91 80 127 0 5 32 10 46 113 54 88 36 26 95 1 119 67 8 42 32 108 14 83 73 21 55 124 114 20 96 37 27 61 9 127 68 102 92 40 109 15 5 81 22 56 46 122 28 97 87 121 69 10 0 34 110 100 41 75 23 13 82 116 106 54 123 29 19 95 1 70
60 8 42 111 101 7 83 24 14 48 124 116 108 28 116 13 82 116 106 72 97 38 72 62 10 79 113 103 51 120 26 16 50 126 67 57 91 39 108 98 4 122 21 11 45 35 111 52 86 76 24 93 73 9 37 121 79 111 51 25 60 39 115 33 9 5 13 96 47 115 71 115 10 28 18 52 42 69 59 93 83 31 100 6 124 30 13 47 37 71 54 88 78 112 60 1 119 25 15 42 32 66 56 4 73 107 97 45 114 20 10 102 6 98 105 86 71 93 62 34 39 97 87 24 96 80 65 84 8 24 42 118 108 14 83 31 21 55 124 72 62 96 86 27 103 9 127 68 16 50 40 74 57
91 81 115 56 4 0 27 92 69 58 70 98 37 20 10 86 27 61 51 85 68 102 92 126 74 15 5 39 29 56 46 80 70 97 87 121 111 59 0 34 24 58 41 75 65 99 47 116 106 12 88 29 19 53 43 70 60 94 84 32 101 7 125 31 14 48 38 72 55 89 79 113 61 2 120 26 16 125 23 113 10 44 113 103 9 85 26 16 50 126 67 57 91 39 29 98 4 122 70 11 45 35 111 52 86 76 110 58 127 117 23 99 40 30 64 12 81 71 105 95 43 112 18 8 84 25 59 49 125 31 100 90 124 72 13 3 37 113 54 44 78 26 16 85 119 109 57 126 32 22 98 39 73
63 97 45 114 104 10 86 27 17 51 127 117 58 92 82 30 99 5 123 71 12 46 36 112 18 87 77 65 117 82 3 14 82 46 90 36 81 106 117 29 81 77 11 118 106 92 97 103 106 122 53 8 118 15 49 118 108 56 90 80 21 97 3 56 105 112 96 35 104 10 0 76 110 51 41 117 23 92 82 30 64 5 123 29 105 95 36 70 18 8 77 111 101 49 83 24 14 90 124 65 55 3 37 106 96 2 78 68 9 43 119 109 50 84 32 22 91 125 115 63 97 38 28 104 10 79 69 17 51 120 110 16 92 82 23 57 5 123 64 98 88 36 70 11 1 56 81 22 56 46 80 63 97
87 121 69 10 0 34 110 51 41 75 65 92 82 116 106 54 123 29 19 53 36 70 60 94 42 111 101 7 83 24 14 48 38 65 55 89 79 27 96 2 120 68 9 43 33 67 50 84 74 108 56 125 115 21 11 38 28 62 52 79 69 103 93 41 110 16 6 40 23 57 47 81 29 98 88 122 70 11 1 35 25 52 42 76 66 14 83 117 107 55 124 30 20 54 37 71 61 95 43 78 25 9 45 96 10 71 100 39 108 14 90 80 21 55 3 121 62 67 45 49 118 60 81 65 4 16 32 35 105 102 85 75 109 57 126 116 22 98 23 6 124 30 13 47 37 71 19 88 78 112 60 1 119
25 15 91 32 66 56 4 73 107 97 3 114 20 10 44 120 61 51 85 33 16 34 29 47 89 101 84 32 22 91 125 73 63 4 38 28 104 45 79 69 17 51 120 110 58 92 33 23 57 5 123 64 98 46 118 8 126 32 22 49 39 73 63 11 80 114 104 10 121 27 17 51 34 68 58 92 40 109 99 99 16 24 99 30 8 7 79 32 73 80 98 88 122 70 11 1 35 111 101 42 76 66 14 83 117 107 55 124 30 20 96 2 71 61 95 43 112 102 8 84 25 15 49 125 115 56 90 80 28 97 3 121 69 103 44 34 110 16 85 75 109 57 98 116 13 47 37 106 54 88 78 19 95
1 119 60 94 42 32 66 7 83 73 107 48 124 114 20 10 79 27 61 51 120 68 102 79 20 16 95 55 67 55 71 96 2 71 61 9 43 112 102 8 84 74 15 49 125 115 56 90 80 28 97 3 121 69 103 44 34 110 16 85 75 109 57 47 116 22 98 88 29 63 11 1 70 104 94 42 76 17 7 83 117 58 48 124 30 99 89 123 71 61 2 36 112 41 67 119 94 31 95 93 13 57 68 52 35 25 101 42 76 66 100 48 117 107 13 89 30 20 54 2 71 61 95 85 33 102 8 126 74 15 49 39 73 56 90 80 114 62 3 121 39 0 18 94 84 118 108 49 125 31 21 90 38
72 62 3 79 113 103 9 88 71 61 95 78 112 102 8 119 25 15 49 39 66 56 90 80 107 97 3 121 69 10 44 34 68 51 85 75 109 92 126 116 22 98 39 29 63 53 80 70 104 94 121 111 17 7 83 24 58 48 82 65 99 89 123 106 12 2 36 26 53 43 77 67 94 84 118 108 56 125 31 21 55 38 72 62 96 79 113 103 9 85 26 16 50 40 67 57 91 81 108 98 4 122 28 11 45 35 69 52 86 76 110 58 127 117 23 13 40 30 64 54 81 71 105 95 43 112 18 8 42 25 98 81 29 98 88 122 112 60 1 35 25 101 42 76 66 100 83 117 107 13 89 30 20
54 2 71 61 95 85 33 102 8 126 74 15 49 39 115 56 90 80 114 62 3 121 27 103 44 34 68 16 85 75 109 99 47 116 22 12 88 29 63 53 87 35 104 94 0 76 86 66 63 56 2 13 13 124 72 13 3 37 113 54 44 78 68 95 85 119 109 57 126 32 22 98 39 73 63 97 80 114 104 10 86 27 17 51 41 68 58 92 82 30 99 5 123 71 12 46 36 70 53 87 77 111 59 0 118 24 100 41 31 65 55 82 72 106 96 44 113 19 9 85 26 60 50 84 67 101 91 125 73 14 4 38 28 55 45 79 69 17 86 120 110 58 127 33 23 57 40 74 64 98 46 115 105
11 87 28 18 52 42 69 59 93 83 57 18 124 39 23 103 1 123 113 25 58 1 66 63 10 6 51 95 87 100 28 11 87 28 18 52 0 69 59 93 83 110 100 6 124 72 13 47 37 113 54 88 78 112 95 1 119 25 101 42 32 66 14 83 73 107 97 45 114 20 10 86 27 94 106 5 2 40 6 61 95 113 103 9 85 26 16 50 126 67 57 91 39 29 98 4 122 70 11 45 35 111 17 86 76 24 58 127 117 66 74 93 76 24 14 48 117 107 55 89 30 20 96 2 71 61 9 43 33 102 8 84 74 15 49 125 115 56 90 80 28 62 3 121 69 103 44 34 110 16 6 75 109
57 47 116 77 60 50 77 67 101 91 39 108 14 4 38 21 45 28 18 45 35 69 59 7 76 110 100 48 117 23 13 47 123 64 54 88 36 105 95 1 77 18 8 42 32 108 49 83 73 21 90 124 114 62 3 37 27 61 9 78 68 102 50 119 109 15 5 32 22 56 46 122 63 97 87 35 104 10 0 34 110 51 41 75 23 92 82 116 64 5 123 29 19 7 88 9 91 21 17 107 13 92 2 107 61 84 4 103 7 119 89 56 39 29 63 11 80 70 104 94 65 97 87 22 21 10 121 69 59 0 34 110 100 41 75 65 13 82 116 106 54 88 29 19 95 1 70 60 94 42 111 101 7
83 45 119 100 66 96 89 62 98 122 30 5 116 64 54 123 29 105 95 36 70 18 8 42 107 29 118 79 94 102 23 65 53 13 58 62 28 18 75 99 38 107 110 92 105 126 84 67 57 5 74 108 98 46 115 21 11 66 104 63 2 30 54 35 18 8 84 25 59 49 83 31 100 90 124 72 13 3 37 27 54 44 78 68 16 85 119 109 57 126 32 22 56 4 73 63 97 45 114 104 10 86 83 72 20 32 99 40 74 22 12 81 115 105 53 122 28 18 94 0 69 59 93 41 110 100 6 82 23 13 47 123 113 54 88 78 26 95 1 119 67 101 42 32 108 14 83 73 107 55 124 114 20
96 86 27 61 51 127 68 102 92 40 109 15 5 81 115 56 46 80 28 97 87 121 69 59 0 34 110 100 41 75 65 13 82 116 106 54 88 62 45 35 111 52 86 76 110 93 127 117 23 99 40 30 64 12 81 71 105 95 122 112 18 8 84 25 59 49 83 66 100 90 124 72 13 3 37 113 54 44 78 68 95 85 119 109 57 126 32 22 98 39 73 63 97 80 114 104 10 86 27 17 51 41 68 58 92 82 30 99 5 123 71 12 46 36 70 53 87 77 111 59 0 118 24 100 41 31 65 55 82 72 106 96 44 113 23 4 26 7 118 108 14 125 31 21 55 3 72 62 96 44 113 103 9
127 75 16 50 40 116 57 91 81 29 98 4 122 28 104 45 35 69 17 86 76 110 100 127 117 23 13 89 30 64 54 2 71 105 95 1 77 18 8 42 118 59 49 83 31 100 90 124 114 62 3 97 115 48 118 63 46 122 63 53 87 77 25 94 0 118 66 7 41 31 65 48 82 72 106 54 123 113 19 95 36 26 60 50 126 67 101 91 70 75 2 118 36 123 106 0 74 11 18 56 29 80 27 35 28 80 26 125 68 25 84 44 86 31 81 19 46 39 33 25 1 40 97 122 63 97 87 35 104 10 0 34 110 51 41 75 23 92 82 116 64 5 123 29 19 95 36 70 60 8 77 111 101
7 118 24 14 48 124 65 55 89 37 106 96 2 120 68 9 43 33 109 50 84 74 92 68 58 92 82 14 50 81 69 127 67 50 126 116 57 91 39 29 63 4 80 70 104 45 35 111 17 7 76 24 58 48 117 65 99 89 30 64 12 2 36 105 53 43 77 18 94 84 118 59 49 125 31 103 0 11 105 20 68 51 127 117 58 92 40 30 64 5 123 71 105 46 36 112 18 8 77 25 59 49 118 24 100 90 31 65 13 3 37 106 96 44 78 19 9 85 119 60 50 126 32 22 91 125 73 63 4 38 114 104 10 79 27 17 51 120 110 58 92 33 23 18 9 74 99 24 101 19 17 59 100
29 43 105 47 76 114 57 109 99 11 123 20 54 44 113 19 95 85 119 60 8 126 32 101 91 39 73 63 4 80 114 104 45 121 27 17 86 120 68 58 92 15 114 25 117 127 84 67 15 84 74 108 56 46 115 95 6 53 120 76 6 96 107 86 65 95 113 118 99 110 44 114 16 64 95 122 65 63 21 123 67 50 40 74 57 91 81 115 63 4 122 28 104 45 35 69 59 86 76 110 100 48 117 23 13 89 30 64 54 88 36 105 95 1 77 18 8 42 118 59 49 83 73 21 90 124 114 62 3 37 27 61 44 78 68 102 50 119 109 15 91 32 22 56 46 48 31 21 55 3 72 62 96
44 113 103 9 127 75 16 50 40 116 57 91 81 115 98 4 122 28 104 45 35 69 17 86 76 110 100 127 117 23 13 89 30 64 54 2 71 105 95 1 77 18 8 42 118 59 49 83 31 100 90 1 66 5 74 108 56 46 115 21 97 87 28 62 52 0 34 103 93 41 75 16 6 82 116 57 47 81 29 19 88 122 70 60 1 35 25 101 7 76 66 14 48 117 107 55 89 30 20 54 2 120 61 95 43 33 102 8 84 74 15 49 39 115 21 66 19 62 104 63 97 12 39 64 5 39 29 105 46 80 70 18 87 121 111 17 93 34 24 58 6 75 65 99 47 116 106 12 2 78 19 53 43
119 60 94 84 118 101 7 125 31 107 48 38 72 20 89 79 113 103 51 120 26 16 40 47 85 29 113 3 121 69 103 93 34 68 16 6 75 109 57 47 116 22 98 88 122 63 53 1 35 104 94 42 76 66 7 16 79 18 87 121 111 59 0 34 24 100 6 75 65 13 47 86 66 59 0 76 109 78 65 80 54 58 44 3 3 29 80 95 117 89 67 84 93 108 91 81 115 98 4 122 28 104 45 35 69 17 86 76 110 100 127 117 23 13 89 30 64 54 88 71 105 95 1 112 18 8 42 118 59 49 83 73 100 90 124 114 62 3 37 27 103 44 78 68 102 85 119 109 15 91 32 22 56
46 73 63 97 87 114 104 10 0 76 17 51 41 75 58 92 82 116 99 5 123 29 105 46 36 70 60 87 77 111 101 49 118 24 14 90 31 65 55 89 72 106 96 2 78 19 9 43 33 60 50 84 74 101 91 125 115 63 4 87 126 65 6 40 116 106 47 81 29 19 53 122 70 60 94 35 25 101 7 125 66 14 48 38 107 13 89 79 20 54 2 120 26 95 43 33 67 8 126 74 108 49 39 115 21 11 80 4 12 19 85 68 16 6 40 109 99 47 81 22 12 88 122 63 53 87 35 25 94 0 76 66 7 41 117 107 48 77 60 50 126 67 101 91 125 108 14 4 38 21 55 45 79
27 96 86 120 110 9 127 33 23 99 40 89 108 68 68 123 103 2 104 75 58 6 124 65 99 47 37 106 12 2 78 19 53 43 119 25 94 84 32 66 7 125 31 107 97 38 72 20 10 79 113 61 51 120 26 16 92 126 67 57 5 39 108 98 46 80 21 11 45 121 111 52 86 34 24 93 127 117 65 6 40 30 106 12 81 71 19 53 122 112 18 94 84 25 59 7 116 39 28 95 1 70 18 8 42 32 101 49 83 73 14 90 124 114 55 89 37 27 61 2 78 68 102 43 119 109 15 5 74 22 56 46 115 63 97 122 20 124 8 75 109 50 126 116 22 91 39 29 63 4 122 70 104
94 35 111 17 7 76 24 58 48 117 23 99 89 123 64 12 17 0 111 17 7 41 117 58 48 82 72 99 89 123 113 12 2 36 26 102 43 77 67 101 84 118 108 14 125 31 21 94 88 108 60 108 30 66 71 6 22 127 43 78 90 4 45 73 53 49 69 37 60 121 37 36 48 103 23 51 86 101 49 127 93 17 45 111 1 119 25 101 42 32 66 14 83 73 107 97 45 114 20 10 86 27 61 51 127 33 102 92 126 74 15 5 39 115 56 46 80 28 18 87 121 111 59 0 34 24 100 41 75 65 13 47 116 106 12 88 29 19 53 1 119 60 94 84 32 101 7 125 73 14 48 38 114
20 89 79 113 61 2 120 77 60 43 77 67 101 49 118 108 14 90 31 21 55 45 72 62 96 86 34 103 9 127 75 16 50 40 74 22 91 81 115 63 4 122 28 18 45 35 69 59 7 76 110 100 48 117 23 13 47 30 64 54 88 36 105 95 1 77 18 8 42 32 108 49 83 73 21 90 124 114 20 3 37 27 61 9 78 68 102 50 119 109 15 5 32 22 56 46 122 63 97 87 35 104 10 0 34 17 51 41 75 23 92 82 116 64 5 123 14 94 102 126 109 99 47 116 22 12 88 29 63 53 1 35 104 94 0 76 17 7 41 117 58 48 82 30 20 89 123 113 61 2 36 26 102
43 77 67 101 49 118 108 14 90 31 21 55 3 121 62 96 86 34 103 9 127 75 16 50 40 116 22 29 18 78 89 16 6 19 105 81 19 2 120 68 9 43 33 67 50 84 74 108 56 125 115 21 97 17 89 58 10 51 90 79 62 10 79 69 103 93 120 110 16 6 33 23 57 47 123 64 98 88 122 105 11 1 35 18 52 42 76 66 93 83 117 107 6 124 30 20 96 37 71 61 95 78 112 102 8 119 25 15 49 125 66 56 90 80 107 97 3 121 20 10 44 34 68 51 85 75 31 49 39 73 63 11 80 114 104 52 121 27 17 93 34 68 58 92 40 109 99 5 81 22 12 46 122
63 53 87 77 25 94 0 118 66 7 41 31 65 48 82 72 106 54 123 113 19 95 36 26 60 50 126 67 101 91 39 108 14 4 80 21 55 45 79 27 96 86 120 68 9 127 33 109 50 40 90 73 21 90 80 114 62 3 121 27 17 93 34 68 58 6 75 109 99 47 116 22 12 46 122 63 53 87 35 104 94 0 118 17 7 41 31 107 48 82 72 20 89 123 113 19 2 36 26 60 8 109 3 28 62 3 121 27 103 93 34 68 16 43 61 51 85 75 102 92 126 116 64 5 39 29 105 46 80 70 104 87 121 111 17 93 34 24 58 48 75 65 99 89 37 106 12 2 78 19 53 43 77
60 94 84 118 66 7 125 31 107 48 38 72 62 89 79 113 103 51 120 26 16 92 33 67 57 91 74 108 98 4 80 21 11 45 35 62 52 86 76 24 93 67 59 33 9 0 24 7 118 24 14 48 124 65 55 89 37 106 96 2 120 19 9 43 33 109 50 84 74 108 91 125 115 21 97 38 28 62 10 79 69 103 93 120 110 16 6 82 23 57 47 123 64 98 88 122 105 11 1 35 111 52 42 76 66 93 83 117 107 6 124 30 20 96 37 71 61 95 78 112 102 8 84 25 15 49 125 66 56 90 80 107 97 3 121 69 10 44 34 110 51 85 75 109 92 126 116 22 98 41 24 14 90
31 65 55 89 72 106 96 2 78 19 9 43 119 60 50 84 74 22 91 125 115 63 4 38 28 104 45 79 69 103 51 120 110 16 92 33 23 57 47 74 64 98 88 36 105 11 1 77 18 52 42 76 24 93 83 117 65 6 124 30 106 47 37 71 61 9 78 112 102 50 119 25 15 49 32 91 14 97 16 122 2 27 41 59 49 83 31 100 90 124 72 62 3 37 27 103 44 78 68 16 50 119 109 57 91 32 22 56 4 73 63 97 45 35 104 10 86 76 17 51 41 117 58 92 82 30 64 5 123 29 105 46 36 70 18 8 77 111 59 49 118 24 14 90 31 65 55 3 37 106 96 44 78
72 79 47 33 28 121 124 11 73 6 93 127 102 41 95 43 98 83 115 12 46 36 105 53 87 77 18 94 0 118 24 93 41 31 65 6 82 72 106 47 123 113 19 9 78 127 101 86 62 124 123 122 109 30 98 38 118 36 92 50 45 1 64 47 37 113 54 88 78 112 95 1 119 25 8 42 32 66 14 83 73 107 97 124 114 20 10 37 27 61 51 85 68 102 92 126 109 15 5 39 22 56 46 80 70 97 87 121 111 10 0 34 24 100 41 75 65 33 51 41 75 23 92 82 116 106 54 123 29 19 95 36 70 60 8 77 111 101 68 27 45 35 111 17 86 76 110 58 48 117 23 99 89
30 64 12 2 71 105 95 43 77 18 8 84 118 59 49 125 31 100 90 124 72 62 3 37 113 103 44 78 26 16 85 119 109 57 91 32 22 98 4 73 63 97 45 35 104 10 86 76 17 51 127 117 58 92 82 30 64 5 123 71 105 81 64 54 88 71 105 95 1 77 18 8 42 32 59 49 83 73 21 90 124 114 62 3 37 27 61 44 78 68 102 50 119 109 15 91 32 22 56 46 73 63 97 87 35 104 10 0 34 17 51 41 75 58 92 82 116 64 5 123 29 19 46 36 70 60 8 77 111 101 49 118 24 14 48 31 13 23 6 82 23 13 47 123 64 54 88 78 105 95 1 119 67
8 42 32 108 49 83 73 107 90 124 114 20 96 37 27 61 9 78 68 102 92 40 109 15 5 81 22 56 46 122 63 97 87 121 69 10 0 34 110 51 41 105 20 115 88 69 110 64 78 14 69 24 59 98 64 97 21 70 111 12 124 28 2 95 21 3 72 51 76 110 51 41 75 23 92 82 116 64 5 123 29 105 95 36 70 60 8 77 111 101 43 19 9 43 33 109 50 84 74 108 91 125 115 21 97 38 28 62 10 79 69 103 93 120 110 16 6 82 23 57 47 123 64 98 88 122 105 11 1 35 111 52 42 76 24 93 83 117 107 55 124 30 20 96 37 71 61 95 78 112 102 8 84
25 15 49 125 66 56 90 80 107 97 3 121 69 10 44 34 16 34 24 58 48 75 65 99 89 37 106 12 2 78 19 53 43 77 25 94 84 118 66 7 125 31 107 48 38 72 62 10 79 113 103 51 120 26 16 50 33 67 57 91 39 108 98 4 80 21 11 45 35 111 52 86 76 24 93 127 117 65 6 40 30 64 12 81 71 105 53 122 112 18 8 35 25 69 106 33 76 59 49 83 66 100 90 124 107 13 3 37 113 54 44 78 68 95 85 119 109 57 126 32 22 56 39 73 63 97 80 114 104 10 86 27 17 51 41 68 58 92 82 109 99 5 123 71 12 46 36 70 53 87 77 111 59
0 118 24 100 41 31 65 55 82 72 106 96 44 113 19 9 43 26 60 50 84 67 101 91 125 73 14 4 38 28 55 45 79 69 96 86 120 110 58 127 33 23 57 40 74 64 98 46 4 115 105 53 122 28 18 94 35 69 59 93 41 110 100 6 82 23 13 47 123 64 54 88 78 26 95 1 119 67 8 70 10 23 68 25 120 69 111 37 6 117 65 6 124 30 20 96 37 71 61 9 78 112 102 8 119 25 15 49 125 66 56 90 38 107 97 3 121 20 10 44 34 110 51 80 67 45 22 96 86 111 17 86 76 24 58 127 117 65 99 40 30 64 12 2 71 105 53 43 112 18 94 84 25
59 49 125 31 100 90 38 72 13 3 37 113 103 44 78 26 16 85 119 67 57 126 32 22 98 4 73 63 11 45 114 104 52 86 27 17 51 127 117 58 92 40 30 99 5 81 71 12 9 125 88 44 62 52 86 34 103 93 127 117 65 6 40 30 62 36 54 114 22 40 30 64 12 2 71 105 53 43 112 18 8 84 25 59 49 125 31 100 90 124 72 13 3 37 113 54 44 78 26 16 85 119 109 57 126 32 22 98 4 73 63 11 45 114 104 10 86 27 17 51 127 117 58 92 82 30 99 5 123 71 12 46 36 112 18 87 77 111 59 0 118 24 100 90 31 65 13 3 72 106 96 44 113
19 9 85 119 60 50 126 32 101 91 117 97 29 12 2 78 112 53 43 77 25 94 84 118 66 7 125 31 21 97 38 72 62 10 79 113 103 51 85 26 16 50 126 67 57 91 39 108 98 4 80 70 11 45 35 111 52 86 76 24 93 127 117 65 99 40 30 64 12 81 71 105 53 43 112 18 8 82 70 78 79 65 83 73 21 55 45 114 20 96 86 27 61 9 127 68 102 50 40 74 15 5 81 115 56 46 122 28 97 87 121 69 23 46 49 68 36 21 42 79 76 27 32 36 61 95 36 26 102 8 77 67 15 49 39 108 14 90 80 21 83 45 18 47 30 126 5 113 13 72 86 56 74
64 98 88 112 15 46 29 19 46 36 70 60 87 77 111 101 49 118 24 14 48 31 65 55 89 72 106 96 2 78 19 9 43 33 60 50 84 74 101 91 18 1 77 18 8 42 118 59 49 83 73 21 90 124 114 62 3 37 27 103 44 78 68 102 50 119 109 15 91 32 22 56 4 73 63 97 87 35 104 10 0 76 17 51 41 75 23 92 82 116 64 5 123 29 105 46 36 70 60 8 77 111 101 49 118 118 30 97 38 72 20 10 44 113 103 51 85 26 16 92 126 67 57 5 39 29 98 4 80 70 11 45 121 111 17 86 34 24 58 127 117 65 99 40 30 106 12 2 71 19 53 43 112
18 94 84 25 59 7 125 31 100 90 38 72 75 77 42 85 39 100 41 28 38 56 46 122 28 97 87 35 69 59 0 34 110 100 41 75 23 13 82 116 64 54 88 29 19 95 1 70 60 8 42 111 101 49 83 73 14 48 124 119 37 20 10 86 120 61 51 85 33 102 92 126 74 15 5 39 115 105 46 80 70 18 87 42 25 15 42 32 66 56 4 73 107 97 45 114 20 10 44 27 61 51 85 33 102 92 126 116 15 5 39 29 105 46 80 70 18 87 121 111 17 0 34 24 58 6 75 65 99 47 116 106 12 2 29 19 53 43 119 60 94 84 32 101 7 125 31 107 48 38 72 20 89
79 113 103 2 120 26 16 92 33 67 57 5 74 108 98 4 115 21 11 42 76 56 39 29 105 46 80 70 18 87 121 111 17 93 34 24 58 6 75 65 99 47 37 106 12 2 78 19 53 43 4 30 29 84 48 43 104 120 12 26 90 88 109 40 72 103 104 106 126 98 71 122 10 96 52 55 33 56 108 30 4 21 94 85 26 79 114 11 45 35 69 10 86 76 110 51 127 79 119 41 24 14 90 124 65 55 3 37 106 96 2 78 19 9 43 119 109 50 84 32 22 91 125 115 63 97 38 28 111 62 74 6 76 14 118 101 91 39 73 14 4 38 114 55 45 79 27 96 86 120 68 58 127
33 23 99 40 74 64 12 46 115 105 11 87 28 18 52 0 69 59 93 41 31 100 6 124 72 13 47 37 113 54 88 78 123 20 89 123 113 61 2 36 26 60 43 77 67 101 49 118 108 14 90 31 21 55 45 121 62 96 86 34 103 9 127 33 16 50 40 2 119 109 54 117 0 20 100 49 123 86 55 81 0 25 94 0 118 24 7 41 31 65 13 82 72 106 54 123 113 19 9 36 26 60 50 126 67 101 91 39 108 14 4 38 21 55 45 79 27 96 86 120 110 9 127 33 23 50 40 74 64 12 81 115 105 11 122 28 18 52 0 69 59 93 41 110 100 6 124 23 13 47 37 113 54
88 78 26 95 1 119 25 8 42 32 66 14 83 73 107 97 124 114 52 59 97 84 117 98 37 64 54 88 78 19 95 1 119 25 8 42 32 66 82 64 16 45 51 50 123 40 94 17 42 76 66 7 41 117 107 48 82 30 20 54 123 71 61 95 36 26 102 8 126 67 15 49 39 108 56 90 80 21 55 3 121 27 96 44 34 68 9 85 75 109 50 40 116 22 3 39 29 47 49 125 30 13 89 79 20 127 82 124 42 87 3 85 77 102 8 126 32 15 49 39 73 14 90 80 114 55 3 121 27 17 44 90 101 83 48 85 120 120 9 76 127 42 6 6 10 97 28 46 99 16 1 31 74
17 121 35 17 122 1 6 92 15 126 90 109 77 60 50 126 67 101 91 125 108 14 4 38 114 55 45 79 27 96 86 120 110 9 127 33 23 99 40 74 64 98 81 115 105 11 87 28 18 52 0 69 59 93 83 57 40 30 64 12 81 71 105 53 122 112 18 8 35 25 59 49 125 66 100 90 38 107 13 3 37 113 54 44 78 26 95 85 119 67 8 126 32 22 98 39 73 63 11 80 114 104 10 121 27 17 51 127 68 58 92 40 109 99 5 123 22 12 101 16 24 26 91 22 48 105 104 50 56 27 114 64 118 98 25 88 113 85 103 34 36 7 73 66 74 81 41 55 97 12 62 80 70
104 94 42 111 118 87 22 69 90 44 32 80 10 101 126 32 101 91 39 73 14 4 80 114 104 45 79 27 17 86 120 68 58 127 33 109 99 5 74 64 12 46 115 105 53 87 28 18 52 0 118 59 93 41 31 100 6 82 72 106 47 37 113 19 88 78 26 60 1 119 67 101 18 122 19 79 88 102 55 9 0 4 98 91 41 63 68 70 70 125 95 7 77 60 8 77 67 101 49 118 108 14 4 31 21 55 45 121 62 96 86 120 103 9 127 33 16 50 40 74 22 91 81 115 105 4 122 28 18 45 35 69 59 95 4 115 4 26 33 36 120 65 94 20 91 115 51 75 30 46 125 15 72
11 45 35 104 52 86 76 17 93 127 117 58 6 40 30 64 5 81 71 105 46 122 112 18 8 77 21 73 98 34 20 11 78 19 95 1 119 25 8 42 32 66 7 83 73 107 48 124 114 20 10 37 27 61 114 40 80 36 23 36 97 22 13 80 21 55 3 124 57 60 28 95 1 70 60 8 42 111 101 49 83 24 14 90 124 114 55 89 37 27 96 2 78 68 9 43 33 109 15 84 74 22 56 125 115 63 97 46 108 59 42 118 59 49 83 31 100 90 124 72 62 3 37 27 103 44 78 68 76 4 60 115 62 41 101 107 124 107 90 124 114 20 3 37 27 61 9 78 68 102 92 119 109
15 5 81 22 56 46 122 63 97 87 121 104 10 0 34 110 51 41 75 65 92 82 116 106 5 123 29 19 95 36 70 60 94 77 111 101 7 118 24 14 48 124 65 55 89 79 106 96 2 120 68 9 43 33 67 50 84 74 108 91 125 115 21 97 38 28 62 52 79 69 103 93 120 110 16 6 82 23 57 47 81 64 98 88 122 70 11 1 35 111 52 42 122 117 29 12 2 78 112 53 43 119 25 94 84 32 66 7 125 31 107 97 38 72 20 10 79 113 61 51 120 26 16 92 126 67 57 5 39 108 98 46 80 70 11 45 121 111 52 86 34 24 93 127 117 65 99 40 30 106 12 81 71
19 53 122 112 18 94 84 25 109 80 118 49 32 108 98 4 73 21 11 45 114 104 52 86 27 17 93 127 117 58 6 40 30 99 49 44 119 125 35 46 14 5 104 113 111 8 77 111 101 7 118 24 14 48 124 65 55 89 79 106 96 2 120 68 9 43 33 109 50 84 74 108 91 125 115 21 97 38 28 62 10 79 69 103 93 120 110 69 106 45 114 20 10 86 27 61 51 127 33 102 92 40 74 15 5 39 115 56 46 80 28 18 87 121 69 59 0 34 24 100 41 75 65 13 47 116 106 12 88 29 19 11 117 7 125 72 75 76 94 84 118 66 7 125 31 107 97 38 72 62 10 79 113
103 51 120 26 16 92 126 67 57 91 39 108 98 4 80 21 11 45 121 111 52 86 76 24 93 127 117 65 99 40 30 64 12 81 71 105 53 122 112 18 94 84 25 59 49 125 66 100 90 38 107 13 3 79 113 54 44 78 26 95 85 99 82 65 99 89 123 71 12 2 36 26 53 43 77 67 15 84 118 108 56 125 31 21 55 38 72 62 96 44 15 62 42 123 1 89 1 59 18 76 127 39 35 86 45 51 53 71 61 95 43 33 102 8 84 74 15 49 39 115 56 90 80 28 62 3 121 69 103 44 34 68 16 85 75 109 57 47 116 22 98 88 29 63 53 1 70 104 94 42 76 17 7
83 117 58 48 82 30 20 89 123 71 61 2 36 26 102 43 77 67 15 49 118 108 56 90 31 21 55 3 72 62 96 44 34 103 9 85 41 17 7 41 31 58 48 82 72 20 89 123 113 19 2 36 26 60 8 77 67 101 49 118 108 14 4 31 21 55 45 121 62 96 86 34 103 9 127 33 16 50 40 74 22 91 81 115 105 109 32 42 56 3 124 61 81 126 127 32 16 48 66 56 90 38 28 97 3 121 69 10 44 34 110 51 85 75 23 57 126 116 22 98 39 29 63 11 80 70 104 94 42 111 17 7 83 24 58 48 124 30 99 89 123 71 12 2 36 112 53 43 77 25 15 84 118
108 56 125 31 21 97 38 72 62 10 44 113 103 9 85 26 16 50 126 116 57 91 81 29 98 4 122 70 11 45 35 111 17 86 76 110 58 127 117 23 99 80 7 114 8 33 102 8 126 74 15 49 39 73 56 90 80 114 62 3 121 27 17 44 34 68 58 6 75 57 126 118 49 16 114 5 119 63 95 105 0 7 126 116 29 88 59 21 70 83 69 72 11 45 114 62 52 86 27 103 93 127 117 58 6 40 30 99 47 81 95 112 7 47 30 106 59 105 10 47 66 113 111 101 120 43 93 68 122 21 65 40 100 127 82 107 13 82 72 20 54 44 113 61 95 85 26 60 8 126 32 101 49
39 73 14 90 80 114 55 45 121 27 17 86 34 68 58 127 33 109 99 40 34 17 7 83 24 58 48 82 65 99 89 123 71 12 2 36 26 53 43 77 67 94 84 118 108 56 125 31 21 55 38 72 62 96 79 113 103 9 85 26 16 50 40 67 57 91 81 108 98 4 122 70 11 45 35 69 52 86 76 110 58 127 117 23 13 40 30 64 54 81 71 105 95 43 112 18 8 42 25 59 49 83 66 100 90 124 72 13 3 37 27 54 44 6 62 80 84 97 21 47 19 24 22 42 40 105 88 36 26 95 1 119 67 8 42 32 108 49 83 73 21 55 124 114 20 96 37 27 61 9 78 68 102
 