P2
123 119
255
57 98 71 61 103 107 12 10 64 26 91 74 64 98 46 115 105 66 10 29 42 104 50 35 47 58 51 12 41 35 32 70 75 19 86 120 110 9 121 101 40 109 15 91 81 22 56 4 122 28 97 87 45 127 118 125 84 109 50 84 74 22 56 125 115 21 97 38 28 62 10 79 69 103 93 41 110 16 6 82 23 57 47 123 29 98 88 122 70 11 1 35 111 52 42 76 24 14 83 117 107 55 124 30 20 96 37 71 61 95 43 112 102 8 84 25 15 49 125 115 56 90 80
28 97 3 121 69 10 44 34 110 16 85 75 109 57 126 116 22 98 117 100 90 124 72 13 3 37 113 54 44 78 68 95 85 119 109 57 126 32 22 98 39 73 63 97 45 114 104 10 86 27 17 51 41 68 58 92 82 30 99 5 123 71 12 46 36 70 53 87 77 111 59 0 118 24 100 41 31 65 55 3 72 106 96 44 113 19 9 43 26 2 38 38 28 59 89 120 67 90 106 0 11 97 47 78 17 114 28 54 78 5 48 31 107 97 38 72 62 10 44 113 103 51 85
26 16 92 126 116 57 91 39 29 98 4 80 70 11 45 121 111 17 86 76 24 58 29 118 47 124 20 102 19 113 52 121 27 17 93 34 68 58 17 110 122 112 29 113 44 61 119 119 0 111 101 49 83 24 14 90 124 65 55 89 37 106 96 2 78 68 9 43 33 109 50 84 74 22 91 125 115 121 18 87 121 111 17 0 34 24 58 6 75 65 99 47 116 106 12 2 29 19 53 43 119 60 94 84 32 101 7 125 8 112 102 68 11 72 120 16 101 99 116 124 20 118 8
126 32 108 98 39 73 21 11 80 114 104 52 86 27 17 93 127 68 58 6 40 109 99 5 81 71 12 46 122 112 53 87 77 25 94 0 118 66 100 41 31 107 13 82 72 106 54 44 113 19 95 85 26 60 8 126 67 101 91 39 73 14 4 80 114 55 45 121 27 96 86 120 68 58 127 33 109 99 40 108 107 87 96 80 41 90 2 55 27 28 54 36 118 42 35 39 29 89 40 118 32 85 64 95 4 107 119 30 14 57 111 97 42 101 84 74 108 91 125 115 21 97 38
28 62 10 79 69 103 93 41 110 16 6 82 23 57 47 123 64 98 88 122 70 11 1 35 111 52 42 76 66 93 83 117 107 55 124 30 20 96 37 71 61 95 78 112 102 8 84 25 15 49 125 66 56 90 80 28 97 3 121 69 10 44 34 110 51 85 75 109 57 126 116 22 98 108 91 81 115 98 4 122 28 104 45 35 69 17 86 76 110 100 48 117 86 20 60 85 121 122 105 88 122 112 18 94 35 25 59 7 76 66 100 90 117 107 13 3 79 20 54 44 78 61 95
85 119 102 8 126 32 108 49 39 73 63 90 80 114 104 52 121 27 17 93 34 68 58 92 75 109 99 5 81 22 12 46 36 63 53 87 77 104 94 0 118 66 7 41 31 65 48 82 72 106 54 123 113 19 95 36 26 60 50 77 67 101 91 39 108 14 4 80 21 55 45 79 62 96 86 120 68 9 127 33 23 71 111 33 85 0 83 97 125 64 102 9 67 80 75 41 106 54 105 74 31 83 27 5 12 61 116 44 27 103 93 127 68 58 6 40 49 32 22 56 39 73 63
97 45 114 104 10 0 27 17 51 41 117 58 92 82 30 99 5 123 29 12 46 36 70 18 87 77 111 101 0 118 24 14 41 31 65 55 3 72 106 96 2 113 19 9 43 26 60 50 84 32 101 91 125 115 14 4 38 28 104 45 79 69 17 86 120 110 16 127 33 23 57 5 74 64 98 88 115 105 11 1 28 18 52 42 118 59 93 83 117 100 6 124 30 13 47 37 71 19 88 78 112 102 1 119 25 15 91 32 66 56 90 73 17 74 6 39 122 51 49 113 81 127 39
75 96 85 111 54 72 62 96 86 34 103 9 127 75 16 35 99 6 9 27 103 93 127 68 58 6 40 109 99 47 81 71 12 46 122 52 36 68 116 22 74 6 61 21 28 46 36 112 18 87 77 111 59 0 118 24 100 90 31 65 13 3 72 106 96 44 78 19 9 85 119 60 50 126 32 101 91 125 73 63 4 38 114 104 45 79 69 17 86 120 110 58 92 33 23 99 5 74 64 98 46 36 105 11 87 77 18 52 0 118 59 93 83 31 65 22 47 53 63 96 55 104 4
112 30 73 91 62 58 79 68 107 109 13 38 72 13 3 37 113 103 44 78 26 16 85 119 67 57 91 32 22 98 4 73 63 11 45 114 104 88 71 19 88 78 112 102 1 119 25 15 42 32 66 56 4 73 107 97 3 114 20 10 44 120 61 51 85 33 102 92 126 116 15 5 39 29 105 46 80 70 104 87 121 111 17 0 34 24 58 6 75 65 99 89 116 106 12 2 29 19 53 43 119 60 94 84 118 101 7 125 31 107 48 38 72 20 89 79 113 103 2 120 26 16 92
33 67 57 91 74 108 98 4 115 21 11 45 121 62 52 86 76 103 93 127 117 65 6 40 30 13 100 9 121 34 122 116 82 64 100 67 22 60 36 23 85 125 108 91 125 115 21 97 38 28 62 52 79 69 103 93 120 110 16 6 82 23 57 47 81 64 98 88 122 70 11 1 35 111 52 42 102 66 121 100 28 60 27 103 86 34 24 93 127 117 65 6 40 30 106 12 81 71 19 53 122 112 18 94 84 25 59 7 125 66 100 90 38 107 13 3 111 125 5 44 59 95 28
11 1 77 18 52 42 76 24 93 83 117 65 6 124 30 106 47 37 71 61 9 78 112 102 50 119 25 15 49 125 66 56 90 38 107 97 3 79 20 10 44 34 110 51 85 75 23 92 126 116 64 5 39 29 63 11 80 70 104 52 121 111 17 93 83 24 58 48 124 65 99 89 37 106 12 2 36 112 53 43 77 25 94 84 118 66 7 125 76 59 7 76 66 100 48 117 107 13 3 30 20 54 44 120 61 95 85 33 102 8 126 32 108 49 39 73 21 90 80 114 104 3 121
27 17 93 34 68 58 6 75 109 99 5 116 22 12 46 122 63 53 87 35 104 94 106 92 56 35 6 29 116 46 9 85 52 70 60 94 42 32 101 7 83 73 14 48 124 114 55 89 79 27 61 2 120 68 102 43 33 67 15 84 74 108 56 46 115 21 97 87 28 62 52 0 34 75 40 65 99 40 30 106 12 81 71 105 53 43 112 18 94 84 25 59 7 125 66 100 90 38 72 13 3 79 113 54 44 120 26 95 85 119 67 57 126 32 108 98 39 73 21 11 45 114 104
52 86 27 17 93 127 68 58 127 74 32 6 121 104 87 70 104 94 0 111 17 7 41 31 58 48 65 72 39 79 79 41 127 52 56 38 87 36 23 62 38 19 15 126 74 64 5 39 115 105 46 80 28 18 87 121 111 59 93 34 24 100 6 75 65 13 47 116 106 12 88 78 19 53 1 119 60 94 42 32 66 7 125 73 107 48 38 114 20 89 79 113 61 51 120 26 102 92 33 67 15 5 74 108 98 46 80 21 11 87 121 62 52 0 34 47 71 54 2 120 61 95 85
33 102 8 126 74 108 49 39 115 21 90 80 114 62 3 121 27 103 93 34 68 16 6 75 109 99 47 116 22 12 88 122 63 53 87 35 104 94 0 76 66 7 41 117 107 48 82 72 20 89 123 113 61 95 36 26 102 8 77 67 101 49 118 108 14 90 80 21 55 3 121 62 96 86 34 68 9 127 75 109 50 40 74 22 124 23 127 98 20 99 64 35 37 12 36 32 58 126 23 77 44 6 64 56 66 3 27 43 73 7 50 74 54 71 104 117 10 94 33 102 50 84 74
108 91 125 115 21 127 22 110 43 53 42 108 0 3 14 2 31 6 5 109 92 40 109 99 5 123 71 12 46 36 112 53 87 77 25 59 0 118 24 100 41 31 65 13 82 72 106 96 44 113 19 9 85 26 60 50 126 67 101 91 125 73 14 4 38 114 55 45 79 27 96 86 120 110 58 127 33 23 99 40 74 64 60 60 62 94 99 48 123 83 97 115 25 8 126 74 108 49 39 73 21 90 80 114 62 3 121 63 19 55 83 66 14 4 73 107 55 45 114 20 10 86 120
61 51 127 33 102 92 40 74 64 5 39 115 105 46 80 28 18 87 124 1 68 102 43 33 109 15 84 74 22 56 125 115 21 97 87 28 62 10 0 69 103 51 41 75 16 6 82 116 57 47 123 29 98 88 36 70 60 1 35 111 18 16 11 6 31 100 6 124 119 16 85 119 109 57 126 32 22 56 39 73 63 97 45 114 104 10 0 27 17 51 41 117 58 92 82 30 99 5 123 29 12 46 36 70 18 87 77 111 59 0 118 24 14 41 31 65 55 3 72 106 96 2 113
19 9 105 10 59 42 118 108 49 83 73 21 90 124 114 62 96 37 27 61 9 78 68 102 50 119 109 15 91 81 22 56 46 122 63 97 87 35 104 73 56 46 122 63 97 87 121 104 10 0 34 110 51 41 75 23 92 82 116 106 5 123 29 19 95 36 70 60 8 77 111 101 7 118 24 14 48 124 65 55 89 37 106 96 2 120 68 9 43 33 109 50 84 74 108 91 125 115 21 97 38 28 62 10 79 69 103 93 120 110 16 6 82 23 57 47 123 64 98 88 122 105 11
1 35 111 52 42 76 66 93 83 117 107 55 124 30 20 96 37 71 61 29 70 29 24 115 58 117 12 23 125 119 13 59 13 103 116 83 97 115 16 34 33 18 102 108 42 59 114 28 33 48 73 109 35 53 42 32 15 5 39 115 56 46 80 28 97 87 121 111 10 0 34 24 100 41 75 65 13 82 69 52 42 69 59 93 83 31 100 6 124 72 13 47 37 71 19 88 78 112 60 1 119 25 101 42 32 66 56 4 73 107 97 45 114 20 10 44 27 61 51 51 76 17 51
41 117 58 92 82 116 64 5 123 29 105 46 36 70 18 127 118 94 102 2 20 96 86 120 61 51 127 33 102 92 40 74 64 5 81 115 105 46 80 28 18 87 121 69 59 93 34 110 100 6 75 65 13 47 37 106 54 88 78 19 53 1 119 60 94 42 32 66 7 83 73 107 48 38 114 20 46 36 45 56 104 85 9 76 101 42 76 66 100 83 117 107 13 89 30 20 54 44 71 61 95 85 33 102 8 126 74 15 49 39 73 56 90 80 114 62 3 121 27 103 44 34 68
58 85 75 109 99 47 116 22 12 46 29 63 53 87 35 104 94 0 76 17 7 41 31 58 48 82 72 20 89 123 113 61 2 36 26 60 43 77 67 101 49 118 108 14 90 31 21 55 45 72 62 96 86 34 103 9 127 33 16 50 40 74 22 91 81 115 63 4 122 28 18 45 35 69 59 7 76 85 66 72 44 23 48 82 23 13 89 123 113 54 88 36 26 95 1 77 67 101 42 118 108 14 83 73 21 55 124 114 62 96 86 27 103 9 127 68 102 50 65 20 83 29 63
19 116 93 93 27 45 35 69 59 86 76 110 100 48 117 20 1 109 66 24 101 40 74 15 91 81 115 56 46 122 28 97 87 35 69 59 0 76 110 100 41 75 23 13 82 116 64 86 111 52 86 76 110 93 127 117 23 99 40 30 64 12 81 71 105 95 122 112 18 8 84 25 59 49 83 66 100 90 124 107 13 3 37 113 54 44 78 68 95 85 119 109 8 126 32 22 98 39 73 63 97 80 114 104 10 86 27 17 51 41 68 58 92 82 109 99 5 123 71 12 46 36 70
53 87 77 111 94 0 118 24 100 41 31 65 55 82 72 106 96 44 113 19 9 85 26 60 50 84 67 51 10 125 88 7 58 21 46 115 21 11 87 28 62 52 86 34 103 93 127 75 16 6 40 116 57 47 81 71 19 88 122 112 60 1 35 25 101 7 76 66 100 48 117 107 13 89 30 20 54 44 120 61 95 85 33 102 8 126 74 15 49 39 73 21 90 80 114 62 3 121 27 103 93 34 68 58 6 75 109 99 47 116 22 12 88 122 55 26 4 89 38 6 127 15 33
23 57 5 123 64 98 88 36 105 11 1 77 18 52 42 118 24 93 83 117 65 6 124 30 106 96 37 71 19 9 78 112 102 50 119 25 15 91 125 66 56 90 38 107 97 3 79 20 10 44 120 110 51 85 75 23 92 40 23 13 89 30 64 54 2 71 105 95 1 112 18 8 42 118 59 49 83 31 100 90 124 114 13 3 37 27 103 44 78 68 16 85 119 109 15 126 32 22 56 4 73 63 97 87 114 104 10 0 76 17 51 41 117 58 92 82 116 99 5 123 29 105 46
36 70 18 87 77 111 101 0 118 80 119 81 22 38 87 26 95 1 119 67 8 42 32 108 14 83 73 107 55 124 114 20 96 86 27 61 9 127 68 102 92 40 109 15 5 81 115 56 46 122 28 97 87 121 69 10 0 34 110 100 41 75 23 13 82 116 106 54 88 29 19 95 1 70 60 94 42 111 101 7 83 73 14 48 124 114 55 89 79 27 96 2 120 68 102 47 14 90 75 43 104 71 107 112 39 113 31 33 51 41 75 65 92 82 116 106 54 123 29 19 95 36 70
60 94 77 111 101 7 83 24 14 48 38 65 55 89 79 106 96 2 120 68 9 43 33 67 50 84 74 108 56 125 115 21 97 38 28 62 52 79 69 103 93 41 110 16 6 82 23 57 47 81 64 98 88 122 70 11 1 35 25 52 42 76 66 93 83 117 107 55 124 30 20 54 37 71 61 95 43 112 102 8 84 25 15 49 39 66 56 3 114 62 3 121 27 103 44 34 68 58 85 75 109 99 47 116 22 12 88 29 63 53 87 35 104 94 0 76 17 7 41 117 58 48 82
72 20 89 123 113 61 2 36 26 102 43 77 67 101 49 118 108 14 90 31 21 55 45 72 62 96 86 34 103 9 127 75 16 50 40 74 22 91 81 115 63 4 122 28 104 45 35 69 59 7 76 46 48 39 12 123 34 38 0 72 55 3 121 62 96 44 34 103 9 85 75 109 50 40 116 22 91 81 29 63 4 122 70 104 94 35 69 17 7 76 110 58 48 117 23 13 89 123 64 54 2 36 105 95 43 77 18 8 123 17 125 115 12 46 36 105 53 87 77 111 52 0 118
24 93 41 31 65 6 82 72 106 96 37 113 19 9 78 26 60 50 119 25 101 91 125 46 76 106 50 17 44 87 67 38 46 40 64 103 9 31 14 90 31 21 55 3 121 62 96 44 34 103 9 127 75 16 50 40 116 22 91 81 115 63 4 122 28 104 45 35 69 17 7 76 110 100 48 117 23 13 89 123 64 54 2 36 105 95 1 77 75 80 42 29 60 78 68 102 50 119 109 15 5 32 22 56 46 122 63 97 87 35 104 10 0 34 17 51 41 75 23 92 82 4 29
35 28 91 107 47 32 12 105 80 125 108 114 70 2 10 121 69 59 0 34 24 100 41 75 65 13 82 116 106 54 88 29 19 53 1 70 60 94 42 32 101 7 125 73 14 48 38 114 55 89 79 27 61 2 120 26 102 43 33 43 81 26 21 82 112 60 117 62 38 3 127 36 122 115 5 123 71 105 95 36 70 18 8 77 111 59 49 83 24 14 90 124 65 55 3 37 106 96 44 78 68 9 43 119 109 50 6 48 91 109 99 5 81 71 12 46 36 112 53 87 77 25 59
0 118 66 100 41 31 65 13 82 72 106 54 44 113 19 95 85 26 60 50 126 67 101 91 39 73 14 4 38 114 53 116 25 102 60 29 65 25 108 93 76 66 100 83 117 107 13 89 30 20 54 2 71 61 95 85 112 102 8 126 74 15 49 39 73 56 90 80 49 21 30 30 111 114 58 42 85 24 93 127 117 65 99 40 30 106 12 81 71 19 53 122 112 18 94 84 25 59 7 125 66 100 48 38 107 13 3 79 113 54 44 120 26 95 85 33 67 8 126 32 108 98 39
73 21 11 80 114 104 52 86 27 17 93 127 68 58 6 40 109 99 5 81 71 12 46 122 91 53 32 21 103 126 109 99 47 81 22 12 88 122 63 53 1 35 25 94 0 76 66 7 41 117 107 48 82 72 20 54 123 113 61 95 36 26 102 8 77 67 101 49 39 108 14 90 80 21 55 3 121 62 96 86 34 68 9 127 75 109 50 40 74 22 12 81 115 63 53 122 28 104 94 35 69 59 7 41 121 86 8 39 98 6 107 72 46 6 25 86 89 34 51 6 42 13 33
78 103 9 78 68 16 50 119 109 57 91 32 22 56 4 122 63 97 45 35 104 10 0 76 17 51 41 117 23 92 82 30 64 5 123 29 105 46 36 70 18 8 77 111 59 49 118 24 14 90 124 65 55 3 37 106 96 2 78 19 9 43 119 109 50 84 32 22 91 125 115 63 4 38 28 104 10 79 69 123 78 74 91 74 33 13 71 41 80 40 43 23 32 60 59 38 52 52 51 87 27 44 117 0 106 120 103 86 120 110 16 92 33 23 57 5 74 64 98 88 115 105 11
1 77 18 52 42 118 59 93 83 117 65 6 124 30 106 47 37 71 19 88 78 112 102 50 119 25 15 91 32 66 56 90 73 107 97 3 79 20 10 44 120 61 51 85 75 102 92 126 116 64 5 39 29 105 46 80 70 104 52 121 111 125 126 25 115 101 116 81 99 113 31 104 20 12 11 80 56 46 80 70 97 87 121 111 59 0 34 24 58 41 75 65 99 47 116 106 12 88 29 19 53 43 70 60 94 84 32 101 7 125 73 14 48 38 72 55 89 79 113 61 2 120 26
16 43 33 67 57 84 74 108 98 46 115 21 11 45 28 62 52 86 34 103 93 127 75 16 6 40 30 57 47 81 71 19 88 122 112 18 1 35 25 59 42 76 66 100 48 117 107 13 3 68 96 100 73 12 39 29 63 100 124 120 49 53 75 46 22 18 3 123 14 46 64 82 72 20 54 123 113 19 95 85 26 60 8 126 67 101 49 39 108 14 4 80 114 55 45 121 27 96 86 120 68 58 127 33 109 99 40 74 22 12 81 39 15 124 92 91 101 35 42 68 32 39 54
87 23 32 120 5 95 93 23 90 31 65 13 3 37 106 96 44 78 19 9 85 119 60 50 84 32 22 91 125 73 63 4 38 114 104 45 79 69 17 51 120 110 58 92 33 23 99 5 74 64 98 46 36 105 11 87 77 18 52 0 118 24 93 83 31 65 6 124 72 106 47 37 71 19 74 9 30 92 91 25 40 23 13 40 30 64 54 2 71 105 95 1 112 18 8 42 118 59 49 83 31 100 90 124 114 13 3 37 27 103 44 78 68 102 85 119 109 15 126 32 22 56 4
73 63 97 87 114 104 10 0 27 17 51 41 117 58 92 82 116 99 5 123 29 105 46 36 70 18 87 77 111 101 0 118 24 14 115 80 75 1 66 41 24 14 90 31 65 55 3 37 106 96 2 78 19 9 43 119 109 50 84 32 22 91 125 115 63 4 38 28 104 10 79 69 126 20 78 103 9 127 68 102 50 40 74 15 91 81 115 56 46 122 28 97 87 35 69 59 0 76 110 100 41 75 23 13 47 2 76 127 68 106 89 37 27 96 2 120 68 102 43 33 109 15 84
74 108 56 125 115 21 97 87 28 62 10 0 69 103 93 41 110 16 6 82 116 57 47 123 29 98 88 122 70 23 120 124 41 106 21 46 80 70 11 87 121 111 17 86 34 12 70 114 70 57 58 8 34 47 106 109 26 103 22 79 96 74 116 1 47 20 69 102 47 104 117 106 124 46 71 105 95 1 112 18 16 50 64 2 113 103 2 120 26 16 92 33 67 57 91 74 108 98 4 115 21 11 4 90 103 122 26 10 22 64 29 62 47 65 55 89 37 106 96 2 120 19 9
43 33 109 50 84 74 22 91 125 115 21 4 38 28 62 10 79 69 103 51 120 110 16 6 82 23 57 47 123 64 98 88 36 105 34 17 7 83 24 58 48 124 65 99 89 123 106 12 2 36 112 53 43 77 25 94 84 118 108 7 125 31 21 97 38 72 62 10 79 113 103 9 85 26 16 50 126 67 57 91 81 108 98 4 122 70 11 45 35 111 52 86 76 110 93 127 117 23 99 40 30 64 12 81 71 105 95 43 112 18 8 84 25 59 49 125 66 87 43 111 121 42 25
101 91 32 66 14 4 73 107 55 45 79 118 101 91 125 108 14 4 38 21 55 45 79 27 96 86 120 110 9 127 33 23 99 40 74 64 12 81 115 105 11 122 28 18 52 0 69 59 93 83 110 100 6 124 23 13 47 37 113 54 88 78 112 95 1 119 25 101 42 32 66 14 83 73 107 97 124 114 20 10 86 27 61 51 85 68 102 92 126 109 15 5 39 115 56 46 80 70 97 87 121 111 10 0 34 24 100 41 75 65 106 124 114 20 10 86 27 61 51 127 68 102 92
40 109 15 5 39 115 56 46 80 28 97 87 121 111 10 0 34 24 100 41 75 65 13 82 116 106 12 88 29 19 53 1 70 60 94 42 111 101 7 125 73 14 48 38 114 55 89 79 27 96 2 120 26 102 43 33 67 15 84 74 108 98 125 115 21 11 87 28 62 52 0 69 103 93 96 57 29 12 88 78 19 53 1 119 60 25 36 57 15 47 2 79 68 14 71 51 87 94 77 67 15 49 118 108 56 90 31 21 97 3 121 62 96 44 34 103 9 85 75 16 50 40 116
22 91 81 29 63 4 122 70 104 45 35 69 17 7 76 110 58 48 117 23 99 89 30 64 54 2 36 105 95 43 77 18 8 42 118 108 49 83 31 21 90 124 72 62 3 37 27 103 9 50 80 40 23 6 40 30 64 47 81 71 105 95 122 112 18 8 38 39 42 19 104 87 35 25 59 0 118 66 100 41 31 107 13 3 72 20 54 44 113 19 95 85 26 60 8 126 32 101 91 39 73 14 4 80 114 55 45 121 27 17 86 120 68 58 127 33 109 99 5 74 22 12 46
115 105 53 87 28 18 94 0 91 58 35 48 102 69 112 9 43 112 102 8 84 74 15 49 125 115 56 90 80 28 97 3 121 69 103 44 34 110 16 85 75 109 57 47 116 22 98 88 29 63 11 1 70 104 94 42 76 17 7 83 117 58 48 82 30 99 89 123 71 61 2 36 112 102 43 77 67 15 49 12 123 113 61 2 36 26 60 43 77 67 101 49 118 108 14 90 31 21 55 45 12 81 64 54 2 71 105 95 43 112 18 8 84 25 59 49 83 31 100 90 124 72 13
3 37 27 103 44 78 68 16 85 119 109 57 126 32 22 68 93 34 68 58 6 75 109 99 5 116 22 12 46 122 123 38 14 22 79 27 22 112 2 122 66 6 17 90 71 88 78 63 63 112 116 101 119 109 15 5 32 22 56 46 73 63 97 87 121 104 10 0 34 17 51 41 75 58 92 82 116 106 5 123 29 19 46 36 70 60 8 77 111 101 7 118 24 14 48 31 65 55 89 37 106 96 2 120 19 9 43 33 60 50 84 74 108 91 125 115 21 4 102 64 20 14 32
108 98 4 42 25 15 49 32 66 56 90 38 107 97 3 121 20 10 44 34 61 51 85 75 23 92 126 116 22 5 39 29 63 46 80 70 104 94 121 111 17 7 34 24 58 48 124 65 99 89 123 106 12 2 36 19 53 43 77 25 94 84 118 108 7 125 31 21 48 38 72 62 103 66 55 127 24 93 127 117 23 99 40 30 64 12 81 71 105 53 122 112 18 8 84 25 59 49 125 66 100 90 124 107 13 3 37 113 54 44 78 26 95 85 119 109 8 126 32 22 98 39 73
63 11 80 114 104 10 86 27 17 51 127 68 58 92 40 109 99 5 123 71 12 46 36 112 53 87 77 111 94 0 118 24 100 41 31 65 13 38 117 111 40 5 31 100 30 12 62 108 4 29 98 4 122 28 104 45 35 69 17 86 76 110 58 127 117 23 13 89 30 64 54 2 71 105 95 43 112 18 8 42 118 59 49 83 31 100 90 124 114 62 3 37 27 103 44 78 68 16 85 119 109 15 91 32 22 56 4 73 63 97 45 114 104 10 0 76 17 51 41 117 58 92 82
116 99 5 123 29 105 46 36 70 18 87 77 92 11 53 125 115 39 8 82 74 112 98 74 64 98 88 36 105 11 1 35 18 52 42 76 59 93 83 117 65 6 124 30 20 47 37 71 61 9 78 112 102 50 119 25 15 49 32 66 56 90 38 107 97 3 121 20 10 44 34 61 51 85 75 23 92 126 116 22 5 39 29 63 46 80 70 104 52 121 111 17 7 34 24 58 48 124 65 99 89 37 106 12 2 36 19 53 43 77 25 94 84 118 108 7 125 31 21 48 38 72 62
10 79 113 103 9 120 97 80 70 18 87 121 111 59 0 34 24 100 41 75 65 99 47 116 106 12 88 29 19 53 1 70 60 94 84 32 101 7 125 73 14 48 38 72 55 89 79 113 61 46 51 121 91 7 40 122 31 23 27 41 66 100 41 31 65 13 82 72 106 54 44 113 19 9 85 26 60 50 126 67 101 91 101 126 67 101 91 39 108 14 4 38 114 55 45 79 27 96 86 120 110 9 127 33 23 99 40 74 64 12 81 115 105 11 122 28 18 52 0 69 59 93 41
110 100 6 124 23 13 47 37 113 54 88 78 112 95 1 119 25 101 42 32 66 14 83 73 107 97 124 114 20 10 86 27 61 51 127 68 102 92 126 109 15 5 39 115 56 46 80 28 97 87 121 111 59 0 34 24 100 41 75 65 99 82 116 106 12 88 85 67 72 4 111 124 12 37 106 12 2 78 112 52 78 58 84 80 32 26 48 117 103 36 117 120 106 107 88 49 90 0 73 45 27 74 115 41 124 24 99 94 12 118 36 90 91 57 30 95 20 64 8 15 98 64 117
117 102 5 49 67 57 91 39 108 98 4 80 21 11 45 121 111 52 86 76 24 93 127 117 65 99 40 30 106 12 81 71 105 53 122 112 18 94 84 25 59 7 125 66 100 90 38 107 13 3 79 113 54 44 78 26 95 85 119 67 57 126 32 108 98 39 50 65 9 28 3 114 104 52 121 27 17 93 34 68 58 92 75 109 99 5 81 22 12 46 36 63 53 87 77 104 94 0 118 66 7 41 31 65 48 82 72 62 27 58 46 29 105 46 36 70 18 87 77 111 101 49 118
24 14 90 31 65 55 3 72 106 96 2 78 19 9 43 119 60 50 84 32 22 91 125 115 63 4 38 28 104 45 79 69 103 51 120 110 16 92 33 23 57 5 74 64 98 88 77 95 85 119 67 8 126 32 22 49 39 73 63 11 80 114 104 52 121 27 17 51 127 68 58 92 40 109 99 5 123 22 12 46 36 112 30 55 89 79 20 54 2 120 61 95 43 33 67 8 126 74 108 49 39 115 21 11 80 27 16 107 93 117 3 30 87 28 19 0 88 60 90 85 69 78 67
49 55 109 8 90 77 9 57 88 68 25 32 25 23 62 113 73 86 39 15 42 25 15 91 32 66 56 4 38 107 97 3 79 20 10 44 120 61 51 85 75 23 92 126 116 64 5 39 29 105 46 80 70 104 52 121 111 17 93 34 24 58 6 124 65 99 89 37 106 12 2 78 19 53 43 119 25 94 84 118 66 7 125 31 107 48 38 72 62 10 79 89 73 93 56 22 121 24 107 79 83 84 126 106 107 69 22 112 112 119 109 107 108 29 52 108 81 101 40 74 15 5 81
115 105 46 122 28 18 87 35 69 59 0 34 110 2 20 86 102 104 35 84 120 63 122 61 2 78 112 102 43 77 25 15 84 118 66 56 90 31 107 97 3 72 62 10 44 113 103 51 85 75 16 92 126 116 57 91 39 29 98 4 80 70 104 45 35 111 17 86 76 23 120 64 107 104 35 102 43 77 25 15 84 118 108 56 90 31 21 19 127 17 7 41 117 58 48 82 30 20 89 123 113 61 2 36 26 102 8 77 67 15 49 118 108 14 90 31 21 55 3 121 62 96 86
34 103 9 127 75 16 60 43 33 109 50 84 74 22 91 125 115 21 4 38 28 62 10 79 69 103 93 120 110 16 6 82 23 57 47 123 64 98 88 122 105 11 1 35 111 52 42 76 24 93 83 117 107 6 124 30 20 96 37 71 61 61 79 69 103 93 120 110 16 6 82 23 57 47 123 64 98 88 122 70 11 1 35 111 52 42 76 24 93 83 117 107 55 124 30 20 96 37 71 61 95 78 112 102 8 84 25 15 49 125 66 56 90 80 28 97 3 121 69 10 44 34 110
51 85 75 109 57 126 116 22 98 39 29 90 101 10 69 52 42 118 59 93 83 117 100 6 124 30 13 47 37 71 19 88 78 112 102 1 119 25 15 91 32 66 56 90 73 107 97 60 72 125 120 61 0 69 103 93 41 110 16 6 82 23 57 47 123 29 98 88 122 70 11 1 35 111 101 42 76 24 14 83 117 107 55 124 30 20 96 2 71 61 9 43 112 102 8 84 25 15 49 125 115 56 90 80 28 97 3 121 69 10 97 99 125 83 15 49 39 73 14 90 80 114 104
3 121 27 17 44 22 48 51 115 22 50 79 32 74 62 45 121 62 52 86 34 103 93 127 75 65 6 40 30 106 47 81 71 19 53 122 112 60 94 35 25 59 7 76 66 100 48 38 107 13 3 79 20 54 44 120 61 15 126 116 64 5 39 29 105 46 80 70 104 87 121 111 17 93 34 24 58 48 75 65 99 89 37 106 12 2 78 19 53 43 37 90 96 15 114 64 6 117 65 55 124 30 106 96 37 71 61 108 5 74 108 98 4 115 21 11 45 121 62 52 86 34 103
93 127 117 16 6 40 30 106 47 81 71 19 88 122 112 18 1 35 25 59 7 76 66 100 90 117 107 13 3 30 20 54 44 40 15 82 21 55 124 114 62 96 86 27 103 9 127 68 102 50 40 109 15 91 81 115 56 4 122 28 97 87 35 69 10 0 76 110 100 41 117 23 13 82 116 64 95 85 29 41 91 56 63 13 25 9 103 18 43 77 67 8 42 118 108 49 83 31 21 90 124 72 62 96 37 27 103 9 78 68 16 50 119 109 57 91 81 22 56 4 122 63 97
45 35 69 10 86 76 110 51 41 117 23 92 82 30 64 54 123 29 105 37 77 34 23 13 124 107 97 45 79 20 10 86 120 61 51 127 33 102 92 126 74 64 5 39 115 105 46 80 70 18 52 82 93 117 35 97 36 27 5 69 74 13 80 114 97 3 121 27 96 44 34 68 9 85 75 109 99 40 116 22 12 81 57 53 71 10 79 27 61 51 120 68 102 92 33 67 15 5 39 108 56 46 80 21 11 87 121 62 52 0 34 24 93 41 75 16 43 48 13 38 107 13 3
37 113 54 44 78 26 95 85 119 109 57 126 32 22 98 39 73 63 11 80 114 104 10 86 27 17 51 127 68 58 92 40 109 99 5 123 71 12 46 36 112 53 87 77 25 59 0 118 24 100 41 31 65 13 82 72 106 96 44 113 19 9 85 26 60 50 126 67 101 91 125 73 14 4 38 114 55 45 79 27 96 86 120 110 58 127 33 23 99 40 74 64 98 46 115 105 11 87 28 18 52 0 69 59 93 83 94 78 82 50 57 20 7 118 66 7 125 31 107 97 38 72 62
88 57 35 2 38 107 122 29 8 30 71 5 97 36 105 11 1 77 111 52 42 118 24 93 83 117 65 6 124 30 106 96 37 71 19 9 78 112 102 50 119 25 15 91 125 66 56 4 38 107 97 3 79 69 10 44 120 110 51 85 75 23 92 126 116 64 98 39 29 105 11 80 70 6 52 52 75 13 127 57 54 96 17 54 44 76 99 53 80 111 19 94 52 108 53 104 127 126 34 120 49 116 57 5 39 29 98 4 80 70 11 45 121 111 17 86 76 24 58 127 117 65 99
40 30 106 12 2 71 105 53 43 112 18 94 84 118 59 7 125 31 100 90 38 72 13 3 79 113 103 44 78 26 16 85 119 67 57 126 32 108 9 34 103 9 127 33 16 50 40 74 22 91 81 115 63 4 122 28 18 45 35 69 59 7 76 110 100 6 117 23 13 47 30 64 54 88 36 105 95 1 119 18 8 42 32 59 49 83 73 21 90 124 114 20 3 37 27 61 9 78 68 102 92 119 109 15 5 32 22 56 46 122 63 97 87 121 104 10 0 34 17 51 41 75 23
92 82 116 106 5 123 29 19 95 36 70 60 8 77 111 101 7 118 24 14 48 124 65 55 89 79 106 96 2 120 19 9 43 33 89 65 95 120 26 95 85 119 67 8 126 32 108 98 39 73 63 11 80 114 104 52 86 27 17 93 127 68 58 92 40 109 99 5 81 71 12 46 122 112 53 87 77 25 94 0 118 66 100 41 31 107 13 82 72 106 54 59 80 107 110 91 22 23 42 94 127 83 19 92 0 18 8 84 118 59 49 83 31 100 90 124 72 62 3 37 113 103 44
78 68 94 70 60 94 84 32 101 7 125 31 14 48 38 72 20 89 79 113 61 2 120 26 16 43 33 67 57 5 74 108 98 100 28 11 1 35 18 18 96 71 74 47 51 95 92 65 106 109 37 118 101 49 39 73 14 4 80 114 55 45 121 27 17 86 34 68 58 127 66 116 115 5 123 29 19 95 36 70 60 8 77 111 101 49 118 24 14 48 124 65 55 89 37 106 96 2 120 68 9 43 33 109 50 84 74 22 91 125 115 21 97 38 28 62 10 79 69 103 51 120 110
16 6 82 23 57 47 123 64 98 88 122 105 11 1 35 111 52 42 76 24 93 83 117 107 55 124 30 20 45 48 121 60 94 35 111 101 7 125 66 14 48 38 107 55 89 79 20 96 2 120 26 95 43 33 67 6 117 107 13 89 30 20 54 44 71 61 95 85 112 102 8 126 74 15 49 39 73 56 90 80 114 97 3 121 27 17 44 34 68 58 85 75 109 99 126 116 22 12 46 29 63 53 87 70 104 94 0 76 17 7 41 31 58 48 82 72 99 89 123 113 61 2 36
26 60 43 77 67 101 84 118 108 14 4 31 21 55 45 72 62 96 86 34 103 9 127 33 16 50 40 74 57 91 81 115 63 4 122 28 18 45 35 69 59 86 76 110 100 6 117 23 13 47 30 64 54 20 60 35 60 94 84 25 59 7 125 66 100 48 38 72 13 89 79 113 54 44 120 26 95 85 33 67 57 126 37 56 8 26 16 50 40 67 57 91 81 29 98 4 122 70 11 45 35 69 17 86 76 110 58 127 117 23 99 40 30 64 54 2 71 105 95 43 112 18 8
84 25 59 49 83 31 100 90 124 72 13 3 37 27 54 44 78 68 16 85 119 109 57 126 43 26 16 92 33 67 57 5 74 108 98 46 115 21 11 45 121 62 52 86 34 103 93 127 117 16 6 40 30 106 47 81 71 19 88 122 112 18 1 35 25 59 7 76 66 87 10 92 42 28 107 50 10 95 124 48 98 28 11 1 28 18 52 42 118 59 93 83 117 100 6 124 30 13 47 37 71 19 88 78 112 102 1 119 25 15 91 32 66 56 4 73 107 97 3 114 20 10 44
120 61 51 85 33 102 92 126 116 15 5 39 29 116 26 118 50 11 107 70 51 113 12 11 107 20 60 44 27 103 93 34 68 58 6 40 109 99 47 81 22 12 88 122 63 53 87 35 25 94 0 76 66 7 41 117 107 48 82 72 20 54 123 113 61 95 36 26 60 8 126 67 101 49 39 108 14 90 80 21 55 45 121 27 96 86 34 68 9 127 75 109 36 19 9 43 119 60 50 84 74 101 91 125 115 14 4 38 28 104 45 79 69 103 86 120 110 16 92 33 23 57 5
74 64 98 88 115 105 11 1 77 18 52 42 76 59 93 83 117 100 6 124 30 106 47 37 71 61 88 78 112 102 50 119 99 82 29 121 27 98 1 94 119 0 101 6 121 18 52 42 111 17 93 83 24 58 6 124 30 99 47 37 71 12 2 78 112 53 43 119 25 15 84 118 66 56 125 31 107 97 3 72 20 10 44 113 103 51 85 26 16 92 126 116 57 5 39 29 98 4 80 60 120 103 93 41 75 16 6 40 116 57 47 81 29 19 88 122 112 60 1 35 25 101 42
76 66 14 48 117 107 13 89 75 50 33 109 50 40 74 22 12 81 115 63 53 122 32 16 54 4 3 114 104 52 121 27 17 93 34 68 58 92 40 109 99 5 81 22 12 46 122 63 53 87 77 25 94 0 118 66 7 41 31 107 48 82 72 106 54 123 113 19 95 36 26 60 50 126 67 101 91 39 108 14 4 80 21 55 45 79 27 96 86 120 68 9 127 33 109 50 40 74 64 12 81 85 68 16 85 75 109 99 126 116 22 12 88 29 63 53 1 70 104 94 0 76 17
7 41 117 82 67 60 73 26 22 5 81 71 12 46 122 112 53 87 35 25 94 0 118 66 100 41 31 107 13 82 72 106 54 44 113 17 73 119 68 50 33 109 50 40 74 64 12 81 115 105 53 122 28 18 52 35 69 59 93 41 110 100 6 82 23 13 47 37 64 54 88 78 26 95 1 119 67 8 42 32 66 14 83 73 107 55 124 114 20 96 37 27 61 51 127 68 102 92 40 109 15 5 39 22 56 46 80 28 97 87 121 69 10 0 34 24 51 41 75 65 13 82 116
106 54 123 29 19 53 1 70 60 94 42 111 101 7 125 24 14 48 38 114 55 89 79 27 96 2 120 26 9 11 122 112 60 1 35 25 101 42 76 66 100 48 117 107 13 89 30 20 54 2 71 61 95 85 33 102 8 126 74 15 49 39 73 56 90 80 114 62 3 121 27 103 44 34 68 58 85 75 109 99 47 116 22 12 88 29 63 53 87 35 104 94 0 76 17 7 41 31 58 48 82 72 20 89 123 113 61 2 36 26 60 43 77 67 101 49 118 108 14 90 31 21 55
45 121 62 44 27 103 44 34 68 16 85 75 109 99 47 116 22 12 88 29 63 53 87 70 104 94 0 76 17 7 41 117 58 48 82 72 99 89 123 113 61 2 36 26 102 43 77 67 101 49 118 108 14 90 31 21 55 45 72 62 96 86 34 103 9 127 75 16 50 40 74 57 91 81 115 63 72 15 21 59 15 91 116 77 108 50 113 74 117 88 99 103 49 67 57 91 81 29 98 4 122 70 11 45 35 111 52 86 76 87 39 116 89 45 34 23 80 110 103 107 41 24 14
90 31 65 55 89 72 106 96 2 78 19 9 43 119 60 50 84 74 101 91 125 115 63 4 38 28 104 45 79 69 103 86 120 110 16 92 33 23 57 47 74 64 98 88 36 105 11 1 77 18 52 42 76 59 93 83 117 65 6 124 30 106 47 37 71 61 88 78 112 102 50 119 25 15 49 32 66 56 90 73 107 97 3 79 20 10 44 34 121 104 94 0 76 17 7 41 117 58 48 82 30 99 89 123 113 61 2 36 26 102 43 77 67 101 84 118 108 14 90 31 21 55 3
72 62 96 86 34 103 9 127 75 16 50 40 116 57 91 81 115 63 4 122 28 104 45 35 31 119 82 65 55 89 37 106 96 2 78 19 9 43 33 60 50 84 74 22 91 125 115 63 4 38 28 62 10 79 69 103 51 120 110 16 92 33 23 57 47 123 64 98 88 36 105 11 1 35 18 52 42 76 24 93 83 117 65 6 124 30 20 47 37 71 61 9 78 112 102 50 119 25 15 49 125 124 107 97 45 114 20 10 44 27 61 51 85 33 102 92 126 74 15 5 114 97 80
114 104 10 86 27 17 51 127 68 58 92 82 30 99 5 123 71 12 46 36 112 53 87 77 111 59 0 118 24 100 41 31 65 55 82 72 106 96 44 113 19 9 85 26 60 50 84 67 101 91 125 73 14 4 38 114 55 45 79 69 17 86 120 110 58 127 33 23 57 40 74 64 98 46 115 105 11 87 28 18 52 42 69 59 93 83 31 100 6 124 72 13 47 37 71 19 88 78 112 60 1 119 25 101 69 50 63 105 16 2 22 116 55 124 72 106 96 37 71 19 9 43 112
60 50 84 25 101 91 125 66 56 4 38 28 97 45 79 69 10 44 120 110 16 85 33 23 57 126 74 64 98 74 105 77 122 60 105 13 17 15 80 126 47 72 13 47 37 113 19 88 78 26 60 1 119 25 101 91 32 66 14 4 73 107 55 45 114 20 10 86 120 61 51 127 33 102 92 126 74 15 5 39 115 105 46 80 28 18 87 121 111 59 0 34 24 100 6 75 65 13 47 116 106 12 88 78 19 10 90 100 93 91 41 90 71 110 69 107 4 123 50 104 61 16 73
32 48 120 93 20 14 51 115 51 14 93 73 22 58 119 86 104 94 0 76 17 7 41 31 58 48 82 72 20 89 123 113 61 2 36 26 60 43 77 67 101 49 118 108 14 4 31 21 55 45 72 62 96 86 34 103 9 127 33 16 50 40 29 20 38 114 104 10 79 69 17 51 120 110 58 92 82 23 99 5 67 43 33 67 57 84 74 108 98 46 115 21 11 45 28 62 52 86 34 103 93 127 75 16 6 40 30 57 47 81 71 19 88 122 112 18 1 35 25 59 42 76 66
100 48 117 107 13 3 30 20 54 44 71 61 95 85 33 102 8 126 32 15 49 39 73 21 90 80 114 104 3 121 27 17 44 34 68 58 6 75 109 99 5 116 22 12 46 29 63 53 87 35 104 94 78 2 20 10 44 120 61 51 85 75 23 92 126 116 64 5 39 29 105 11 80 70 104 52 121 111 17 93 34 24 58 6 124 65 99 89 37 106 12 2 78 19 53 43 77 25 94 84 61 29 37 48 83 83 107 64 60 60 12 54 112 110 126 95 6 127 124 24 62 69 53
27 45 35 69 17 86 76 110 100 48 117 23 13 89 30 64 54 2 71 105 95 1 77 18 8 42 118 59 49 83 31 21 90 124 114 62 3 37 27 103 44 78 68 102 50 119 109 15 91 32 22 56 4 73 63 97 87 35 104 10 0 76 17 51 41 117 23 92 82 57 24 95 104 98 10 101 84 67 57 5 74 108 98 46 115 21 11 45 28 62 52 86 34 103 93 127 75 16 6 40 30 57 47 81 71 19 88 122 112 18 1 35 25 59 7 76 66 100 48 117 107 13 3
30 20 6 78 17 86 120 68 58 127 33 23 99 40 74 64 12 46 115 105 53 87 28 18 52 0 118 59 93 41 31 100 6 124 72 13 47 37 113 19 88 78 26 60 1 119 25 101 42 32 66 14 4 73 107 55 45 114 20 10 86 27 61 51 127 33 102 92 126 74 119 52 77 111 101 42 76 24 14 83 117 65 49 126 109 99 47 81 22 12 46 122 63 53 87 35 104 94 0 76 66 7 41 31 107 48 82 72 20 54 123 113 61 95 36 26 60 8 77 67 101 49 39
108 14 4 80 21 55 45 121 62 96 86 34 68 9 127 79 14 2 106 55 45 76 74 12 12 23 52 35 25 101 42 76 66 100 48 117 107 13 89 30 20 54 2 71 61 95 85 33 102 8 126 74 15 49 39 73 56 90 80 114 62 3 121 27 103 44 34 68 58 6 75 109 99 47 116 22 12 88 29 63 53 87 35 104 94 0 76 17 7 41 31 58 48 82 72 20 89 123 113 61 2 36 26 60 43 77 67 101 49 118 108 14 90 31 21 55 45 121 62 123 110 110 80
39 22 12 39 29 63 53 1 70 104 94 0 111 17 7 41 24 58 48 82 72 99 89 123 113 12 2 36 26 102 43 77 67 101 84 118 108 14 125 31 21 55 3 72 62 96 86 113 103 9 127 26 16 50 40 116 57 91 81 115 98 4 122 28 11 45 35 69 59 86 76 110 100 127 117 23 13 89 30 64 54 88 71 105 95 1 112 18 8 42 118 59 49 83 73 100 90 124 114 13 3 37 27 84 75 40 23 99 40 30 64 12 81 71 105 95 43 112 18 8 84 25 59
49 125 31 100 90 124 72 13 3 37 113 54 44 78 68 16 85 119 109 57 126 32 22 98 39 73 63 97 45 114 104 10 86 27 17 51 127 117 58 92 82 30 99 5 123 71 12 46 36 112 18 87 77 111 59 0 118 24 100 41 31 65 55 3 72 106 96 44 113 19 9 85 26 60 50 84 32 101 91 81 38 119 32 108 54 15 87 20 77 70 36 42 67 50 33 67 57 91 39 108 98 4 80 21 11 45 35 62 52 86 76 24 93 127 117 65 6 40 30 64 12 81 71
105 53 122 112 18 8 35 25 59 49 125 66 100 90 38 107 13 3 37 20 54 44 52 20 38 114 104 10 79 69 17 51 120 110 58 92 82 23 99 5 123 64 98 46 36 70 11 87 77 111 52 42 118 24 93 83 31 65 55 124 72 106 96 37 71 19 66 28 0 122 79 9 27 17 51 127 68 58 92 40 30 99 5 81 71 12 46 36 112 53 87 77 25 59 0 118 24 100 41 31 65 13 82 72 106 54 44 113 19 9 85 26 60 50 126 67 101 91 39 73 14 4 38
114 55 45 79 27 17 86 120 68 58 127 33 23 99 40 74 64 12 46 115 105 11 87 28 18 52 0 69 59 93 41 31 100 6 124 72 13 47 37 113 19 88 78 26 60 39 31 39 94 112 102 8 84 74 15 49 125 115 56 90 80 28 97 3 121 69 103 44 34 110 16 85 75 109 57 126 116 22 98 88 29 63 11 1 70 104 94 42 76 36 31 40 61 118 33 53 40 25 17 76 26 125 48 95 73 117 35 104 117 80 94 17 42 76 66 7 41 121 116 50 98 0 32
117 73 32 24 91 32 66 56 4 73 107 97 45 79 20 10 44 120 82 44 37 86 1 2 74 105 103 30 99 124 2 84 117 61 97 90 100 126 109 57 126 116 22 98 39 29 63 53 1 70 104 94 42 111 17 7 83 24 58 48 82 30 99 89 123 71 12 2 36 112 53 43 77 67 15 84 118 108 56 125 31 21 55 38 72 62 96 44 113 103 9 85 26 16 50 40 116 57 91 81 29 98 4 122 70 11 45 35 69 17 86 76 70 82 100 90 124 114 13 3 37 27 103
44 78 68 16 85 119 109 15 91 32 22 56 4 73 63 97 45 114 104 10 0 76 17 51 41 117 58 92 82 30 99 5 123 29 105 46 36 70 18 87 77 111 101 0 118 24 14 90 31 65 55 3 72 106 96 2 78 19 9 25 106 84 48 39 63 81 71 105 95 43 112 18 8 84 25 59 49 83 66 100 90 124 72 13 3 37 113 54 44 78 68 16 85 119 109 57 126 32 22 98 39 73 63 97 45 114 104 10 86 27 17 51 41 68 58 92 82 37 9 117 88 8 83
83 39 34 52 42 118 24 14 83 31 65 55 124 30 106 96 2 71 19 9 43 112 60 50 84 25 15 91 125 115 56 4 38 28 97 3 79 69 10 44 120 110 16 88 16 101 75 24 28 33 58 39 92 8 108 16 43 85 42 27 56 39 114 91 15 85 7 75 122 42 32 62 107 73 57 82 116 106 47 81 29 19 88 122 70 60 1 35 111 101 7 76 66 14 48 117 107 110 34 28 18 16 81 16 50 75 109 99 40 116 22 12 46 115 63 53 87 28 104 94 0 69 17
7 41 31 100 48 82 72 13 42 76 101 7 76 66 14 48 117 107 13 89 30 20 54 2 120 61 95 43 33 102 8 126 74 15 49 39 115 21 26 8 22 27 94 113 87 8 112 51 105 30 106 115 64 47 123 64 54 88 78 26 95 1 119 67 8 42 32 108 49 83 73 107 55 124 114 20 96 37 27 61 9 78 68 102 92 40 109 15 5 81 22 44 0 25 59 0 118 66 100 41 31 65 13 82 72 106 54 44 113 19 95 85 26 60 50 126 67 101 91 39 73 14 4
38 114 55 45 79 27 96 86 120 68 58 127 48 60 80 85 72 103 69 125 102 76 109 76 105 83 87 91 94 65 32 110 110 87 70 60 8 77 111 101 49 118 24 14 90 124 65 55 89 37 106 96 2 78 68 9 43 119 109 50 84 74 22 91 125 115 63 97 38 28 62 10 79 69 103 51 120 110 16 92 82 23 57 47 123 64 98 88 36 105 11 1 77 111 52 42 76 24 93 83 117 65 55 124 30 106 96 37 71 61 9 78 112 102 92 57 1 27 88 27 96 2 78
68 9 43 119 109 15 84 32 22 56 125 115 63 97 38 28 104 10 0 69 103 51 41 110 16 92 82 116 57 5 123 29 108 123 112 21 98 95 118 77 33 4 40 65 99 40 30 64 12 81 71 96 79 27 96 86 120 110 9 127 33 23 99 40 74 64 12 81 115 105 11 122 28 18 52 0 69 59 93 41 110 100 6 124 23 13 47 37 113 54 88 78 112 95 1 119 25 8 42 32 66 14 83 73 107 97 124 114 20 10 86 27 61 51 127 68 102 92 126 109 15 5 39
115 56 46 80 28 97 87 121 111 10 0 34 24 100 41 75 65 99 82 116 106 12 88 29 19 53 1 70 60 94 84 111 101 7 125 73 14 48 38 114 55 89 79 113 96 2 120 48 22 119 62 113 112 88 29 37 122 29 22 31 56 90 31 21 55 3 72 62 96 44 34 103 9 85 75 16 50 40 116 57 91 81 29 63 4 122 28 104 45 35 69 17 86 76 110 58 48 117 23 13 89 30 64 54 2 36 105 95 43 77 18 8 42 118 59 49 83 31 21 90 124 72 62
3 37 27 103 44 78 68 16 50 119 109 15 91 32 22 56 4 73 63 97 45 35 104 10 0 111 87 77 111 101 49 118 24 14 90 31 65 55 89 72 106 96 2 78 19 9 43 119 60 50 84 74 101 91 125 115 63 4 38 28 104 45 79 69 103 51 120 110 16 92 33 23 57 47 74 64 98 88 36 105 11 1 77 18 52 42 76 59 93 83 117 65 6 124 30 106 47 37 71 61 88 78 112 102 50 119 25 15 49 32 66 56 97 57 106 33 14 109 62 111 84 10 41
26 127 110 46 53 36 26 102 43 77 67 15 84 118 108 14 90 31 21 55 3 72 62 96 86 34 103 9 127 75 16 50 40 116 57 91 81 115 63 4 122 28 104 45 35 69 17 86 76 110 100 48 117 23 13 89 30 64 54 2 71 105 95 1 77 18 8 42 118 59 49 83 73 21 90 124 114 62 3 37 27 103 44 78 68 102 50 119 109 15 91 32 22 56 4 106 87 70 18 8 77 111 59 49 118 24 14 90 31 65 55 3 37 106 96 2 78 19 9 43 119 109 50
84 32 22 91 125 115 63 4 38 28 104 10 79 69 17 51 120 110 16 92 33 23 57 5 123 64 98 88 36 105 11 1 77 111 52 42 118 24 27 34 24 15 70 3 103 11 65 114 26 68 10 65 92 120 24 48 79 96 37 116 87 34 71 71 82 38 1 36 12 69 90 36 103 44 78 68 16 85 119 109 57 91 32 22 98 4 73 63 97 45 114 104 10 86 76 17 51 127 117 58 92 82 30 99 5 123 71 105 46 36 112 18 87 77 111 59 49 118 24 100 90 31 65
55 3 72 106 96 44 78 19 9 85 119 60 50 84 32 101 91 12 13 120 96 86 120 110 9 127 33 23 50 40 74 64 98 81 115 105 11 122 28 18 52 0 69 59 93 83 110 100 6 124 23 13 47 37 71 54 88 78 112 95 1 119 25 8 42 32 66 56 83 73 107 97 124 114 20 10 86 27 61 51 85 68 102 92 126 109 15 5 39 115 56 46 80 70 97 87 121 111 10 0 34 24 58 41 75 65 99 82 123 100 92 17 87 117 50 65 10 99 34 101 42 76 24
14 48 117 65 55 89 30 106 96 2 71 61 9 43 33 102 50 84 74 15 91 125 115 56 0 47 72 106 47 37 71 19 88 78 102 41 105 32 27 10 86 27 17 51 127 68 58 92 82 30 99 5 123 71 12 46 36 112 53 87 77 111 59 0 118 24 100 41 31 65 13 82 72 106 96 44 113 19 9 85 26 60 50 84 32 101 91 125 73 14 4 38 114 55 45 79 69 17 86 120 110 58 127 33 23 99 40 74 64 98 46 115 105 11 87 28 18 24 67 38 5 49 37
9 98 64 84 6 28 126 56 106 39 71 47 121 32 87 119 30 104 55 85 109 38 40 99 82 72 20 89 123 113 19 2 36 26 60 8 77 67 101 49 118 108 111 52 105 78 125 19 119 2 123 26 106 121 73 87 25 36 3 76 112 77 116 59 21 5 82 48 43 110 13 108 121 103 79 33 34 113 64 82 72 106 54 44 113 19 95 85 26 60 8 126 32 101 91 39 73 14 4 78 61 44 78 68 102 50 119 109 15 5 32 22 56 46 73 63 97 87 35 104 10 0 34
17 51 41 75 23 92 82 116 64 5 123 29 19 46 36 70 60 8 77 111 101 7 118 24 14 48 31 65 55 89 37 106 96 2 120 19 9 43 33 60 50 84 74 22 91 125 115 21 4 38 28 62 10 79 69 103 51 120 110 16 6 33 23 57 47 123 64 98 88 122 105 11 1 35 18 52 42 76 24 93 83 117 107 6 124 30 20 96 37 71 61 9 78 112 102 8 119 25 15 49 125 111 98 81 29 98 88 122 70 11 1 35 25 101 42 76 66 14 83 117 107 6 80
71 40 11 67 85 75 109 57 126 116 22 98 88 29 63 53 1 70 91 86 78 11 122 112 60 94 35 25 59 7 76 66 100 48 117 107 13 3 79 20 54 44 120 61 95 85 33 67 8 126 32 108 49 39 73 21 90 80 114 62 52 121 27 17 93 34 68 58 6 75 109 99 14 39 108 14 4 80 21 55 45 79 62 96 86 120 68 9 127 33 109 50 40 74 64 12 81 115 105 53 122 28 18 52 35 69 59 93 41 110 100 6 82 23 13 47 37 64 54 88 78 26 95
1 119 67 8 42 32 66 14 83 73 71 96 37 71 61 9 78 112 102 8 84 25 15 49 125 66 56 90 80 107 97 3 121 69 10 44 34 110 51 85 75 109 92 126 116 22 98 39 29 63 11 80 70 104 94 42 111 17 7 83 24 58 48 124 65 99 89 123 71 12 2 36 112 53 43 77 67 94 84 118 108 56 125 31 21 97 38 72 62 96 44 113 103 9 85 26 16 50 126 67 57 91 81 29 98 4 122 70 11 45 35 69 52 86 76 110 58 127 117 115 48 71 88
41 28 46 36 112 18 8 77 111 59 49 118 24 100 90 124 65 55 3 37 106 96 44 78 19 9 85 119 109 50 84 32 22 91 125 73 63 4 38 43 55 77 93 81 13 4 22 12 46 36 112 53 87 77 25 94 0 118 66 7 41 31 65 13 82 72 106 54 123 113 19 95 36 26 60 50 126 67 101 91 39 108 14 4 38 21 55 45 79 27 96 86 89 110 118 100 39 73 63 4 80 114 87 63 53 87 77 104 94 0 118 66 7 41 31 65 48 82 72 106 89 123 113
19 9 36 26 60 50 77 67 101 91 118 108 14 4 38 21 55 45 79 62 96 86 120 68 9 127 33 23 50 40 74 64 91 81 115 105 53 122 28 18 52 35 69 59 93 76 110 100 6 124 23 13 117 40 110 85 70 123 20 89 123 113 61 2 36 26 102 43 77 67 101 49 118 108 14 90 53 124 75 99 105 67 97 18 106 84 125 16 83 24 58 6 124 65 99 47 37 71 12 2 115 54 114 95 14 59 118 42 37 46 5 58 67 21 76 55 69 63 2 36 105 95 43
77 18 8 84 118 59 49 83 31 21 90 124 72 62 3 37 113 103 9 78 68 16 50 119 109 57 91 32 22 98 4 122 63 97 45 35 104 10 86 76 17 51 41 117 23 92 82 30 64 5 123 71 105 46 36 70 18 8 77 111 59 49 118 24 100 90 87 119 107 13 72 33 27 41 66 7 41 31 65 13 82 72 106 54 123 113 19 95 36 26 60 50 126 67 101 91 39 108 14 4 80 114 55 45 79 27 96 86 120 68 9 127 33 23 99 40 74 64 12 81 115 105 53
122 28 18 52 0 69 59 93 41 110 100 6 82 23 13 47 37 113 54 88 78 26 95 1 119 25 101 103 114 74 61 36 19 9 85 26 60 50 84 32 101 91 125 73 14 4 38 114 55 45 79 69 17 86 120 110 58 127 33 23 99 5 74 64 98 46 115 105 11 87 28 18 52 42 118 59 93 83 31 100 6 124 72 13 47 37 71 19 88 78 112 60 1 119 25 101 42 32 66 56 4 73 107 97 45 114 20 10 86 120 61 51 85 33 102 92 126 74 15 5 39 29 105
46 80 70 18 87 121 111 104 80 70 104 94 42 111 17 7 83 24 58 48 82 30 99 89 123 71 12 2 36 112 53 43 77 67 15 84 118 108 56 125 31 21 55 38 72 62 96 44 113 103 9 85 26 16 64 108 54 30 17 79 24 81 19 80 37 70 104 21 26 29 67 46 74 67 64 13 77 36 54 44 78 68 16 85 119 109 57 126 32 22 98 39 73 63 97 45 114 104 10 86 27 17 51 41 68 58 92 82 30 99 5 123 71 12 46 36 70 18 87 77 111 59 0
118 24 100 41 31 65 55 3 72 106 96 44 113 19 9 43 26 60 50 84 32 101 91 125 73 14 4 38 28 104 45 79 69 17 86 120 110 58 127 33 23 57 5 74 64 98 46 64 13 5 55 56 76 127 19 38 40 61 65 51 89 78 0 43 95 47 119 39 32 115 54 8 90 75 107 90 38 99 121 104 52 115 5 123 29 19 46 36 70 60 8 77 111 101 49 118 24 14 48 31 65 55 89 37 106 96 2 120 19 9 43 33 109 50 84 74 22 91 125 115 21 4 38
28 62 10 79 69 103 51 120 110 16 6 33 23 57 47 123 64 98 88 36 105 11 1 35 18 52 42 76 24 93 83 117 107 6 124 30 20 96 37 71 61 9 78 112 102 87 51 115 66 49 125 66 56 90 38 107 97 3 79 20 10 44 34 110 51 85 75 23 92 126 116 64 98 39 29 63 11 80 70 104 52 121 111 17 93 83 24 58 48 124 65 99 89 37 106 12 2 36 112 53 43 77 25 94 84 118 66 108 117 17 80 105 46 80 70 18 87 121 111 59 93 34 24
58 6 75 65 99 47 116 106 12 88 78 19 53 43 119 60 94 84 32 101 7 125 73 107 48 38 72 20 89 79 113 61 51 120 26 16 92 33 67 57 5 74 108 98 46 80 21 11 45 121 62 52 86 34 103 93 127 75 65 6 40 30 106 47 81 71 73 113 34 17 93 83 24 84 2 108 20 17 93 15 58 53 96 55 3 39 60 79 52 80 30 123 88 118 84 109 15 5 74 22 56 46 115 21 97 87 121 62 10 0 34 83 36 43 75 122 50 83 4 51 85 68 58
92 75 109 99 5 81 22 12 46 122 63 53 87 77 104 94 0 118 66 7 41 31 107 48 82 72 106 89 123 113 19 95 36 26 60 8 77 67 101 91 39 108 14 4 80 21 55 45 79 62 96 86 120 68 9 127 33 109 50 40 74 64 91 81 115 105 53 122 28 18 94 35 69 59 119 82 100 90 38 72 13 3 79 113 54 44 78 26 16 85 119 67 57 126 32 108 98 39 73 63 11 45 114 104 52 86 27 17 93 127 92 55 101 126 32 101 91 39 73 14 4 80 114
104 45 79 27 71 1 8 29 35 94 38 122 96 121 62 96 86 120 103 9 127 33 16 50 40 35 59 62 37 67 104 10 121 111 59 0 34 24 100 6 75 65 13 47 116 106 12 88 78 19 53 1 119 60 94 84 32 101 7 125 73 107 48 38 114 20 89 79 113 61 2 120 26 102 92 33 67 15 2 16 20 93 56 50 56 9 102 6 25 8 126 32 15 49 39 73 21 90 80 114 62 3 121 27 17 44 34 68 58 6 75 109 99 47 116 22 12 46 29 63 53 87 35
104 94 0 76 17 7 41 31 107 48 82 72 20 89 123 113 19 2 36 26 60 8 77 67 101 49 118 108 14 4 31 21 55 45 121 62 96 86 34 103 9 127 33 109 50 40 74 22 91 81 115 105 4 122 28 18 94 35 52 96 18 36 112 102 8 77 67 15 49 39 108 56 90 80 21 97 3 121 62 96 44 34 68 9 85 75 109 50 126 116 22 12 81 29 63 104 54 103 124 27 16 75 118 92 47 65 55 89 37 106 96 2 78 19 9 43 33 109 50 84 74 22 91
125 115 63 97 38 28 62 10 79 69 103 51 120 110 16 6 82 23 57 47 123 64 98 88 36 105 11 1 103 85 104 18 104 41 49 76 83 81 59 87 122 71 87 30 91 57 14 81 64 54 2 36 105 95 43 77 18 8 42 118 59 49 83 31 21 90 124 72 62 3 83 66 56 83 73 107 97 45 114 20 10 86 27 61 51 85 33 102 92 126 74 15 5 39 29 56 46 80 70 18 87 121 111 40 90 73 63 11 80 114 104 10 86 27 17 51 127 68 58 92 82 109 99
5 123 71 12 46 36 112 53 87 77 111 59 0 118 24 100 41 31 65 13 82 72 106 96 44 113 19 9 85 26 60 50 126 67 101 91 125 73 14 4 38 114 55 45 79 69 17 86 120 110 58 127 33 23 99 40 74 64 98 46 115 105 11 87 28 18 52 0 69 59 93 83 31 100 6 124 72 13 47 37 71 54 88 78 112 60 1 119 25 101 61 123 9 120 68 9 127 33 23 50 40 74 64 91 81 115 105 53 122 28 18 52 35 69 59 93 76 110 100 6 124 23 13
47 37 64 54 88 78 105 95 1 119 25 8 42 32 66 49 83 73 107 55 124 114 20 10 37 27 61 51 78 68 102 92 126 109 15 5 39 22 56 46 80 63 97 87 121 111 10 0 34 24 51 41 75 65 13 82 116 106 12 123 29 19 53 36 70 60 94 42 111 101 7 125 24 14 48 38 65 55 89 79 113 96 2 120 26 9 43 33 67 50 84 74 108 98 125 115 2 73 12 107 78 103 9 78 68 16 50 119 109 15 91 32 22 56 4 122 63 97 45 35 104 10 0
76 17 51 41 117 23 92 82 116 64 103 108 3 119 27 107 26 21 6 33 118 97 68 18 80 114 108 42 28 100 41 33 5 30 64 54 123 71 105 95 1 70 18 8 42 111 59 49 83 24 100 90 124 114 55 3 37 27 96 44 78 0 100 60 67 6 40 109 99 47 81 22 12 88 122 112 53 1 35 25 94 0 76 66 7 41 117 107 13 82 30 20 54 123 113 62 107 46 115 21 97 87 28 62 10 0 69 103 93 41 75 16 6 82 116 57 47 123 29 98 88 122 70
60 1 35 111 101 42 76 24 14 83 117 107 55 89 49 65 40 5 109 99 5 123 71 12 46 36 112 53 87 77 111 94 0 118 24 100 41 31 65 55 82 72 106 96 123 113 19 9 85 26 60 50 84 67 101 91 125 73 14 4 38 114 55 45 79 69 96 86 120 110 58 127 33 23 57 40 74 64 98 81 115 105 11 87 28 18 52 42 69 59 93 83 110 100 6 124 72 13 47 37 71 54 88 78 112 60 1 119 25 101 42 32 66 56 83 73 107 97 45 114 20 10 44
27 61 51 85 68 102 92 126 74 15 5 76 96 85 69 108 50 92 52 48 126 106 38 72 62 96 37 113 103 9 127 26 16 50 40 109 57 91 81 22 98 4 107 92 20 3 79 69 10 44 120 110 51 85 33 23 57 126 116 64 98 39 29 105 11 1 70 18 52 42 111 17 93 83 24 58 6 124 30 99 47 37 71 12 2 78 112 53 43 119 25 15 84 118 66 56 125 31 107 76 101 42 76 66 14 83 117 107 13 124 30 20 54 2 71 61 95 85 112 102 8 126 25
15 49 39 115 56 90 80 114 97 3 121 27 10 44 34 68 16 85 75 109 99 126 116 22 12 57 95 76 65 4 31 21 55 45 114 62 96 86 120 54 87 81 113 61 72 104 60 34 78 105 94 18 101 108 100 77 53 43 77 67 94 84 118 108 56 125 31 21 55 38 72 62 96 44 113 103 55 77 88 35 18 94 35 25 59 49 125 66 100 90 38 107 13 3 37 20 54 44 78 26 95 85 119 67 8 126 32 22 98 39 73 63 11 80 114 104 52 121 27 17 51 127 68
58 92 40 109 99 5 81 22 12 46 36 112 53 87 77 25 94 0 118 24 7 41 31 65 13 82 72 106 54 123 113 19 9 85 26 60 50 126 67 101 91 39 108 14 4 38 114 55 45 79 27 96 86 120 110 9 127 33 23 99 40 74 64 12 81 115 105 12 95 78 72 76 6 24 100 90 124 65 13 3 37 27 96 44 78 68 9 85 119 109 50 84 32 22 56 125 73 63 97 38 114 1 112 95 1 119 25 15 42 32 66 56 83 73 107 97 45 114 20 10 44 27 61
51 85 68 102 92 126 74 15 5 39 29 56 46 80 70 97 87 121 111 17 0 34 24 58 41 75 65 99 47 116 106 12 2 68 20 75 54 100 13 2 81 42 20 90 29 113 3 79 69 103 44 34 110 16 6 75 23 57 124 37 103 75 14 104 28 43 127 123 106 2 91 14 65 85 68 16 6 75 109 57 74 126 75 112 87 19 2 120 68 102 43 33 109 15 84 74 108 56 125 115 21 97 87 28 62 10 0 69 103 93 41 75 16 6 82 116 57 47 81 29 98 88 122
 