P2
27 67
255
52 42 76 66 14 83 117 107 55 124 30 20 96 37 71 61 95 43 112 102 8 84 25 15 49 39 66
56 14 58 30 11 113 93 26 44 64 91 37 80 54 117 27 94 35 69 17 7 76 110 100 48 82 55
106 89 80 109 19 2 120 19 9 43 33 109 50 84 74 22 91 125 115 104 76 127 62 49 51 12 35
74 36 57 123 50 33 89 12 72 67 91 28 43 67 127 17 2 119 87 6 9 12 79 113 54 2 120
26 95 43 39 79 56 0 0 74 61 58 24 53 8 103 35 69 119 126 12 53 37 114 82 120 81 75
88 106 7 123 104 91 28 82 106 43 81 40 22 47 116 22 12 88 29 63 53 87 70 104 94 0 76
17 7 41 117 58 48 82 72 20 89 123 113 61 2 36 26 102 43 77 67 101 49 118 108 14 90 31
21 55 45 72 62 96 86 34 103 9 127 75 16 50 40 74 57 91 81 115 63 4 122 28 104 45 35
69 59 7 76 110 100 48 117 23 13 89 30 64 54 88 36 105 95 1 77 18 8 42 32 59 49 83
73 21 90 124 114 62 3 37 27 61 44 78 68 102 50 119 109 36 61 2 36 26 60 8 77 67 101
49 118 108 14 4 31 21 55 45 121 62 96 86 34 103 9 127 33 16 50 40 74 22 91 81 115 63
4 122 28 18 94 35 69 59 7 76 110 100 48 117 23 13 47 123 64 54 88 36 105 95 1 119 18
8 42 32 108 49 83 73 21 90 124 114 20 3 37 27 61 9 78 68 102 50 119 109 15 5 81 22
56 46 122 63 97 87 35 104 10 0 34 110 51 41 75 23 92 82 116 106 5 123 29 19 29 112 117
68 70 46 83 75 44 99 20 101 81 33 52 27 12 36 63 124 16 4 16 60 50 5 30 99 5 123
29 12 46 36 70 18 87 77 111 59 0 118 24 14 41 31 120 103 51 120 110 16 92 33 23 57 47
123 64 98 88 36 105 73 111 82 110 18 73 22 84 104 115 3 33 94 56 18 125 23 54 88 21 4
115 21 11 45 28 62 52 86 34 103 93 127 117 16 6 40 30 57 47 81 71 12 97 86 38 45 63
53 87 35 104 94 0 76 66 7 41 117 107 48 82 72 20 89 123 113 61 95 36 26 102 8 77 67
101 49 39 108 14 90 80 21 55 3 121 62 96 86 34 68 9 127 75 109 50 40 74 22 91 81 115
63 53 122 22 57 18 91 127 70 96 122 54 60 107 7 5 116 106 12 123 29 19 53 1 70 60 94
84 111 101 7 125 24 14 48 38 114 55 89 79 113 96 2 120 26 9 43 33 67 57 84 74 108 98
125 115 21 11 87 28 62 52 86 69 103 93 127 110 16 6 40 116 57 47 81 71 98 88 122 112 11
1 35 25 59 42 76 66 100 83 117 107 13 89 30 20 54 44 71 61 95 85 112 102 8 126 50 104
105 90 29 98 4 80 70 11 45 35 111 17 86 76 68 92 64 47 123 113 54 88 36 26 60 1 77
67 101 42 32 108 14 4 73 21 55 45 114 62 96 86 27 61 9 127 33 121 117 82 40 116 39 12
26 20 11 32 23 84 33 18 17 123 13 3 79 113 54 44 95 60 127 68 102 92 40 109 15 5 81
115 56 46 122 28 97 87 121 69 101 81 80 69 55 2 67 96 35 112 45 109 26 112 63 46 36 112
53 87 77 25 94 0 118 24 100 41 31 65 13 82 72 106 54 123 113 19 9 85 26 60 50 126 67
101 91 39 108 14 4 38 114 74 57 47 81 15 37 122 7 25 15 91 125 115 56 4 38 28 97 45
79 69 103 44 120 110 16 85 33 23 57 126 74 64 98 88 29 64 2 34 64 41 66 100 41 31 107
13 3 72 106 54 32 120 85 110 16 6 75 42 25 15 42 32 66 56 83 73 107 97 45 114 20 10
44 27 61 51 85 68 102 92 126 74 15 5 39 29 11 122 112 18 1 35 25 59 7 76 66 100 48
110 55 103 85 64 99 72 119 11 108 52 56 81 79 31 60 127 96 46 12 20 20 42 103 14 84 15
21 123 106 54 123 113 19 95 36 26 60 50 126 67 101 91 39 108 14 4 80 21 55 45 79 27 96
86 120 68 9 127 33 109 50 40 74 64 12 81 115 105 53 122 28 18 52 35 69 59 93 41 110 100
6 82 23 13 47 37 113 54 88 78 26 95 1 119 67 8 42 32 66 14 83 73 107 55 124 114 20
10 37 27 61 51 127 68 102 92 40 109 15 5 39 115 56 46 80 28 97 87 121 69 77 77 18 71
77 11 37 35 81 67 51 92 103 13 65 89 121 44 20 6 51 18 108 79 19 27 60 10 88 2 57
84 14 41 63 15 36 19 49 116 57 91 39 29 98 4 122 70 11 45 35 111 17 86 76 24 58 127
117 23 99 40 30 64 12 2 71 105 53 43 112 18 8 84 118 59 49 125 31 100 90 124 72 13 3
37 113 103 44 78 26 16 85 119 109 57 126 32 22 98 4 73 63 11 45 114 104 10 86 27 17 51
127 12 30 20 54 44 71 61 95 85 97 115 105 11 87 28 18 52 0 69 59 93 83 31 100 6 124
72 13 47 37 71 54 88 78 112 60 1 119 25 101 42 32 66 56 4 73 107 97 45 114 20 10 86
27 65 84 58 79 97 45 35 69 10 0 76 110 51 41 117 23 13 82 30 64 54 123 29 105 95 36
70 18 8 42 111 59 49 17 99 2 41 108 14 83 31 21 55 124 114 33 65 65 103 38 18 90 54
110 23 42 77 15 110 29 94 77 67 101 49 118 108 14 90 31 21 55 45 72 62 96 86 34 103 9
127 75 16 50 40 74 22 91 81 115 63 4 122 28 18 45 35 69 59 7 76 110 100 48 117 23 13
47 30 64 54 88 36 105 95 1 77 18 8 42 32 108 49 83 73 21 90 124 114 62 3 37 27 61
9 78 68 102 50 119 109 15 5 32 22 56 46 122 63 97 87 35 104 10 0 34 17 51 41 75 23
1 56 17 39 62 91 54 76 16 97 37 89 12 66 59 108 110 117 58 41 31 107 48 82 72 20 89
123 113 61 2 36 26 60 8 77 67 101 49 118 108 14 90 80 21 55 45 121 62 96 86 34 103 43
120 35 22 74 4 80 105 46 80 70 18 87 121 111 110 43 126 5 38 54 30 20 54 44 71 61 95
85 33 102 8 126 32 15 49 39 73 21 90 80 114 62 3 121 27 17 44 34 68 58 6 75 60 32
20 59 27 43 117 96 28 11 87 77 18 52 0 118 59 93 41 31 65 6 124 72 106 47 37 113 19
88 78 26 60 50 119 25 101 91 32 66 14 4 73 107 97 45 79 20 10 86 120 105 18 39 116 12
71 47 30 20 47 37 71 61 88 78 112 102 50 119 25 15 49 32 66 56 90 73 107 97 3 79 20
10 44 34 61 51 85 75 102 92 126 116 64 5 39 29 63 46 80 70 104 52 121 111 17 7 34 24
58 48 75 65 99 89 37 106 12 2 36 19 53 43 77 60 94 84 118 66 7 125 31 21 48 38 72
62 89 79 113 103 9 120 26 16 50 33 67 57 91 39 108 98 123 20 89 33 51 12 80 45 73 62
71 65 45 44 72 22 31 14 90 31 21 55 3 121 62 96 86 34 103 9 127 75 109 50 40 116 22
91 81 115 63 4 122 28 104 94 35 69 59 7 76 110 100 48 117 23 13 89 123 64 54 88 36 105
95 1 77 18 8 42 118 108 49 83 73 21 90 124 114 62 96 37 27 103 9 78 68 102 50 119 109
15 91 81 22 56 46 122 63 97 87 35 104 10 0 76 110 51 41 0 25 94 0 118 24 7 41 31
65 13 82 72 106 96 123 113 19 9 85 26 60 50 126 67 101 91 125 108 14 4 38 114 55 45 79
27 96 86 120 110 9 127 33 23 99 40 74 64 98 81 115 105 11 87 28 18 52 0 69 59 93 83
110 100 6 124 72 13 47 37 113 54 88 78 112 95 1 119 25 101 42 32 66 14 83 73 107 97 124
 