P2
22 18
255
60 69 66 77 61 85 100 38 117 44 62 52 86 34 103 93 127 117 16 6 40 30
106 47 81 71 19 88 122 112 18 1 35 25 59 7 76 66 100 90 117 107 13 3
30 20 54 44 120 61 95 85 119 102 8 126 32 108 49 39 73 21 90 80 114 104
3 121 27 17 93 34 68 58 87 48 14 49 121 11 1 35 25 101 42 76 66 14
83 117 107 13 89 30 20 54 2 71 61 95 43 112 102 8 126 74 15 49 39 115
56 90 80 28 97 3 121 27 103 44 34 68 16 85 75 109 99 126 116 22 12 88
29 63 53 1 70 104 94 0 76 17 7 41 117 58 48 82 30 99 89 123 113 61
2 36 26 102 43 77 67 15 84 118 108 14 90 31 21 55 3 72 62 96 86 34
103 9 127 75 16 50 40 116 57 91 81 115 63 20 3 121 69 10 44 34 68 51
85 75 109 57 103 86 76 24 93 127 117 23 6 40 30 64 12 81 71 105 53 122
112 18 8 84 25 59 49 125 66 100 90 38 107 13 3 37 113 54 44 78 26 95
85 119 109 8 126 32 22 98 39 73 63 11 80 114 104 10 121 27 17 51 127 68
58 92 40 109 99 86 8 112 70 69 117 92 25 8 126 74 15 49 39 115 21 90
80 114 62 85 65 44 111 52 86 76 24 58 127 117 65 99 40 30 64 12 2 71
105 53 43 112 18 94 84 25 59 49 125 31 100 90 38 72 13 3 79 113 45 116
21 108 5 74 108 98 4 115 21 11 45 28 62 52 86 34 103 93 127 117 16 6
40 30 106 47 81 71 36 69 10 35 38 50 12 95 117 107 109 24 60 98 24 125
122 71 4 62 121 115 28 86 55 112 84 82 85 38 12 79 20 54 2 120 61 95
 