P2
124 75
255
43 66 119 16 85 119 109 15 91 32 22 56 4 73 63 97 87 35 104 10 0 76 17 51 41 117 58 92 82 116 64 5 123 29 105 46 36 70 18 87 77 111 101 49 118 24 14 90 31 65 55 3 72 106 96 2 78 19 9 43 119 60 50 84 74 22 91 125 115 63 4 38 28 104 45 79 69 103 51 120 110 16 92 33 23 57 5 74 64 98 88 36 105 11 1 77 18 103 57 96 75 44 107 112 79 17 43 17 41 32 45 36 19 95 36 26 60 8 77 67 101 49 118 108
14 4 80 21 55 45 121 62 96 86 120 103 101 32 59 36 36 50 56 72 125 21 87 126 23 92 126 116 64 5 39 29 63 46 80 70 104 52 121 111 17 7 34 24 58 48 75 65 99 89 37 106 12 2 36 19 53 43 77 25 94 84 118 66 7 125 31 21 48 38 72 62 10 79 113 103 51 120 26 16 50 33 67 57 91 39 108 98 4 122 21 11 45 35 62 52 86 76 24 93 127 117 23 6 40 30 64 12 81 71 105 53 122 112 18 8 35 25 59 49 125 66 112 116
55 124 30 20 96 37 71 61 9 43 112 102 50 84 25 15 49 125 115 56 90 38 28 97 3 121 69 10 44 34 110 16 85 75 23 57 126 116 22 98 39 29 63 11 1 70 104 52 42 111 17 7 83 24 58 48 124 30 99 89 71 23 88 50 108 10 23 39 71 74 41 31 106 89 37 106 96 2 78 68 9 43 33 109 50 84 74 22 91 125 115 21 97 38 28 62 10 79 69 103 51 120 110 16 6 82 23 57 47 123 64 98 88 36 70 11 1 35 111 52 42 76 24 9
13 14 71 67 60 62 71 64 41 70 55 122 63 97 45 35 69 10 0 76 110 51 41 117 23 13 82 30 64 54 123 29 105 95 36 70 18 8 42 111 101 49 83 24 14 90 124 65 55 3 37 27 96 2 78 68 9 43 119 109 50 84 32 22 56 24 68 34 2 20 10 44 120 110 51 85 75 23 92 126 116 64 5 39 29 105 11 80 70 104 52 121 111 17 93 34 24 58 6 124 65 99 89 37 106 12 2 78 112 53 43 77 25 94 84 118 66 7 125 31 107 97 38 72
62 10 79 113 103 51 120 26 16 92 126 67 57 91 39 108 98 79 62 45 79 69 103 51 120 110 16 6 33 23 57 47 123 64 98 88 36 105 11 1 35 18 52 42 76 24 93 83 117 65 6 124 30 20 47 37 71 61 9 78 112 102 50 119 25 15 49 125 66 56 90 38 107 97 3 121 20 10 44 34 110 51 85 75 23 92 126 116 22 5 39 29 63 11 80 70 104 52 121 111 17 7 34 24 7 86 69 113 92 124 98 46 23 17 90 111 28 54 18 97 115 105 53 87
28 18 52 0 118 59 93 41 31 100 6 82 72 13 47 37 113 19 88 78 26 60 1 119 25 101 91 32 66 14 4 73 107 55 45 114 20 10 86 120 61 51 127 33 102 92 40 74 15 5 39 115 105 46 80 28 18 87 121 69 59 0 34 24 100 6 75 65 13 47 116 106 12 88 16 47 30 106 96 37 71 61 9 78 112 102 50 84 25 15 49 125 66 56 90 38 107 97 3 79 69 10 44 34 110 51 85 75 23 57 126 116 64 98 39 29 63 11 80 70 104 52 42 111
17 7 83 24 58 48 124 65 99 89 37 71 12 2 36 112 53 43 77 25 94 84 118 66 56 125 31 21 97 38 72 62 10 44 113 103 51 85 80 93 47 115 109 44 114 99 61 55 16 125 81 92 110 16 83 24 100 6 2 121 90 43 47 77 86 116 43 34 52 98 62 122 66 116 51 122 18 24 41 66 97 89 48 124 83 0 85 83 106 84 102 92 126 74 64 5 39 115 105 46 80 70 115 8 43 51 0 104 122 112 18 94 35 25 59 7 125 66 100 90 38 107 13 3
79 20 54 44 120 26 95 85 119 67 8 126 28 11 122 28 18 52 0 69 59 93 41 110 100 6 124 23 13 47 37 113 54 88 78 26 95 1 119 25 101 42 32 66 14 83 73 107 97 88 8 19 80 29 20 45 79 69 10 86 120 110 51 85 33 23 57 126 74 64 98 39 115 105 11 1 70 18 52 42 111 59 93 83 24 84 59 77 32 77 95 36 61 2 36 26 83 46 124 69 102 64 80 37 46 115 91 81 115 105 4 122 28 18 52 35 69 59 93 76 110 100 6 82
23 13 47 37 64 54 88 78 105 95 1 119 67 8 42 32 3 66 77 60 8 77 67 101 49 39 108 14 4 80 21 55 45 121 27 96 86 120 68 9 127 33 109 50 40 74 22 12 81 115 105 53 122 28 18 94 35 69 59 7 41 110 100 6 82 23 13 47 123 64 54 88 78 26 95 1 119 67 8 42 32 108 14 83 73 107 55 124 114 20 96 37 27 61 9 127 68 102 92 70 9 40 7 1 84 113 91 30 64 5 81 71 105 46 36 112 18 24 25 110 93 123 109 117
101 21 39 29 105 11 1 70 14 28 52 25 29 12 5 10 100 68 42 107 25 72 55 3 72 62 96 86 113 103 9 127 75 16 50 40 116 57 91 81 115 63 4 122 28 104 45 35 69 17 86 76 110 100 48 117 23 13 89 30 64 54 88 71 105 95 1 77 18 8 42 118 59 49 83 73 21 90 124 114 62 3 37 27 103 44 78 68 102 50 119 109 15 91 32 22 56 46 73 63 97 87 35 104 10 0 76 17 51 41 75 58 92 82 116 64 5 123 29 105 46 36 70 60
8 77 111 101 49 118 24 14 7 12 123 71 61 95 36 112 102 8 77 25 15 49 118 108 56 90 80 21 70 29 79 4 115 63 53 87 28 104 94 0 11 21 0 67 8 42 32 108 14 83 73 21 55 124 114 20 96 37 27 61 9 127 68 102 50 40 109 15 5 81 22 56 46 127 37 52 15 72 78 96 86 120 110 58 127 33 23 99 40 74 64 98 81 115 105 11 87 28 18 52 0 69 59 93 83 110 100 6 124 72 13 47 37 113 54 88 78 112 95 1 119 25 101 42
32 66 56 83 73 107 97 45 114 20 10 86 27 61 51 85 68 102 92 126 74 15 5 39 115 56 46 80 70 97 87 121 111 59 0 34 24 100 41 75 65 99 47 116 106 12 88 64 31 69 98 25 8 126 74 108 49 39 115 21 90 80 28 62 3 121 27 103 93 34 68 16 6 75 109 57 47 116 22 12 88 122 63 53 1 35 104 94 0 76 66 7 41 117 107 48 82 30 20 89 123 113 61 95 36 26 102 8 77 67 15 49 118 108 10 45 122 63 83 7 127 91 94 122
0 67 8 42 118 108 49 83 73 21 90 124 114 62 96 37 27 61 9 29 103 66 82 37 71 76 70 84 102 92 40 74 15 5 39 115 56 46 80 28 18 87 121 69 59 0 34 24 100 6 75 65 13 47 116 106 54 88 29 19 53 1 119 60 94 42 32 101 7 125 73 14 48 38 114 20 89 79 27 61 2 120 26 102 92 33 67 15 5 74 108 56 46 115 55 38 28 104 45 79 69 17 86 120 110 16 127 33 23 57 5 74 64 98 88 115 105 11 1 28 18 52 42 118
59 93 83 117 100 6 124 30 106 47 37 71 19 88 78 112 102 1 119 25 15 91 32 66 56 4 73 107 97 3 114 20 10 44 120 61 51 33 38 70 109 6 40 30 99 5 81 71 12 46 122 112 53 87 35 25 59 0 118 66 100 41 31 107 13 82 72 106 54 44 113 19 95 85 26 60 8 126 67 101 91 39 73 14 4 80 114 55 45 121 27 17 86 120 68 58 127 33 109 99 40 74 64 12 46 115 105 53 87 116 99 89 123 106 12 2 36 112 53 43 77 67 94 84
118 108 56 125 31 21 97 38 72 62 96 79 113 103 9 85 26 16 50 126 67 57 91 81 108 98 4 122 70 11 45 35 69 52 86 76 110 93 127 117 23 99 40 30 64 54 81 71 105 95 43 112 18 8 84 25 59 49 83 66 100 90 124 72 13 3 37 27 54 44 78 68 95 85 119 109 57 126 32 22 56 39 87 124 55 18 108 79 10 116 117 34 23 35 59 42 32 66 14 83 73 107 55 124 114 20 10 37 27 61 51 127 68 102 92 126 109 15 5 39 22 56 46 80
28 97 87 121 111 10 0 34 24 100 41 75 65 13 82 116 106 12 123 29 19 53 1 70 60 94 84 111 101 7 125 24 14 48 38 114 55 89 79 113 96 2 120 26 9 43 33 67 15 84 74 108 98 125 115 21 11 87 28 62 52 0 69 103 93 127 110 16 6 40 116 57 47 81 71 98 88 122 112 11 1 35 25 101 42 76 66 22 26 5 43 2 113 85 16 127 75 16 6 40 116 57 47 81 29 19 88 122 112 60 1 35 25 101 42 76 66 100 48 117 107 13 89 30
20 54 2 71 61 95 85 33 102 8 126 74 15 49 39 115 21 90 80 114 62 3 121 27 103 44 34 68 58 6 75 109 99 47 116 22 12 88 29 63 53 87 35 104 94 0 76 17 7 41 117 107 48 82 72 20 89 123 113 22 119 102 50 40 74 15 5 81 115 56 46 122 28 97 87 35 69 59 0 34 110 100 41 75 23 13 82 116 64 54 88 29 19 95 1 70 60 8 42 32 101 49 83 73 14 48 124 8 14 125 73 118 76 88 71 61 9 78 112 102 8 119 25 15
49 125 66 56 90 38 107 97 3 121 69 10 44 34 110 51 85 75 23 92 126 116 22 98 39 29 57 127 41 51 76 110 51 41 75 23 13 82 116 64 54 123 66 35 60 78 68 16 50 40 109 57 91 59 71 54 2 120 26 95 85 33 38 56 46 122 28 97 87 121 69 59 0 34 110 100 41 75 23 13 82 116 106 54 88 29 19 95 1 70 60 8 42 92 58 120 25 12 122 45 28 104 45 35 69 17 7 76 110 100 48 117 23 13 89 30 64 54 88 36 105 95 1 77
18 8 42 118 59 49 83 73 21 90 124 114 62 3 37 27 73 98 39 73 63 11 80 114 104 10 121 27 17 51 127 68 58 92 40 109 99 5 123 22 12 46 36 112 53 87 77 25 94 0 118 24 100 41 31 65 13 82 72 106 54 123 113 19 9 85 26 60 50 126 67 101 91 125 108 14 4 0 97 113 15 102 41 110 16 92 82 23 57 5 123 29 98 46 50 22 57 24 101 113 10 79 113 103 51 120 26 16 50 33 67 57 91 39 108 98 4 80 21 11 45 35 62 52
86 76 24 93 127 117 65 6 40 30 64 47 81 71 105 53 122 112 18 8 35 25 59 49 125 66 100 90 58 8 50 72 110 52 43 91 10 83 4 6 4 11 87 23 77 66 29 99 82 72 20 89 123 113 61 2 36 26 60 8 77 67 101 49 118 108 14 90 31 21 55 45 121 62 96 86 34 103 9 127 28 36 98 108 9 67 120 13 29 93 57 83 21 43 13 124 114 62 96 37 27 61 9 78 68 102 50 40 109 15 5 81 22 56 46 122 63 97 87 35 69 10 0 34
110 51 41 75 23 92 82 116 64 54 123 29 19 95 36 70 60 8 42 111 101 49 83 24 14 48 124 12 22 12 50 63 66 64 84 87 120 64 45 86 103 59 100 104 57 0 58 57 40 23 57 47 81 64 98 88 122 70 11 1 35 25 52 42 76 66 14 83 117 107 55 124 30 20 54 37 71 61 95 43 112 102 8 84 25 15 49 39 66 56 90 80 28 97 3 121 27 10 44 34 68 16 85 75 109 57 126 116 22 12 39 29 63 53 1 70 104 94 42 111 17 7 41 24
58 48 82 30 99 89 123 113 12 2 36 26 53 43 77 67 15 84 118 108 14 125 31 21 55 3 72 62 96 44 113 103 9 127 26 16 50 40 116 57 91 81 97 38 21 97 87 28 62 52 0 34 103 93 41 75 16 6 40 116 106 47 81 29 19 88 122 70 60 1 35 25 101 7 76 66 14 48 117 107 55 89 30 20 54 2 120 61 95 43 33 102 8 126 74 15 49 39 115 21 90 80 28 62 3 121 27 103 93 34 104 40 34 6 94 89 10 49 112 63 44 108 126 74
64 98 39 29 105 11 29 46 45 32 98 52 127 125 10 15 94 0 14 43 51 31 14 9 78 71 97 97 83 106 124 38 93 81 29 32 0 33 58 45 24 49 126 35 110 56 108 97 80 28 97 87 121 111 10 0 34 24 100 41 75 65 13 82 116 106 12 88 29 19 53 1 70 60 94 42 111 101 7 125 73 14 48 38 114 55 89 79 113 96 2 120 26 102 43 33 67 15 84 74 108 98 125 115 21 11 87 28 48 116 60 36 26 60 50 126 67 101 91 39 108 14 4 38
21 55 45 79 27 96 86 120 68 9 127 33 23 50 40 74 64 12 81 115 105 53 122 28 18 52 0 69 59 93 41 110 100 6 124 23 13 47 37 113 54 88 78 26 95 1 119 97 73 63 97 87 35 104 10 0 76 17 51 41 75 58 92 82 116 64 5 123 29 105 46 36 70 60 8 77 111 101 49 118 24 14 90 31 65 55 89 37 106 96 73 72 43 118 52 117 81 4 120 95 103 32 104 98 87 47 30 20 96 2 71 61 9 43 112 102 8 84 25 15 49 125 115 56
90 38 28 97 3 121 69 10 44 34 110 16 85 75 23 57 126 116 22 98 39 29 63 11 1 70 104 94 42 111 17 7 83 117 58 48 124 30 99 89 123 71 12 2 36 112 102 43 77 25 6 89 54 63 37 47 44 99 58 95 95 15 113 106 119 38 2 27 61 2 120 68 102 43 33 109 15 84 74 108 56 46 115 21 97 87 28 62 52 84 71 2 17 1 67 3 15 2 62 50 52 52 40 60 69 72 106 64 7 106 38 88 18 1 119 25 101 42 32 66 14 83 73 107
97 124 114 20 10 86 27 61 51 127 68 102 92 126 109 15 5 39 115 56 46 80 28 97 87 121 111 59 0 34 24 100 41 75 65 99 82 116 106 12 88 29 19 53 1 70 60 94 84 111 101 7 125 73 14 48 38 114 55 89 79 113 96 2 120 26 102 43 33 67 15 84 74 108 98 46 115 11 26 11 71 105 95 1 70 18 8 42 95 71 61 95 85 112 102 8 126 25 15 49 39 73 56 90 80 114 97 3 121 27 103 44 34 68 58 85 75 109 99 126 116 22 12 46
29 63 53 87 70 104 94 0 111 17 7 41 31 58 48 82 72 99 89 123 113 12 2 36 26 60 43 77 67 101 84 118 108 14 90 31 21 55 45 72 62 96 86 113 103 9 127 33 16 50 40 74 57 116 99 47 116 106 12 2 78 19 53 43 119 60 94 84 118 66 7 125 31 107 48 38 72 20 89 79 113 103 51 120 26 16 92 33 67 57 5 74 108 98 4 80 88 71 61 9 78 112 102 8 119 25 15 49 125 66 56 90 38 107 97 3 121 69 10 44 34 110 51 85
75 109 92 126 116 22 98 39 29 63 11 80 70 104 94 121 111 17 7 83 24 58 48 124 65 99 89 123 106 12 2 36 112 53 43 77 25 94 84 118 108 56 125 31 21 97 38 104 13 80 21 97 3 121 27 96 44 34 68 9 85 75 109 50 126 82 46 21 11 120 16 77 91 62 4 51 20 18 111 91 3 21 11 87 121 62 52 86 34 24 93 118 56 58 83 46 13 18 36 26 60 50 126 67 101 91 39 108 14 4 80 21 55 45 79 27 96 86 120 68 9 127 33 23
99 40 74 64 12 81 115 105 53 122 28 18 52 0 69 59 93 41 110 100 6 82 23 13 47 37 113 54 88 78 26 95 1 119 67 101 40 76 59 7 76 66 100 48 117 107 13 3 79 20 54 44 120 61 95 85 119 102 8 126 32 108 49 39 73 21 90 80 114 104 3 121 27 17 93 34 68 58 6 75 109 99 5 81 22 12 46 122 63 53 87 35 104 94 0 118 66 7 41 31 107 48 82 72 106 89 123 113 19 95 36 26 60 8 77 67 101 91 60 43 15 71 35 45
35 55 80 21 55 45 79 27 96 86 120 68 9 127 33 109 50 40 74 64 12 81 115 105 53 122 28 18 94 35 69 59 93 41 110 100 6 82 23 13 47 123 113 54 88 78 26 95 1 119 67 8 42 32 66 14 83 73 107 55 124 114 20 96 37 27 61 51 127 68 102 92 40 109 15 5 81 115 56 46 80 28 97 87 121 69 10 0 59 105 74 66 49 39 115 56 90 80 28 97 3 121 27 103 44 34 68 16 85 75 109 57 126 116 22 12 88 29 63 53 1 70 104 94
0 76 17 7 41 117 58 48 82 30 99 89 123 113 61 2 36 26 102 43 77 67 15 84 62 106 31 98 39 73 63 11 80 114 104 52 86 27 17 93 127 68 58 92 40 109 99 5 81 71 12 46 36 112 53 87 77 25 94 0 118 66 100 41 31 65 13 82 72 106 54 123 113 19 95 85 26 60 50 126 67 101 91 39 73 14 4 40 24 48 54 98 40 77 54 96 8 63 33 11 117 55 49 107 50 110 69 106 78 35 21 28 101 9 37 92 8 3 0 49 82 65 55 3
72 106 96 44 113 19 9 43 119 60 50 84 32 101 91 125 73 14 4 38 28 104 45 79 69 17 86 120 110 58 127 33 23 57 5 74 64 98 46 115 105 11 87 3 21 11 45 121 62 52 86 76 103 93 127 117 65 6 40 30 106 47 81 71 105 88 122 112 18 94 35 25 59 7 76 66 100 90 117 107 13 3 79 20 54 44 120 61 95 85 119 67 8 126 32 108 49 39 73 63 90 80 114 104 52 121 27 17 93 34 68 58 92 75 109 99 5 81 22 12 46 122 63 53
87 77 25 94 0 118 66 7 41 31 65 48 82 72 106 54 123 113 19 95 36 26 60 50 77 67 101 91 54 79 68 100 83 66 100 90 124 107 13 3 37 113 54 44 78 68 95 85 119 109 57 126 32 22 98 39 73 63 97 80 114 104 10 86 27 17 51 41 68 58 92 82 109 99 5 123 71 12 46 36 70 53 87 77 111 59 0 118 24 100 41 31 65 55 82 72 106 96 44 113 19 9 85 26 60 50 84 67 101 91 125 73 14 4 38 28 55 45 79 69 96 86 120 110
58 127 33 23 57 40 74 64 98 46 115 105 11 87 28 18 52 42 69 59 93 83 31 100 6 124 30 13 47 37 76 78 79 34 50 21 99 41 110 64 87 70 60 94 42 111 101 7 83 24 14 48 124 65 55 89 79 27 96 2 120 68 9 43 33 67 50 84 74 108 56 125 108 98 46 115 21 11 45 28 62 52 86 34 103 93 127 75 16 6 40 30 106 47 81 71 19 88 122 112 60 1 35 25 59 7 76 66 100 48 117 107 13 3 30 20 54 44 120 61 95 85 33 102
8 126 32 108 49 39 73 21 90 80 114 62 3 121 27 17 93 34 68 58 6 75 109 99 5 116 22 12 46 122 63 53 87 35 104 94 0 118 17 7 41 31 107 48 82 72 20 89 123 113 19 95 36 26 60 8 77 67 22 2 40 46 57 86 80 65 20 87 121 62 52 0 34 103 93 41 75 65 6 40 116 106 47 81 29 19 88 122 70 60 94 35 25 101 7 76 66 14 48 38 107 55 89 0 27 74 111 59 89 50 27 17 22 82 116 106 12 81 29 19 53 122 70 15
10 24 23 69 60 96 62 45 51 99 109 22 103 54 102 49 106 59 47 96 87 122 10 48 21 122 69 68 126 45 112 103 125 28 55 121 18 87 121 111 59 0 34 24 58 41 75 65 99 47 116 106 12 88 29 19 53 43 119 60 94 84 32 101 7 125 73 14 48 38 72 20 89 79 113 61 2 120 26 102 43 33 67 57 5 74 108 98 46 115 21 11 45 121 62 52 86 34 103 93 127 75 16 6 40 30 106 47 81 71 19 88 122 112 60 1 35 25 59 7 76 66 100 48
117 107 13 3 30 20 54 44 120 61 95 85 33 102 8 126 81 106 47 81 71 19 88 122 112 18 1 35 25 59 7 76 66 100 48 117 107 13 3 30 20 54 44 120 61 95 85 33 102 8 126 125 100 101 84 74 22 91 125 115 63 4 38 28 62 10 79 69 103 51 120 110 16 92 33 23 57 47 123 64 98 88 36 105 11 1 77 18 52 42 44 127 79 119 0 123 126 24 70 36 52 57 33 111 46 65 106 22 57 6 99 115 102 61 59 14 11 102 48 119 28 30 52 123
124 113 114 95 56 48 62 19 0 15 118 99 81 105 115 49 5 94 23 45 50 58 110 13 38 107 13 3 79 20 54 44 120 61 95 85 119 67 8 126 32 108 49 39 73 21 90 80 114 104 29 78 78 111 94 112 102 8 126 74 15 49 39 115 56 90 80 114 97 3 121 27 103 44 34 68 16 85 75 109 99 126 116 22 12 88 29 63 53 1 70 104 94 0 76 17 7 41 117 58 48 82 30 99 89 123 113 61 2 36 26 102 43 77 67 101 84 118 108 14 90 31 21 55
3 91 53 56 22 4 18 90 92 122 67 42 43 99 4 61 107 87 101 11 101 27 5 73 56 4 122 63 97 87 35 69 10 0 76 110 51 41 75 23 92 82 116 64 54 123 29 105 95 36 70 60 8 42 111 101 49 83 24 14 90 124 65 55 89 37 27 96 2 78 68 9 43 119 109 50 84 74 22 56 125 115 63 97 102 114 72 32 36 39 64 98 23 55 82 75 36 54 44 78 26 16 85 119 109 57 126 32 22 98 39 73 63 11 45 114 104 10 86 27 17 51 127 68
58 92 40 30 99 5 123 71 12 46 36 112 53 87 77 111 59 0 118 24 100 41 31 65 13 3 72 106 96 44 113 19 9 70 46 36 70 60 8 77 111 101 49 118 24 14 48 31 65 55 89 37 106 96 2 78 19 9 77 14 103 111 104 6 57 116 84 62 60 64 47 37 113 19 88 78 26 60 1 119 25 101 42 32 66 14 4 73 107 97 45 114 20 10 86 27 61 51 127 33 102 92 126 74 15 5 21 4 80 21 11 45 121 62 52 86 76 122 105 95 1 77 18 8
42 118 59 49 83 73 100 90 124 114 62 3 37 27 103 44 78 68 102 50 119 109 15 91 32 22 56 4 73 63 97 87 35 104 10 0 76 17 51 41 75 58 92 82 116 64 5 123 29 105 46 36 70 60 87 77 111 101 49 118 24 14 90 31 65 55 89 37 106 96 2 78 19 9 43 119 60 50 84 74 22 91 125 115 63 4 38 28 62 45 79 69 100 25 36 44 43 14 66 108 46 71 105 46 36 112 18 87 77 25 59 0 118 24 100 90 31 65 13 3 72 106 54 44
113 19 9 85 119 60 50 126 32 101 91 125 73 14 4 38 114 104 45 79 27 17 86 120 110 58 92 33 23 99 5 74 64 12 46 115 105 11 87 77 18 68 22 6 24 14 48 124 65 55 89 37 27 96 0 58 51 27 10 0 76 110 51 41 75 23 92 82 116 64 5 123 29 105 95 36 70 60 8 77 111 101 49 118 24 14 90 124 65 55 89 37 106 96 2 78 13 44 45 1 23 68 69 24 77 15 78 107 23 114 4 122 28 104 45 35 69 17 86 76 110 100 48 117
23 13 89 30 64 54 2 71 105 95 1 77 18 8 42 118 59 49 83 73 21 90 124 114 62 3 37 27 103 44 78 68 102 50 119 109 15 91 32 22 56 4 73 63 97 87 35 104 10 0 76 17 51 41 75 58 92 82 116 64 5 123 29 105 46 36 20 59 33 125 108 56 46 115 21 97 87 28 62 10 0 34 103 93 41 75 60 54 61 44 27 61 51 85 33 102 92 126 74 15 5 39 29 56 46 80 70 18 87 121 111 17 0 34 24 58 6 75 65 99 47 116 106 12
2 29 19 53 43 119 60 94 84 32 101 7 125 111 35 79 53 78 112 53 43 77 25 94 84 118 66 56 125 31 107 97 38 72 62 10 79 113 103 51 85 26 16 50 126 67 57 91 39 108 98 4 80 70 11 45 35 111 52 86 76 24 93 127 117 65 99 40 30 64 12 81 71 105 53 43 112 18 8 84 25 59 49 125 66 100 90 38 72 13 3 10 7 11 81 57 31 42 127 28 30 59 113 34 9 45 26 86 31 40 73 4 120 59 93 34 24 100 6 75 65 13 47 37
106 12 88 78 19 53 1 119 60 94 42 32 66 7 125 73 107 48 38 114 20 89 79 97 80 28 97 87 121 111 10 0 34 24 100 41 75 65 99 82 116 106 12 123 29 19 53 1 70 60 94 84 111 101 7 125 24 14 48 38 114 55 125 24 63 81 71 105 95 71 20 24 35 7 12 70 16 58 77 87 99 88 77 63 82 102 2 125 108 98 46 115 21 11 87 121 62 52 0 34 103 93 127 75 16 6 40 116 106 47 81 29 19 88 122 112 60 94 35 25 101 7 76 66
100 48 117 107 13 89 79 20 54 2 120 61 95 85 33 102 8 126 74 108 49 39 115 21 90 80 114 62 52 121 27 103 93 34 68 16 23 23 111 94 42 32 101 7 125 73 14 48 38 114 55 89 79 27 61 2 120 26 102 43 33 67 15 84 74 108 98 46 115 21 11 87 67 114 123 84 23 92 126 74 64 5 39 115 105 46 80 70 18 52 121 111 59 93 34 24 100 6 75 65 99 47 37 106 12 88 72 48 38 72 62 10 79 113 103 51 120 26 16 50 33 67 57 91
39 108 98 4 80 21 11 45 35 62 52 86 76 24 93 127 117 23 6 40 30 64 47 81 71 105 53 122 112 18 8 35 25 59 49 125 66 100 90 38 107 13 3 37 20 54 44 78 26 95 85 119 109 8 126 32 22 49 39 73 63 30 49 84 86 25 94 0 76 66 100 41 31 107 13 82 72 20 54 123 113 67 67 82 95 68 53 70 123 106 96 44 113 19 9 85 119 60 50 126 32 101 91 125 73 14 4 38 114 104 45 79 27 17 86 120 110 58 92 33 23 99 5 74
64 12 46 115 105 11 87 77 18 52 0 118 59 93 83 31 100 6 124 72 106 47 37 113 19 88 78 112 60 1 119 125 19 44 113 19 9 85 26 60 50 84 32 101 91 125 73 14 4 38 114 55 45 79 69 17 86 120 110 58 127 33 23 57 40 74 64 98 46 115 105 11 87 28 18 52 42 118 59 93 83 31 100 6 124 72 13 47 37 71 19 88 78 112 60 1 119 25 101 42 32 66 56 4 73 107 97 45 114 20 10 44 27 61 51 85 33 102 92 126 74 15 5 39
29 105 46 80 70 18 87 121 111 59 0 34 24 58 6 75 65 99 47 116 106 55 121 108 46 115 15 86 57 11 25 103 118 16 67 50 126 67 57 91 39 108 98 4 122 21 11 45 35 111 52 86 76 24 93 127 117 23 6 40 30 64 12 81 71 105 95 122 112 18 8 35 25 59 49 125 66 100 90 124 107 13 3 37 113 54 44 78 26 95 85 119 109 8 126 32 22 98 39 73 63 11 80 114 104 90 80 69 74 16 104 76 85 45 16 78 113 46 118 65 20 66 20 53
106 18 122 119 15 65 60 113 87 2 98 37 110 44 37 77 124 86 69 17 7 41 110 100 48 82 23 13 89 123 64 54 2 36 26 95 1 77 67 8 42 118 108 14 83 73 21 55 124 114 62 96 37 27 103 9 127 68 102 50 40 109 15 91 81 22 56 4 122 28 97 87 35 69 10 0 76 110 100 41 97 10 113 119 48 31 107 48 38 72 20 10 79 113 103 51 120 26 16 92 33 67 57 91 39 108 98 4 80 21 11 45 121 52 36 125 57 121 11 1 35 25 52 42
76 66 14 83 117 107 55 124 30 20 54 37 71 61 95 43 112 102 8 126 25 15 49 39 66 56 90 80 28 97 3 121 42 28 82 79 88 112 20 80 86 87 105 53 43 77 18 8 84 118 108 49 125 31 21 90 38 72 62 3 37 113 103 9 78 26 16 50 119 67 57 91 32 22 98 4 122 63 11 45 59 59 107 124 114 56 95 54 123 116 61 67 112 92 120 0 108 74 121 122 38 56 102 63 120 62 111 11 34 42 12 79 20 54 2 120 61 95 85 33 102 8 126 74
108 49 39 115 21 90 80 114 62 52 121 27 103 93 34 68 58 6 75 109 99 47 81 22 12 88 122 63 53 87 35 104 94 0 76 66 7 41 117 107 48 82 72 20 54 123 113 61 95 36 26 102 8 73 94 75 5 1 17 110 17 44 7 1 16 127 110 16 6 40 116 57 47 81 29 98 88 122 112 11 1 35 25 101 42 76 66 100 83 117 107 13 89 30 20 54 2 71 61 95 85 112 102 8 126 74 15 49 39 115 56 90 80 114 97 9 122 116 13 82 116 106 54 123
29 19 95 1 70 60 94 42 111 101 7 83 24 14 48 124 114 55 89 79 27 96 2 120 68 9 43 33 67 15 84 74 108 56 125 115 21 97 38 28 62 52 0 69 103 93 41 110 16 6 82 116 57 47 81 29 98 88 122 70 11 1 35 25 101 42 76 66 14 83 2 9 100 17 16 120 107 117 82 87 2 107 127 75 39 84 122 50 126 23 57 126 116 64 98 39 29 105 11 1 70 104 52 42 111 17 93 83 24 58 48 89 88 99 69 75 100 41 75 65 13 82 116 106
12 88 92 9 92 47 100 124 30 101 4 10 33 58 92 33 23 88 125 98 31 16 90 115 56 90 80 28 97 3 121 27 10 44 34 68 16 85 75 109 99 126 116 22 12 88 29 63 53 1 70 104 94 0 111 17 7 41 117 58 48 82 30 99 89 123 113 12 2 36 26 102 43 77 67 101 84 118 108 14 125 31 21 55 3 72 62 96 86 82 68 7 22 53 17 28 104 99 117 107 55 89 30 20 54 2 120 61 95 43 33 102 8 126 74 15 49 39 115 21 90 80 28 62
3 121 27 103 93 34 68 16 6 75 109 57 47 116 22 12 88 122 63 53 9 64 28 120 108 85 103 93 127 117 65 6 40 30 106 47 81 71 19 88 122 112 18 94 35 25 59 7 76 66 100 90 38 107 13 3 79 20 54 44 120 61 95 85 119 67 8 126 32 108 49 39 73 21 90 80 114 104 52 121 27 17 93 34 68 58 92 40 109 99 5 81 90 68 51 127 68 58 92 82 30 99 5 123 71 12 46 36 112 53 87 77 111 59 84 122 13 16 110 122 61 95 36 26
102 8 126 67 15 49 111 87 77 111 101 49 118 24 14 48 31 65 55 89 72 106 96 2 78 19 9 43 33 60 50 84 74 101 91 125 115 63 4 38 28 62 45 79 69 103 86 120 110 16 6 33 23 57 47 74 64 98 88 36 105 11 1 35 18 52 42 76 59 93 83 117 65 6 124 30 20 47 37 71 61 88 78 112 102 8 119 25 15 49 32 84 63 56 104 105 62 81 105 32 41 10 56 125 110 41 108 14 83 31 21 55 124 114 62 96 37 27 103 9 127 68 16 50
40 109 15 91 81 22 66 127 60 106 41 30 10 19 95 54 68 98 72 90 80 114 62 3 121 27 17 44 34 68 58 6 75 109 99 47 116 22 12 46 29 63 53 87 35 104 94 0 76 17 7 41 31 107 48 82 72 20 89 123 113 61 2 36 26 60 8 77 67 101 49 118 108 14 4 31 21 55 45 121 62 96 86 34 103 9 127 33 16 50 40 74 22 91 81 115 63 4 122 28 18 94 35 69 59 7 76 110 100 6 117 23 13 47 123 64 54 88 36 87 85 99 44 81
23 117 70 49 98 24 38 20 123 5 38 37 104 45 79 69 17 86 120 110 58 127 33 23 99 5 74 64 98 46 115 105 11 87 28 18 52 0 118 59 93 83 31 100 6 124 72 13 47 37 71 19 88 78 112 60 1 119 25 101 91 32 21 94 93 0 48 66 11 71 21 1 7 96 24 25 52 103 107 8 13 63 100 117 58 58 58 51 106 122 110 86 76 110 100 48 117 23 13 89 30 64 54 88 71 105 95 1 77 18 8 42 32 59 49 83 73 100 90 124 114 62 3 37
27 61 44 78 68 102 85 119 109 15 91 32 22 56 46 73 63 97 87 35 104 10 0 76 17 51 41 75 58 92 82 116 64 5 123 29 19 46 36 70 60 87 77 111 101 49 118 60 56 2 23 33 81 43 25 113 61 86 120 61 51 127 33 102 92 126 74 64 5 39 115 105 46 80 28 18 87 121 111 59 93 123 6 11 76 3 114 62 52 121 27 103 93 127 68 16 6 40 109 99 47 81 71 12 88 122 112 53 1 35 25 94 0 76 66 100 41 117 107 13 82 72 20 54
123 113 102 54 38 56 46 80 28 97 87 121 69 10 0 34 110 100 41 75 65 13 82 116 106 54 88 29 19 95 1 70 60 94 42 111 101 7 83 73 14 48 38 114 55 89 79 27 96 2 120 68 102 43 33 67 15 84 74 108 56 97 86 69 17 7 76 110 58 48 117 23 13 89 123 64 54 2 36 105 95 43 77 18 8 42 118 108 49 83 31 21 90 124 72 62 3 37 27 103 9 78 68 16 50 119 109 57 91 81 22 56 4 122 63 97 45 35 104 10 0 76 110 70
52 4 99 38 62 60 46 53 99 22 5 81 22 12 46 122 63 53 87 35 25 94 0 118 66 7 50 64 27 60 100 53 112 51 78 60 17 127 25 12 56 100 80 127 89 84 91 16 72 49 7 96 37 20 96 37 27 61 9 127 68 102 50 40 109 15 5 81 115 56 46 122 28 97 87 121 69 10 0 34 110 100 41 75 23 13 82 116 106 54 123 29 19 95 1 70 60 8 42 111 101 7 83 73 14 48 124 114 55 89 37 21 108 121 64 69 70 21 23 75 7 69 95 55
63 101 57 44 29 109 59 42 118 108 49 83 31 21 90 124 114 62 96 37 27 103 9 78 68 102 50 119 9 127 33 109 50 40 74 64 91 81 115 105 53 122 28 18 94 35 69 59 93 76 110 100 6 82 76 9 21 43 69 66 7 85 77 63 116 102 24 52 64 3 37 32 15 5 39 115 56 46 80 70 97 87 121 111 10 0 34 24 100 41 75 65 99 82 116 106 12 123 29 19 53 43 70 60 94 84 111 101 50 90 32 82 110 67 2 20 10 86 120 25 22 102 127 33
102 92 40 74 15 5 39 115 56 46 80 28 18 87 121 69 59 0 34 24 100 6 75 65 13 47 116 106 12 88 29 19 53 1 119 60 94 42 32 101 7 125 73 14 48 38 114 20 89 79 27 61 2 120 26 102 43 33 67 15 5 74 108 98 46 115 21 11 87 121 62 52 0 34 103 93 127 75 16 6 40 116 106 47 81 29 1 19 9 43 33 60 50 84 74 22 91 125 115 21 4 38 28 62 45 79 69 103 51 120 110 16 6 33 23 57 47 123 64 98 88 36 105 11
1 35 18 52 42 76 24 93 83 117 65 6 124 30 20 47 37 71 61 9 78 112 102 8 119 25 15 49 125 66 56 90 38 107 97 3 121 20 10 44 34 110 51 93 73 9 97 115 98 88 115 105 11 1 77 18 52 42 76 59 93 83 117 100 6 124 30 20 47 37 71 61 88 78 112 102 50 119 25 15 49 32 66 56 90 73 107 97 3 79 20 10 44 34 61 51 85 75 102 92 126 116 64 5 39 29 63 46 80 70 104 52 121 111 17 7 34 24 58 48 75 65 99 89
37 106 12 2 36 19 53 43 77 60 94 84 118 66 7 125 31 21 48 38 72 62 89 79 113 103 97 111 9 124 77 95 43 33 67 57 126 74 108 98 39 115 21 11 80 28 62 52 86 27 103 93 127 68 16 6 40 109 57 47 81 71 12 88 122 117 93 83 117 107 55 124 30 20 54 37 71 61 95 78 112 102 8 84 25 15 49 39 118 14 115 20 93 11 8 15 87 53 36 26 102 43 77 67 101 84 118 108 14 90 31 21 55 3 72 62 96 86 34 103 9 127 75 16
50 40 116 57 91 81 115 63 4 122 28 104 45 35 69 17 86 76 110 100 48 117 23 13 89 30 64 54 88 36 105 95 1 77 18 8 42 118 59 49 83 73 21 90 124 114 62 3 37 27 103 44 78 68 102 50 119 109 15 91 32 22 56 46 73 63 97 87 35 104 10 0 76 17 51 41 75 23 72 12 56 116 55 58 70 46 5 83 55 73 85 52 32 66 98 42 105 23 78 115 96 121 27 17 86 120 68 58 127 33 109 99 5 74 22 12 46 115 105 53 87 28 18 94
0 118 59 93 41 31 100 6 82 72 13 47 123 113 19 88 78 26 60 1 119 67 101 42 32 108 14 4 73 107 55 45 114 20 96 86 120 61 9 104 113 9 36 96 18 102 8 73 51 44 77 45 121 28 80 89 8 64 39 96 101 81 83 85 110 16 6 75 109 57 47 81 22 98 88 122 63 53 1 35 104 94 42 76 66 7 83 117 107 48 82 30 20 89 123 71 61 95 36 112 102 8 77 67 15 49 118 108 98 12 71 6 122 122 27 52 24 119 43 5 112 95 43 33
102 8 84 74 15 49 39 115 21 90 80 28 62 3 121 69 103 44 34 68 16 6 75 109 57 47 116 22 98 88 29 63 53 1 35 104 94 42 76 17 7 41 117 107 48 82 30 20 89 123 71 61 2 36 26 102 8 77 67 15 49 118 108 56 90 31 21 51 53 25 5 8 63 105 32 84 43 20 86 67 85 86 113 125 6 6 64 21 61 18 94 33 102 8 84 74 15 49 125 69 80 84 28 48 59 11 112 34 34 52 42 76 24 93 83 117 65 55 124 30 20 96 37 71
61 9 43 112 102 8 84 101 27 4 8 24 16 120 101 60 58 91 74 22 91 81 115 63 4 122 28 104 94 35 69 59 7 76 110 100 48 82 23 13 47 123 64 54 88 36 105 95 77 24 73 36 106 6 54 86 75 49 33 67 50 40 116 22 91 81 29 63 4 122 44 5 55 50 114 45 60 31 35 23 49 68 55 81 48 35 53 43 77 25 94 84 118 66 7 125 31 21 97 38 72 62 10 79 113 103 51 120 26 16 50 126 67 57 91 39 108 98 51 34 110 51 41 75
23 92 82 116 64 5 123 29 19 95 36 70 60 8 77 111 101 7 118 24 14 48 124 65 55 89 37 106 96 2 120 19 9 43 33 109 50 84 74 22 91 125 115 21 97 38 28 62 10 79 69 103 93 120 110 16 6 82 23 57 47 123 64 98 88 122 105 11 1 35 111 52 42 76 24 93 83 117 107 55 124 30 20 115 118 100 101 52 2 91 54 35 80 83 64 89 123 64 54 2 36 105 95 1 77 67 8 42 118 108 49 83 31 21 90 124 114 62 96 37 27 103 9 78
68 18 1 77 18 8 42 118 59 49 83 73 100 90 124 114 62 3 37 27 61 44 78 68 102 85 119 109 15 91 32 22 56 46 73 63 97 87 35 104 10 0 76 17 51 41 75 58 92 82 116 64 5 123 29 105 46 36 70 60 87 77 111 101 49 118 24 14 48 31 65 55 89 72 106 96 2 78 19 9 43 33 60 50 84 74 22 91 125 115 63 4 38 28 62 45 79 69 103 51 120 110 16 92 33 23 57 47 74 64 98 88 36 105 11 1 35 18 52 42 42 115 98 122
71 52 95 85 112 80 94 76 63 77 28 32 76 84 37 7 110 77 91 67 57 91 81 29 98 4 122 28 11 45 35 69 52 86 76 110 58 127 117 23 13 40 30 64 54 2 71 105 95 1 112 18 8 42 25 59 49 83 31 100 90 124 114 13 3 37 27 54 44 78 68 16 85 119 109 15 126 32 22 56 39 73 63 97 45 114 104 78 89 60 17 0 118 66 7 41 31 65 48 82 72 106 89 123 113 19 95 36 26 60 50 77 67 101 91 118 108 14 4 80 21 55 45 79
62 96 86 120 68 9 127 33 23 50 40 74 64 91 81 115 105 53 122 28 18 52 35 7 99 38 107 13 3 79 113 54 44 120 26 95 85 33 67 100 10 124 63 97 38 114 104 10 79 27 17 51 115 5 123 29 19 46 36 70 60 87 77 111 101 49 118 24 14 48 31 65 55 89 72 106 96 2 120 19 9 43 33 60 50 84 74 22 91 125 115 21 4 38 28 62 45 79 69 103 51 120 110 16 6 33 23 57 47 74 64 98 88 122 105 11 1 35 18 52 42 38 35 12
37 71 61 2 36 112 102 43 77 25 15 49 118 108 56 90 31 21 97 3 72 62 10 44 34 103 9 85 75 16 50 126 116 57 91 39 29 63 4 122 70 104 45 35 111 17 7 76 110 58 48 117 23 99 76 52 42 76 66 14 83 117 107 13 124 30 20 54 37 71 61 95 43 112 102 8 126 25 15 49 39 66 56 90 80 28 97 3 121 27 10 44 34 68 16 85 75 109 57 126 116 22 12 39 29 63 53 1 70 104 94 0 111 17 7 41 24 58 48 82 30 99 89 123
113 12 2 36 26 102 43 77 67 15 84 118 108 14 125 31 21 55 3 72 62 96 86 113 103 9 127 26 16 50 40 116 57 91 81 115 98 4 122 28 11 45 35 69 17 86 76 110 100 102 85 75 109 57 126 116 22 98 39 29 63 11 80 70 104 94 42 111 17 7 83 24 58 48 82 65 99 89 123 71 12 2 36 112 53 43 77 67 15 84 118 108 56 125 31 21 97 38 72 62 96 44 113 103 9 85 26 16 50 126 67 57 91 81 29 98 4 122 70 11 45 35 69 52
 