P2
99 63
255
95 5 30 99 5 123 29 105 46 36 70 18 87 77 111 101 49 118 24 14 90 31 65 55 3 72 106 96 2 78 19 9 43 119 60 50 84 32 101 91 125 115 63 4 38 28 104 45 77 36 32 117 122 84 37 70 39 104 16 33 123 23 95 99 51 69 59 93 41 110 100 6 124 23 13 47 37 113 54 88 78 26 95 1 119 25 8 42 32 66 14 83 73 107 55 124 114 20 10
95 78 80 28 67 23 56 86 25 94 0 76 66 100 41 31 107 13 82 72 20 54 123 113 61 95 85 26 60 8 126 67 101 49 39 73 14 4 80 114 55 45 121 27 96 86 34 68 58 127 33 109 99 40 74 22 12 81 115 63 53 87 28 18 94 0 69 59 7 41 22 5 123 29 105 46 36 70 60 87 77 111 101 49 118 24 14 90 31 65 55 89 72 106 96 2 78 19 9
43 33 60 50 84 74 101 91 4 19 36 77 50 80 4 6 126 93 10 77 18 52 42 118 59 93 83 31 100 6 124 30 106 47 37 71 19 88 78 112 60 1 119 25 15 91 32 66 56 4 73 107 97 45 114 20 10 44 120 61 51 85 33 102 92 126 74 64 5 39 29 105 46 80 70 18 87 121 111 17 93 116 61 122 13 32 118 20 25 45 26 19 44 53 15 74 47 55 94
29 96 2 120 19 9 43 33 102 50 84 74 15 38 101 48 115 14 4 38 28 97 45 79 69 10 86 120 110 16 85 33 23 57 126 74 64 98 39 115 105 11 28 4 122 28 18 45 35 69 59 7 76 43 78 107 45 79 62 10 79 69 103 93 41 110 16 6 82 23 57 47 81 64 98 88 122 70 11 1 35 111 52 42 76 66 14 83 117 107 55 124 30 20 96 37 71 61 95
43 112 102 8 84 25 15 49 125 66 56 90 80 28 97 3 121 69 10 44 34 68 51 85 75 109 57 126 116 22 98 39 29 63 53 1 70 104 94 42 111 17 7 83 24 58 48 66 91 32 66 56 4 73 107 97 3 114 20 10 44 120 61 51 85 33 102 92 126 116 15 5 39 29 105 46 80 70 18 87 121 111 17 93 34 24 58 6 75 65 99 89 116 106 12 2 78 19 53
43 119 60 94 84 118 101 7 125 31 107 48 38 72 20 89 79 113 103 51 120 26 16 92 33 67 57 5 74 108 98 4 80 21 11 45 121 62 52 86 76 103 93 127 117 65 6 69 120 98 93 39 37 24 126 12 4 116 94 102 85 33 18 68 18 93 12 43 79 104 10 0 69 103 51 41 110 16 92 55 106 52 51 17 50 38 21 97 87 28 62 10 0 34 103 93 41 75 16
6 82 116 106 47 123 29 73 49 39 73 63 90 80 114 104 52 121 27 17 51 34 68 58 92 75 109 99 5 81 22 12 46 36 63 53 87 77 104 94 0 118 66 7 41 31 65 48 82 72 106 54 123 113 19 9 36 26 60 50 77 67 101 91 39 108 14 4 38 21 55 45 79 62 96 86 120 68 9 127 33 23 50 40 74 64 12 81 115 105 25 30 8 33 27 3 121 27 17
93 34 68 58 6 75 45 57 5 85 11 104 34 105 124 59 42 118 59 49 83 31 100 90 124 72 62 3 37 27 103 44 78 68 16 50 119 109 15 91 32 22 56 4 73 63 97 45 35 104 95 126 102 31 125 108 56 125 115 21 11 87 28 62 52 0 69 103 93 41 75 16 6 40 116 57 47 81 29 98 88 122 70 60 1 35 25 101 42 76 66 14 83 117 107 13 89 30 20
54 2 71 61 95 43 112 102 8 126 74 15 16 76 83 7 27 27 1 72 5 116 64 54 123 29 105 95 36 70 18 8 42 111 101 49 83 24 14 90 124 65 55 3 37 27 96 2 78 68 9 43 119 109 15 84 74 22 56 125 115 63 97 38 28 104 10 0 69 103 51 67 27 10 36 60 4 105 50 99 78 43 68 24 127 113 44 111 17 86 76 38 30 48 57 10 56 115 55
87 70 60 8 77 111 101 49 118 24 14 48 31 65 55 89 37 106 96 2 78 19 9 43 33 60 50 84 74 22 91 125 115 63 4 38 28 62 10 79 69 103 51 120 110 16 6 33 23 57 47 123 64 98 88 36 105 11 1 35 18 52 42 76 24 93 83 117 65 6 124 30 20 47 37 71 61 9 78 112 102 50 119 25 15 49 125 66 56 17 77 82 107 69 42 112 20 73 127
15 55 10 56 4 46 71 105 95 36 70 18 8 42 111 59 49 83 24 14 46 29 12 46 36 70 60 87 77 111 101 0 118 24 14 90 31 65 55 89 72 106 96 2 113 19 9 43 119 60 50 84 74 101 91 125 115 14 4 38 28 104 45 79 69 103 86 120 110 16 92 33 23 57 47 74 64 98 88 115 105 11 1 77 18 52 42 76 59 93 83 117 100 6 124 30 106 47 37
71 61 88 78 112 102 1 119 109 47 97 125 122 35 0 6 119 41 13 86 11 113 39 32 43 105 39 106 47 123 29 19 53 36 70 60 94 35 111 52 33 69 121 32 14 119 9 127 75 109 50 40 74 22 12 81 115 63 53 122 64 53 78 19 53 43 119 25 94 84 118 66 7 125 31 107 48 38 72 20 10 79 113 103 51 120 26 16 92 33 67 57 91 39 108 98 4 80 21
11 45 121 111 52 86 76 24 93 127 117 65 6 60 43 26 102 43 33 67 15 84 74 108 56 125 115 21 11 87 28 62 52 0 69 103 93 41 75 16 6 40 116 57 47 81 29 98 88 122 70 60 1 35 25 101 42 76 66 14 83 117 107 13 89 30 20 54 2 71 61 95 43 112 102 8 126 74 15 49 39 115 56 62 11 60 103 106 95 54 103 118 25 91 121 22 103 35 102
8 77 25 15 49 118 108 56 90 31 21 97 3 121 62 96 44 34 103 9 85 75 109 50 126 116 22 91 81 29 63 4 122 70 104 94 35 111 17 83 47 112 6 49 96 57 117 24 21 121 121 46 93 19 104 66 93 62 111 63 98 68 109 20 16 0 81 37 80 83 22 91 39 73 63 4 38 114 104 45 79 27 17 51 120 68 58 92 33 23 99 5 74 64 12 46 36 105 53
87 110 86 76 30 123 86 50 6 116 117 102 98 96 65 77 124 107 97 3 114 20 10 44 27 61 51 85 68 102 92 126 116 15 5 39 29 56 46 80 70 97 87 121 111 17 0 34 24 58 41 75 65 99 89 116 106 12 2 29 19 53 43 70 60 94 84 97 78 37 72 82 78 39 65 118 5 30 114 69 20 13 24 49 83 24 14 48 124 65 55 89 37 27 96 2 120 68 9
43 33 109 15 84 74 22 56 38 3 77 70 120 41 61 75 108 79 69 87 32 31 33 61 107 59 22 5 123 71 12 46 36 112 53 87 77 25 59 0 118 24 100 41 31 65 13 82 72 106 54 44 113 19 9 85 26 60 50 126 67 101 91 125 73 14 4 38 114 55 45 37 20 3 37 27 61 9 78 68 102 50 45 80 63 53 1 70 104 94 42 111 17 7 83 24 58 48 82
30 99 89 123 71 12 2 36 112 53 43 77 67 15 84 118 108 56 125 31 21 55 3 72 62 96 44 80 85 29 5 23 13 89 123 113 54 82 6 89 105 14 119 32 82 43 95 93 32 101 7 83 73 14 48 38 114 55 89 79 27 61 2 120 68 102 43 33 67 15 5 74 108 56 46 115 21 97 87 28 62 52 0 34 103 93 41 75 16 6 40 116 57 47 81 29 107 48 100
0 105 66 49 39 115 21 90 80 28 62 3 121 27 103 44 34 68 16 6 75 109 57 47 116 22 12 88 29 63 53 1 35 104 94 42 76 17 7 41 117 58 48 82 30 20 89 123 71 61 2 36 26 102 8 77 67 15 49 118 108 14 90 31 21 55 3 121 62 96 44 34 103 9 127 75 16 50 40 116 22 91 81 29 63 4 122 28 104 114 14 25 63 73 54 91 47 68 118
126 77 109 3 107 85 110 16 85 75 109 57 126 116 22 98 88 29 63 11 1 70 104 94 42 111 17 7 83 117 58 48 124 30 99 89 123 71 61 2 36 112 102 43 77 67 15 84 118 108 56 90 31 21 97 3 72 62 96 44 113 103 9 85 75 16 50 126 116 57 91 81 29 63 4 122 70 104 45 35 69 17 86 76 110 58 48 117 23 99 89 30 64 54 39 62 60 114 35
78 11 122 70 60 1 35 111 101 42 76 66 14 48 117 107 55 89 30 20 96 2 87 125 24 2 55 37 46 101 9 113 103 9 127 75 16 50 40 116 57 91 81 115 98 4 122 28 104 45 35 69 17 86 76 110 100 48 117 23 13 89 30 64 54 2 71 105 95 1 77 18 8 42 118 59 49 83 73 100 90 124 114 62 3 37 27 103 44 78 68 102 85 119 109 15 91 32 22
56 4 73 63 97 87 35 104 10 0 76 17 51 41 75 58 92 82 116 64 5 123 29 105 46 36 70 60 87 77 111 101 49 118 24 14 90 31 65 55 89 72 33 12 109 80 112 95 85 33 102 8 126 74 108 49 39 73 21 90 80 114 62 3 121 27 17 93 34 68 58 6 75 109 99 47 116 22 12 46 122 63 53 87 35 104 94 0 76 66 7 41 31 107 48 82 72 20 89
123 113 61 95 36 26 60 8 77 67 101 49 118 108 14 4 80 21 55 45 121 62 57 49 6 110 100 6 124 72 13 47 37 71 54 88 78 112 60 98 81 71 19 88 122 112 67 43 33 67 57 5 74 108 98 46 115 21 11 45 28 20 75 120 95 79 22 31 105 36 124 76 47 75 93 83 117 65 6 124 30 20 47 37 71 61 9 78 112 102 50 119 25 15 49 32 66 56 90
38 107 97 3 121 20 10 44 34 61 51 85 75 23 92 126 116 22 5 39 29 63 11 80 70 104 52 40 23 13 89 30 64 54 88 36 105 95 1 77 18 8 42 32 59 49 83 73 21 90 124 114 62 3 37 27 61 9 78 68 102 50 119 109 15 91 32 22 56 46 122 63 97 87 35 104 10 0 76 17 51 41 75 23 92 82 116 64 5 123 29 19 46 36 17 0 76 17 7
41 117 58 48 82 72 20 89 123 113 61 2 36 26 60 43 77 67 101 49 118 108 14 90 31 21 55 45 72 62 96 86 34 103 9 127 75 16 50 40 74 22 91 81 115 63 4 122 28 104 45 35 69 59 7 76 110 100 48 117 23 13 47 30 64 54 73 21 32 41 110 45 22 117 113 21 75 28 81 20 54 123 113 61 95 36 26 102 8 126 67 15 49 39 108 14 90 80 21
55 3 121 27 96 44 34 68 9 127 75 109 50 40 116 22 12 81 115 63 53 122 28 104 94 0 69 17 7 41 110 100 29 26 117 85 115 110 90 54 121 27 17 86 34 68 58 127 75 109 99 5 51 69 8 57 91 28 61 0 69 103 51 41 75 16 92 82 116 57 47 123 29 19 88 36 70 60 1 77 111 101 42 76 24 23 113 52 64 7 36 126 109 99 47 116 22 12 88
122 63 53 1 35 104 94 0 76 17 7 41 117 107 48 82 30 20 89 123 113 61 95 36 26 102 8 77 67 101 49 118 108 14 90 80 21 55 3 121 62 96 86 34 103 9 127 75 109 50 40 116 22 91 81 115 63 53 122 28 104 94 35 8 125 31 118 81 107 29 67 38 21 11 87 28 62 52 86 69 103 93 127 75 16 6 40 116 57 47 81 71 98 88 122 112 60 1 35
25 101 42 76 66 100 48 117 107 13 89 30 20 54 44 71 61 95 85 33 102 8 126 74 15 49 39 73 56 90 80 114 62 3 121 27 103 44 34 68 58 6 75 109 99 47 116 22 12 88 29 63 53 87 35 104 94 0 76 17 7 109 71 107 16 52 70 98 123 20 91 18 36 26 60 8 77 67 101 91 39 108 14 4 80 21 55 45 121 27 96 86 120 68 9 127 33 109 50
40 74 22 12 81 115 105 53 122 28 18 94 35 69 59 93 41 110 100 6 82 23 13 47 123 113 54 88 78 26 95 1 119 67 8 42 32 108 14 83 73 107 55 124 114 20 96 34 105 86 30 7 90 3 51 68 47 28 63 120 10 0 34 24 100 41 75 65 13 82 116 106 12 88 29 19 53 1 70 60 94 42 111 101 7 125 73 14 48 38 114 55 89 79 27 96 2 120 26
102 43 33 67 15 84 74 108 98 46 115 21 11 87 28 62 52 0 69 103 93 127 75 16 6 40 116 57 47 81 29 98 88 122 112 60 1 35 25 101 42 76 66 14 83 117 107 13 89 30 20 54 2 71 61 95 85 33 102 8 126 74 15 49 39 115 56 90 80 38 63 4 38 28 104 45 79 69 103 86 120 110 16 92 33 23 57 5 74 64 98 88 36 105 11 1 77 18 52
42 118 59 93 83 117 65 6 124 93 111 46 54 19 36 36 19 9 85 119 60 50 84 32 101 91 125 73 14 4 38 114 104 45 79 69 17 86 22 114 22 123 97 33 100 39 108 14 90 80 21 55 45 121 27 96 86 34 68 9 127 75 109 50 40 74 22 12 81 115 63 53 122 28 104 94 35 69 59 7 41 110 100 48 82 42 25 15 49 125 66 56 90 38 107 97 3 121 20
10 44 34 110 51 85 75 109 92 126 116 22 5 39 29 63 11 80 70 104 94 121 111 17 7 83 24 58 48 124 65 99 89 123 106 12 2 36 112 53 43 77 67 94 84 118 108 7 125 31 21 97 25 38 82 74 72 120 42 5 96 31 85 68 16 85 75 109 99 126 116 22 12 88 29 63 53 1 70 104 94 0 111 17 7 41 117 58 48 82 30 99 89 123 113 12 2 36 26
102 43 77 67 101 84 118 108 14 90 31 21 55 3 72 62 96 86 113 103 9 127 75 16 50 40 116 57 91 81 115 98 4 122 28 104 45 35 69 59 86 76 110 100 127 117 23 13 89 30 64 54 88 71 105 95 1 77 18 8 42 118 59 49 83 73 100 90 124 114 62 3 37 27 103 44 78 68 102 85 119 109 15 91 32 22 56 46 82 0 109 73 78 127 99 94 53 16 108
4 68 69 93 76 24 14 83 117 107 55 124 30 20 96 37 71 61 95 43 112 102 8 84 25 15 49 125 66 56 90 80 28 97 3 121 69 10 44 34 110 16 85 75 109 57 126 116 22 98 39 29 63 11 1 70 104 94 42 111 17 7 83 24 58 48 82 30 99 89 123 71 12 2 36 112 102 43 77 67 15 84 118 108 56 125 31 21 97 3 72 62 96 44 123 68 93 55 80
89 68 122 120 7 104 93 95 14 100 1 15 26 65 83 23 45 61 8 31 56 5 75 22 113 55 73 21 11 45 114 62 52 86 27 17 54 118 74 16 46 29 105 46 36 70 18 87 77 111 59 49 118 24 14 90 31 65 55 3 37 106 96 44 78 19 9 43 119 60 50 84 32 22 91 125 115 63 4 38 28 104 45 79 69 17 51 120 110 16 92 33 23 57 5 74 64 98 46
36 105 11 1 77 18 52 42 118 24 93 83 117 65 6 124 30 106 47 37 71 19 9 78 112 102 50 119 25 15 91 32 66 56 4 38 107 97 56 86 30 40 23 99 89 30 64 12 2 71 105 53 43 112 18 8 84 118 59 49 125 31 5 9 117 14 83 117 107 55 89 30 20 54 2 71 61 95 43 112 102 8 126 74 15 49 39 115 56 90 80 28 62 3 121 27 103 44 34
68 16 85 75 109 57 47 116 22 12 88 29 63 53 1 70 104 94 42 76 17 7 41 117 58 48 82 30 99 89 123 113 61 2 36 26 102 43 77 67 15 49 118 108 14 90 31 21 73 60 90 60 85 119 109 50 84 32 22 91 125 73 63 4 38 28 104 10 79 69 17 51 120 110 58 92 82 23 57 5 123 64 18 43 7 122 37 50 101 116 94 119 25 15 84 32 66 56 125
31 107 97 3 72 20 10 44 113 61 51 85 26 16 92 126 116 57 5 39 29 98 46 80 72 117 1 62 74 95 6 42 68 40 88 13 124 79 13 62 14 21 25 84 115 98 103 109 114 97 45 35 104 10 0 76 17 51 41 117 23 92 82 116 64 5 123 29 105 46 36 70 18 8 77 111 101 30 15 22 5 81 22 12 46 36 112 53 87 77 25 94 0 118 24 7 41 31 65
13 82 72 106 54 123 113 19 9 85 26 60 50 126 67 101 91 39 108 14 4 38 114 55 45 79 27 96 86 120 68 9 127 33 23 99 40 74 64 12 81 115 105 11 87 28 18 52 0 69 59 93 41 110 100 6 124 72 13 47 37 113 54 88 78 26 95 1 119 25 101 42 32 66 14 83 73 29 100 53 13 27 34 112 48 23 39 59 77 67 15 49 39 108 14 90 80 21 55
3 121 62 96 86 34 68 9 127 75 109 50 40 116 22 91 81 115 63 53 122 28 104 94 35 69 17 7 41 110 100 48 82 23 13 89 123 64 54 2 36 26 95 1 77 67 8 42 118 108 49 83 73 51 77 113 82 13 103 59 38 94 119 116 113 26 122 124 12 18 89 28 97 3 79 69 103 44 34 50 19 50 49 105 7 96 74 47 111 100 74 120 117 19 32 15 5 81 22
56 46 80 28 97 87 121 69 10 0 34 110 100 41 75 65 13 82 116 106 54 123 29 19 53 1 70 60 94 42 111 101 7 83 24 14 48 38 114 55 89 79 27 96 2 120 68 9 43 33 67 15 84 74 108 56 125 115 21 11 87 28 62 52 0 69 103 93 41 110 16 6 40 116 57 47 81 29 98 88 122 70 11 1 35 25 101 42 76 66 14 83 117 107 55 124 30 20 74
92 0 27 27 65 49 123 72 94 94 109 83 126 44 20 15 122 62 103 0 41 24 100 41 31 65 55 82 72 106 96 123 113 19 9 85 26 60 50 84 67 101 91 125 73 14 4 38 114 55 45 79 69 96 86 120 110 58 127 33 23 57 40 74 64 98 81 115 105 11 87 28 18 0 88 106 96 2 78 19 9 43 33 109 50 84 74 22 91 125 115 63 97 38 28 62 10 79 69
103 51 120 110 16 92 82 23 57 47 123 64 98 88 36 105 11 1 77 111 52 42 76 24 93 83 117 65 55 124 30 20 96 37 71 61 9 78 112 102 50 84 25 15 49 125 66 56 90 38 107 97 3 79 69 10 44 34 110 51 85 75 52 92 46 46 38 78 85 23 102 52 97 22 58 19 68 69 22 47 81 22 12 88 122 63 53 87 35 25 94 0 76 66 7 41 117 107 48
82 72 20 54 123 113 61 95 76 73 4 104 101 9 12 79 113 54 2 120 26 95 43 33 67 57 126 46 29 19 46 36 70 60 87 77 111 101 7 118 24 14 48 31 65 55 89 72 106 96 2 120 19 9 43 33 60 50 84 74 22 91 125 115 21 4 38 28 62 45 79 69 103 51 120 110 16 6 33 23 57 47 74 64 98 88 122 105 11 1 35 18 52 42 76 24 93 83 117
107 6 124 30 20 47 37 112 122 40 61 25 27 94 35 69 59 7 76 110 100 48 82 23 13 54 47 81 54 78 41 81 69 66 81 37 53 46 106 101 52 120 99 60 64 124 30 20 54 123 71 61 95 36 112 93 64 82 21 120 72 87 105 95 1 77 18 8 42 118 108 49 83 73 21 90 124 114 62 96 37 27 103 9 78 68 102 50 119 109 15 91 81 22 56 4 122 63 97
87 35 104 10 0 76 110 51 41 75 23 92 82 116 64 5 123 29 105 95 36 99 68 118 39 115 3 58 9 63 51 0 83 52 57 33 45 61 36 19 9 85 26 60 50 84 67 101 91 125 108 14 4 38 114 55 45 79 69 96 86 120 110 58 127 33 23 57 40 74 64 98 81 115 105 11 87 28 18 52 42 69 59 93 83 110 100 6 124 72 13 47 37 71 54 88 78 112 95
1 119 25 15 42 32 66 56 83 73 107 97 45 114 20 10 44 27 61 51 85 68 102 92 126 74 15 5 39 29 56 46 80 70 97 87 121 111 59 0 34 24 58 41 75 65 99 82 116 106 12 2 29 19 53 43 70 60 94 84 68 108 115 88 56 65 22 55 67 107 50 13 124 72 13 3 116 20 85 68 58 6 75 109 99 47 81 22 12 46 122 63 53 87 35 25 94 0 76
66 7 41 31 107 48 82 72 20 54 123 113 19 95 36 26 60 8 77 67 75 92 117 94 82 24 26 123 105 27 49 104 113 109 110 73 99 127 50 12 36 54 76 120 57 25 8 126 80 74 56 11 62 80 28 18 52 42 111 59 93 83 24 100 6 51 27 17 51 41 75 58 92 82 116 99 5 123 29 105 46 36 70 60 87 77 111 101 0 118 24 14 90 31 65 55 89 72 106
96 2 113 19 9 43 119 60 50 84 74 101 91 125 115 14 4 38 28 62 45 79 69 103 86 120 110 16 92 33 23 57 47 74 64 98 88 115 105 11 1 77 18 52 42 76 59 93 83 117 100 6 124 30 20 47 37 71 61 88 78 112 102 50 119 25 15 49 32 66 56 90 73 107 97 66 73 52 104 91 119 9 127 33 23 50 40 74 64 12 81 115 105 53 122 28 18 52 35
69 59 93 41 110 100 30 77 123 54 91 1 28 114 11 45 35 104 10 86 76 17 51 127 117 23 92 40 30 64 5 123 71 105 46 36 112 18 8 77 111 59 49 118 24 100 90 124 88 71 61 9 78 112 102 8 119 25 15 49 125 66 56 90 80 107 97 3 121 20 10 44 34 110 51 85 75 109 92 126 116 22 5 39 29 63 11 80 70 104 94 121 111 17 7 83 24 58 48
82 65 99 89 30 91 11 122 70 60 1 35 25 101 42 76 66 14 83 117 107 55 89 30 20 54 2 71 61 95 43 33 102 8 126 74 15 49 39 115 56 90 80 28 62 3 121 33 71 64 123 33 59 71 43 4 69 8 35 25 59 49 118 66 100 90 31 107 13 3 37 20 54 44 78 31 108 47 72 11 80 114 62 52 121 27 103 93 34 68 58 6 40 109 99 47 81 22 12
88 122 63 53 87 35 25 94 0 76 66 7 41 31 107 48 17 57 74 109 85 75 109 99 126 116 22 12 88 29 63 53 87 70 104 94 0 111 17 7 41 117 58 48 102 0 103 96 79 69 96 86 120 110 16 127 33 23 57 40 74 64 98 46 115 105 11 1 28 18 52 42 69 59 93 83 117 100 6 124 30 13 47 37 71 54 88 78 112 102 1 119 25 15 42 32 66 56 83
73 107 97 3 114 20 10 86 5 74 62 0 4 64 98 88 122 63 11 1 35 104 52 42 76 66 7 83 117 107 48 124 30 20 89 37 71 58 104 28 35 93 10 28 18 94 0 118 59 7 41 31 100 6 82 119 23 6 124 30 106 47 37 71 19 88 78 112 60 1 119 25 15 91 32 66 56 4 73 107 97 3 114 20 10 51 60 70 1 53 100 27 45 20 37 116 73 46 81
71 90 107 4 79 94 68 95 78 26 95 85 119 109 8 126 32 22 49 39 73 63 97 80 114 104 10 121 27 17 51 127 68 58 92 82 112 95 85 33 102 8 126 32 108 49 39 73 21 90 80 114 62 3 121 27 17 93 34 68 58 6 75 109 99 5 116 22 12 46 122 63 53 87 35 104 94 0 118 66 7 41 31 107 48 45 5 29 97 113 10 96 61 17 83 124 31 53 117
20 20 116 121 36 41 41 59 49 83 31 100 90 124 114 62 3 37 27 103 44 78 68 102 85 119 109 15 91 32 22 56 4 73 63 97 87 114 104 10 0 76 17 51 41 117 58 92 82 116 99 5 123 29 105 46 36 70 60 87 77 111 101 49 118 24 14 90 31 65 55 89 72 41 37 1 65 86 69 20 14 85 48 7 112 101 3 47 123 67 92 103 88 82 90 72 17 104 45
63 53 87 35 104 94 0 118 17 7 41 31 107 48 82 72 20 89 123 113 19 2 36 26 60 8 52 80 10 62 77 49 77 118 44 11 108 63 42 11 115 46 116 118 122 125 108 56 125 115 21 97 33 70 66 91 93 33 49 81 54 68 51 41 117 58 92 82 30 99 5 123 71 105 46 36 70 18 87 77 111 59 49 118 24 14 25 49 61 87 114 12 105 81 96 80 20 46 29
19 46 36 70 60 87 77 111 101 49 118 24 14 48 31 65 55 89 72 106 96 2 78 19 9 43 33 60 50 84 74 22 91 125 115 63 4 38 28 62 45 79 69 103 51 120 110 16 6 33 23 57 47 74 64 98 88 36 105 11 1 35 18 52 42 76 59 93 83 117 65 6 124 30 20 47 37 71 61 9 78 112 102 8 119 25 15 49 32 5 24 17 60 102 85 75 23 92 126
116 64 5 39 29 105 11 80 70 104 52 121 111 17 93 83 24 58 48 124 65 99 89 37 106 12 2 78 112 21 41 115 111 116 52 114 83 111 94 42 110 7 76 110 100 6 117 23 13 47 30 64 54 88 78 105 95 1 119 18 8 42 32 108 49 83 73 107 90 124 114 20 3 37 27 61 9 78 68 102 92 119 109 15 5 32 22 56 46 122 63 97 87 121 104 10 0 34 110
51 41 75 65 92 82 116 106 5 123 29 19 95 36 70 60 94 77 111 101 7 118 24 14 48 124 65 55 33 61 27 66 92 117 58 92 82 30 64 5 123 29 105 46 36 70 18 8 77 111 101 49 118 24 14 90 31 65 55 3 37 106 96 2 78 19 9 43 119 60 50 84 32 22 91 125 115 63 4 38 28 104 10 79 69 17 51 120 110 16 92 33 23 57 5 123 64 98 88
36 105 11 1 3 0 120 79 120 107 69 48 31 21 48 38 72 62 89 79 113 103 9 120 26 16 50 33 67 57 91 39 108 98 4 122 21 11 45 35 62 52 86 76 24 93 127 117 23 6 40 30 64 47 81 71 105 53 122 112 18 8 35 25 59 49 125 66 100 90 124 107 13 3 37 20 54 44 78 26 108 95 74 13 96 44 40 3 21 97 87 121 111 52 9 120 110 9 127
33 23 50 40 74 64 98 81 115 105 11 122 28 18 52 0 69 59 93 83 110 100 6 124 23 13 47 37 113 54 88 78 112 95 1 119 25 8 42 32 66 56 83 73 107 97 124 114 20 10 86 27 61 51 85 68 102 92 126 109 7 95 111 50 119 67 101 91 32 127 86 110 30 32 99 5 123 22 12 46 36 105 53 87 77 18 94 0 22 5 116 22 12 46 29 63 53 87 35
104 94 0 118 22 104 22 11 28 8 53 34 108 119 118 107 19 56 125 103 118 47 97 120 69 94 35 69 59 7 76 110 100 6 117 23 13 47 123 64 54 88 36 105 95 1 119 53 71 61 95 43 119 44 20 125 89 90 12 120 80 87 112 18 8 77 25 59 49 118 66 100 119 0 15 117 111 45 36 19 9 43 119 60 50 84 32 101 91 125 115 31 14 4 38 114 55 45 79
27 96 86 120 110 9 127 33 23 99 40 74 64 12 81 115 105 11 122 28 18 52 0 69 59 93 41 110 100 6 124 72 13 47 37 19 99 102 82 107 48 82 72 106 54 123 113 19 95 36 26 60 8 77 67 101 91 39 108 14 4 80 21 55 45 79 27 96 86 120 68 9 127 33 109 50 40 74 64 12 81 115 105 53 122 28 18 94 35 69 59 93 41 110 100 6 82 23 13
47 37 64 54 88 78 26 95 1 119 67 8 42 32 66 14 83 73 107 55 124 114 20 96 37 27 38 21 97 38 28 62 10 48 17 66 35 54 117 108 33 0 126 86 125 13 91 44 123 22 93 111 101 49 83 24 14 90 124 65 55 89 37 27 96 2 78 68 9 43 33 109 50 84 74 22 56 125 115 63 97 38 28 62 10 79 69 103 51 41 110 16 92 82 23 57 47 123 29
 